<svg width="214" height="60" viewBox="0 0 214 60" fill="none" xmlns="http://www.w3.org/2000/svg">
<mask id="path-1-outside-1_26_17" maskUnits="userSpaceOnUse" x="0" y="0" width="214" height="60" fill="black">
<rect fill="white" width="214" height="60"/>
<path d="M44.4125 10.9624C43.4744 10.9236 42.5267 10.8752 41.5694 10.8171C40.6121 10.759 39.5878 10.7009 38.4964 10.6427C37.4051 10.5846 36.1989 10.5362 34.8779 10.4974C33.576 10.4587 32.1017 10.4393 30.4552 10.4393C28.3491 10.4393 26.3101 10.4974 24.3381 10.6137C22.366 10.7105 20.4132 10.9043 18.4794 11.1949C16.5457 11.4855 14.612 11.8923 12.6782 12.4154C10.7445 12.9385 8.76291 13.6262 6.73344 14.4786C7.55672 16.8034 8.21725 19.0798 8.71504 21.3077C9.21284 23.5356 9.59575 25.657 9.86379 27.6718C10.151 29.6866 10.3424 31.5755 10.4382 33.3385C10.5339 35.1014 10.5818 36.69 10.5818 38.1043C10.5818 39.441 10.553 40.6228 10.4956 41.6496C10.4382 42.657 10.3712 43.4997 10.2946 44.1778C10.218 44.9915 10.1223 45.6889 10.0074 46.2701C10.9264 44.0615 11.8167 41.7271 12.6782 39.2667C13.5589 36.7869 14.3918 34.3362 15.1768 31.9145C15.9618 29.4735 16.6893 27.1197 17.3594 24.853C18.0295 22.5863 18.6135 20.5521 19.1112 18.7504C19.6282 16.9487 20.0494 15.4473 20.3749 14.2462C20.7004 13.0256 20.911 12.2507 21.0067 11.9214C21.4279 12.2701 21.9353 12.7157 22.5288 13.2581C23.1415 13.8006 23.7541 14.3624 24.3668 14.9436C24.9795 15.5248 25.5443 16.0866 26.0612 16.6291C26.5973 17.1521 27.0089 17.588 27.2961 17.9368C26.8175 19.7385 26.1856 21.7242 25.4007 23.894C24.6157 26.0638 23.7446 28.3014 22.7873 30.6068C21.8491 32.9123 20.8631 35.2273 19.8292 37.5521C18.7953 39.8575 17.7902 42.0467 16.8137 44.1197C15.8373 46.1926 14.9279 48.0815 14.0855 49.7863C13.2622 51.4912 12.5825 52.8957 12.0464 54C11.7592 53.7094 11.405 53.3123 10.9838 52.8085C10.5626 52.3048 10.1318 51.7915 9.69148 51.2684C9.25113 50.7647 8.83949 50.29 8.45657 49.8444C8.0928 49.3989 7.82476 49.0792 7.65245 48.8855C7.69074 48.653 7.75775 48.2558 7.85348 47.694C7.96835 47.1128 8.07366 46.396 8.16939 45.5436C8.28426 44.6718 8.37999 43.6644 8.45657 42.5214C8.53316 41.3783 8.57145 40.1094 8.57145 38.7145C8.57145 37.1259 8.50444 35.4211 8.37042 33.6C8.2364 31.7595 7.96835 29.8513 7.56629 27.8752C7.18337 25.8991 6.62814 23.865 5.9006 21.7726C5.17306 19.6803 4.22534 17.5687 3.05744 15.4376C3.03829 15.4376 3.02872 15.4279 3.02872 15.4085C3.00957 15.3892 3 15.3407 3 15.2632C3 15.0695 3.06701 14.808 3.20103 14.4786C3.33505 14.1299 3.50737 13.7618 3.71797 13.3744C3.94772 12.9675 4.18704 12.5704 4.43594 12.1829C4.70398 11.7761 4.95288 11.4274 5.18263 11.1368C5.27836 11.0205 5.73786 10.7493 6.56113 10.3231C7.3844 9.87749 8.51401 9.35442 9.94995 8.75385C11.405 8.15328 13.1282 7.51396 15.1193 6.8359C17.1297 6.15783 19.3506 5.53789 21.7821 4.97607C24.2136 4.39487 26.827 3.92023 29.6223 3.55214C32.4368 3.18405 35.3661 3 38.4103 3C38.5443 3.15499 38.7549 3.41652 39.0421 3.78462C39.3484 4.13333 39.6931 4.54986 40.076 5.03419C40.4589 5.49915 40.861 6.01254 41.2822 6.57436C41.7225 7.11681 42.1437 7.65926 42.5458 8.20171C42.9479 8.72479 43.3116 9.22849 43.6371 9.71282C43.9626 10.1972 44.2211 10.6137 44.4125 10.9624Z"/>
<path d="M32.1209 44.9043C32.1209 45.4855 32.3315 45.7761 32.7527 45.7761C33.193 45.7761 33.777 45.4273 34.5045 44.7299C35.2321 44.0131 35.9883 43.1122 36.7733 42.0273C36.735 41.8142 36.7063 41.6302 36.6872 41.4752C36.6872 41.3009 36.6872 41.1459 36.6872 41.0103C36.6872 40.6228 36.7255 40.1675 36.802 39.6444C36.8978 39.102 37.1179 38.4917 37.4626 37.8137C37.6923 37.2906 37.9699 36.7772 38.2954 36.2735C38.5635 35.8279 38.8889 35.3533 39.2719 34.8496C39.6548 34.3265 40.076 33.8422 40.5355 33.3966L40.7078 33.2222C40.8993 33.4547 41.1481 33.7744 41.4545 34.1812C41.78 34.5687 42.0959 34.9755 42.4022 35.4017C42.7277 35.8085 43.0053 36.1863 43.235 36.535C43.4839 36.8838 43.6371 37.1259 43.6945 37.2615C43.6945 38.0946 43.5414 38.9276 43.235 39.7607C42.9479 40.5937 42.5554 41.4171 42.0576 42.2308C43.2063 42.1533 44.2689 41.8627 45.2454 41.359C46.2409 40.8359 47.2748 39.9932 48.347 38.8308C48.5193 39.0051 48.7395 39.2473 49.0075 39.5573C49.2947 39.8479 49.5245 40.0997 49.6968 40.3128C48.8927 41.1652 48.0981 41.8724 47.3131 42.4342C46.5473 42.996 45.7719 43.4416 44.9869 43.7709C44.2211 44.1003 43.4361 44.3424 42.632 44.4974C41.8278 44.633 41.0046 44.7009 40.1621 44.7009C39.5112 45.3983 38.8124 46.0376 38.0657 46.6188C37.319 47.2 36.5531 47.7037 35.7682 48.1299C35.0023 48.5561 34.2365 48.8855 33.4707 49.1179C32.7048 49.3504 31.9773 49.4667 31.288 49.4667C30.7136 49.4667 30.1201 49.2923 29.5075 48.9436C28.8948 48.5949 28.3396 48.1687 27.8418 47.665C27.344 47.1419 26.9323 46.5897 26.6069 46.0085C26.2814 45.4273 26.1186 44.914 26.1186 44.4684C26.1186 42.996 26.3197 41.5333 26.7217 40.0803C27.1047 38.6273 27.7173 37.2712 28.5597 36.012C29.383 34.7333 30.436 33.6097 31.7188 32.641C33.0207 31.6724 34.562 30.9362 36.3425 30.4325C36.4 30.3937 36.4957 30.3647 36.6297 30.3453C36.7829 30.3259 36.9073 30.3162 37.0031 30.3162C37.2711 30.3162 37.5487 30.4228 37.8359 30.6359C38.1422 30.8296 38.4199 31.0524 38.6688 31.3043C38.9368 31.5561 39.157 31.808 39.3293 32.0598C39.5016 32.2923 39.5878 32.4473 39.5878 32.5248C39.5495 32.6217 39.4059 32.7476 39.157 32.9026C38.9081 33.0382 38.573 33.2803 38.1518 33.6291C37.7306 33.9778 37.2328 34.4815 36.6584 35.1402C36.0841 35.7795 35.4523 36.6319 34.763 37.6974C33.7291 39.2667 33.0303 40.6906 32.6665 41.9692C32.3028 43.2285 32.1209 44.2068 32.1209 44.9043Z"/>
<path d="M50.7594 49.4667C50.4339 49.4667 50.0031 49.3117 49.467 49.0017C48.9501 48.7111 48.4427 48.343 47.9449 47.8974C47.4471 47.4712 47.0164 47.0256 46.6526 46.5607C46.2888 46.0957 46.1069 45.6986 46.1069 45.3692C46.1069 44.788 46.2697 43.8678 46.5951 42.6085C46.9015 41.3493 47.3131 39.9157 47.8301 38.3077C48.347 36.6803 48.9309 34.9464 49.5819 33.106C50.252 31.2655 50.9221 29.4638 51.5922 27.7009H47.5141C47.495 27.7009 47.4854 27.6815 47.4854 27.6427C47.4854 27.5265 47.5333 27.3618 47.629 27.1487C47.7056 26.9162 47.8109 26.6838 47.9449 26.4513C48.0598 26.1994 48.2034 25.9766 48.3757 25.7829C48.5289 25.5698 48.682 25.4342 48.8352 25.3761L52.5687 25.2017C53.1047 23.8843 53.6121 22.6735 54.0908 21.5692C54.5885 20.4456 55.0289 19.4866 55.4118 18.6923C55.5076 18.4792 55.6033 18.2564 55.699 18.0239C55.8139 17.7721 55.9671 17.5299 56.1585 17.2974C56.3691 17.0456 56.6372 16.7937 56.9626 16.5419C57.3073 16.2707 57.7668 15.9994 58.3411 15.7282C58.7623 15.5151 59.2697 15.2826 59.8632 15.0308C60.4759 14.7789 61.0694 14.5464 61.6438 14.3333C62.2373 14.1202 62.7734 13.9459 63.2521 13.8103C63.7307 13.6553 64.0753 13.5778 64.2859 13.5778C64.4774 13.5778 64.5731 13.6165 64.5731 13.694V13.7521C64.5731 13.7715 64.554 13.8199 64.5157 13.8974C64.4008 14.0912 64.1902 14.5174 63.8839 15.1761C63.5775 15.8154 63.1946 16.6291 62.7351 17.6171C62.2948 18.5858 61.797 19.6997 61.2417 20.959C60.7057 22.1989 60.1504 23.5162 59.576 24.9111L66.4686 24.6496C66.66 24.6496 66.7175 24.7658 66.6409 24.9983C66.5643 25.2308 66.4207 25.502 66.2101 25.812C65.9995 26.1219 65.7506 26.4416 65.4634 26.7709C65.1954 27.1003 64.9656 27.3521 64.7742 27.5265C64.7359 27.5652 64.6593 27.604 64.5444 27.6427C64.4295 27.6815 64.2859 27.7009 64.1136 27.7009H58.4273C57.738 29.3863 57.0775 31.0912 56.4457 32.8154C55.8139 34.5396 55.2491 36.1766 54.7513 37.7265C54.2535 39.2764 53.8514 40.7003 53.5451 41.9983C53.2579 43.2963 53.1143 44.3618 53.1143 45.1949C53.1143 45.3111 53.1718 45.3692 53.2866 45.3692C53.4972 45.3692 53.8131 45.253 54.2344 45.0205C54.6556 44.7687 55.1246 44.449 55.6416 44.0615C56.1777 43.6741 56.7425 43.2479 57.336 42.7829C57.9295 42.3179 58.4943 41.8627 59.0304 41.4171C59.5665 40.9521 60.0451 40.5356 60.4663 40.1675C60.9067 39.7801 61.2417 39.4895 61.4715 39.2957C61.6438 39.4701 61.8448 39.6929 62.0746 39.9641C62.3235 40.2353 62.5532 40.4872 62.7638 40.7197C62.3426 41.1459 61.8161 41.6689 61.1843 42.2889C60.5525 42.8895 59.8632 43.5094 59.1165 44.1487C58.389 44.788 57.6232 45.4273 56.819 46.0667C56.0341 46.706 55.2587 47.2775 54.4928 47.7812C53.7461 48.2849 53.0473 48.6917 52.3963 49.0017C51.7454 49.3117 51.1997 49.4667 50.7594 49.4667Z"/>
<path d="M77.6115 45.3111C77.6115 45.4273 77.6689 45.4855 77.7838 45.4855C77.9561 45.4855 78.2433 45.3595 78.6453 45.1077C79.0474 44.8558 79.5069 44.5362 80.0238 44.1487C80.5408 43.7613 81.0864 43.3254 81.6608 42.841C82.2543 42.3567 82.8191 41.8821 83.3552 41.4171C83.8913 40.9521 84.37 40.5259 84.7912 40.1385C85.2315 39.751 85.5666 39.4507 85.7963 39.2376C85.9686 39.412 86.1792 39.6444 86.4281 39.935C86.6962 40.2256 86.9355 40.4872 87.1461 40.7197C86.6866 41.1459 86.1314 41.6689 85.4804 42.2889C84.8486 42.8895 84.1593 43.5191 83.4127 44.1778C82.6851 44.8365 81.9289 45.4952 81.1439 46.1538C80.3589 46.7932 79.5931 47.3647 78.8464 47.8684C78.0997 48.3721 77.3913 48.7789 76.7212 49.0889C76.0511 49.4182 75.4671 49.5829 74.9693 49.5829C74.6247 49.5829 74.2418 49.5151 73.8206 49.3795C73.4185 49.2439 73.0452 49.0501 72.7005 48.7983C72.3559 48.5658 72.0687 48.2849 71.839 47.9556C71.6092 47.6262 71.4944 47.2581 71.4944 46.8513C71.4944 46.6963 71.4848 46.5123 71.4656 46.2991C71.4656 46.0667 71.4848 45.7761 71.5231 45.4273C71.5614 45.0593 71.6379 44.6234 71.7528 44.1197C71.8677 43.5966 72.04 42.9573 72.2698 42.2017C71.6379 42.8798 70.8913 43.5869 70.0297 44.3231C69.1873 45.0593 68.297 45.7567 67.3588 46.4154C66.4207 47.0741 65.473 47.665 64.5157 48.188C63.5775 48.7305 62.7064 49.1373 61.9023 49.4085C61.8065 49.4473 61.73 49.4667 61.6725 49.4667C61.6151 49.4667 61.5576 49.4667 61.5002 49.4667C61.3088 49.4667 61.0599 49.3698 60.7535 49.1761C60.428 48.9823 60.1121 48.7208 59.8058 48.3915C59.4995 48.0815 59.241 47.7231 59.0304 47.3162C58.8006 46.9094 58.6858 46.5026 58.6858 46.0957C58.6858 45.9795 58.7432 45.592 58.8581 44.9333C58.973 44.2746 59.2506 43.4416 59.6909 42.4342C60.1121 41.4074 60.7439 40.2644 61.5864 39.0051C62.4288 37.7265 63.5775 36.4188 65.0326 35.082C65.7793 34.404 66.5834 33.7647 67.445 33.1641C68.1725 32.6604 69.0054 32.147 69.9435 31.6239C70.8817 31.1009 71.8677 30.6843 72.9016 30.3744C72.9399 30.3744 72.9686 30.3647 72.9877 30.3453C73.026 30.3259 73.0739 30.3356 73.1313 30.3744C73.3611 30.4519 73.6291 30.5778 73.9355 30.7521C74.2609 30.9071 74.5768 31.0815 74.8832 31.2752C75.2087 31.4496 75.4863 31.6336 75.716 31.8274C75.9649 32.0017 76.1277 32.147 76.2042 32.2632C76.2234 32.302 76.2234 32.3311 76.2042 32.3504L76.1468 32.4085C75.2852 32.8735 74.4715 33.3966 73.7057 33.9778C72.9399 34.5396 72.2602 35.0724 71.6667 35.5761C70.9774 36.1766 70.336 36.7675 69.7425 37.3487C68.3449 38.7436 67.378 39.9544 66.8419 40.9812C66.3058 41.9886 66.0378 42.7151 66.0378 43.1607C66.0378 43.49 66.1718 43.6547 66.4398 43.6547C66.7079 43.6547 67.0429 43.5481 67.445 43.335C67.8662 43.1026 68.3353 42.8023 68.8522 42.4342C69.3692 42.0467 69.934 41.6011 70.5466 41.0974C71.1784 40.5744 71.8294 40.0319 72.4995 39.4701C73.093 38.9858 73.6674 38.4627 74.2226 37.9009C74.7013 37.4359 75.1991 36.9031 75.716 36.3026C76.233 35.702 76.6733 35.0917 77.0371 34.4718C77.0371 34.4524 77.0467 34.433 77.0658 34.4137C77.0849 34.3943 77.1137 34.3943 77.152 34.4137C77.3626 34.5687 77.6019 34.8302 77.8699 35.1983C78.138 35.547 78.3869 35.9345 78.6166 36.3607C78.8464 36.7869 79.0378 37.2034 79.191 37.6103C79.3633 37.9977 79.4495 38.298 79.4495 38.5111C79.0091 39.4217 78.6645 40.2547 78.4156 41.0103C78.1858 41.7464 78.0039 42.3954 77.8699 42.9573C77.7551 43.5191 77.6785 44.0034 77.6402 44.4103C77.621 44.7977 77.6115 45.098 77.6115 45.3111Z"/>
<path d="M91.7985 45.8342C92.1049 45.8342 92.5165 45.6986 93.0335 45.4273C93.5695 45.1561 94.1535 44.8171 94.7853 44.4103C95.4171 43.984 96.0777 43.5191 96.7669 43.0154C97.4562 42.5117 98.0975 42.0177 98.6911 41.5333C99.3037 41.049 99.8494 40.6034 100.328 40.1966C100.807 39.7897 101.161 39.4895 101.391 39.2957C101.563 39.4701 101.764 39.6929 101.994 39.9641C102.243 40.2353 102.472 40.4872 102.683 40.7197C102.262 41.1459 101.735 41.6689 101.103 42.2889C100.472 42.8895 99.7824 43.5094 99.0357 44.1487C98.3081 44.788 97.5423 45.4273 96.7382 46.0667C95.9532 46.706 95.1778 47.2775 94.412 47.7812C93.6653 48.2849 92.9664 48.6917 92.3155 49.0017C91.6645 49.3117 91.1189 49.4667 90.6785 49.4667C90.085 49.4667 89.4532 49.2536 88.7831 48.8274C88.1321 48.4011 87.5194 47.9071 86.9451 47.3453C86.3707 46.7641 85.8825 46.1829 85.4804 45.6017C85.0783 45.0205 84.8486 44.5846 84.7912 44.294C84.7529 44.1778 84.7337 44.0422 84.7337 43.8872C84.7337 43.7128 84.7337 43.5288 84.7337 43.335C84.7337 42.3664 84.8582 41.1459 85.1071 39.6735C85.3368 38.1818 85.6527 36.6125 86.0548 34.9658C86.4569 33.2997 86.9164 31.653 87.4333 30.0256C87.9694 28.3789 88.5246 26.9259 89.099 25.6667C90.2669 23.09 91.4635 20.804 92.6888 18.8085C93.9333 16.8131 95.1491 15.0792 96.3361 13.6068C97.5232 12.1151 98.6623 10.8655 99.7537 9.85812C100.845 8.85071 101.821 8.03704 102.683 7.41709C103.564 6.79715 104.301 6.35157 104.894 6.08034C105.507 5.80912 105.928 5.6735 106.158 5.6735C106.522 5.80912 106.885 6.01254 107.249 6.28376C107.632 6.53561 107.986 6.80684 108.312 7.09744C108.637 7.38803 108.925 7.67863 109.173 7.96923C109.422 8.24046 109.604 8.44387 109.719 8.57949C109.872 8.73447 109.968 8.88946 110.006 9.04444C110.064 9.18006 110.092 9.3641 110.092 9.59658C110.092 10.0615 109.978 10.7009 109.748 11.5145C109.518 12.3282 109.087 13.3647 108.455 14.6239C107.824 15.8638 106.943 17.3556 105.813 19.0991C104.703 20.8427 103.248 22.8769 101.448 25.2017C100.606 26.2866 99.7154 27.3909 98.7772 28.5145C97.9731 29.4832 97.0445 30.539 95.9915 31.6821C94.9385 32.8251 93.8567 33.9197 92.7463 34.9658C92.191 37.0969 91.7985 38.9761 91.5688 40.6034C91.3582 42.2308 91.2529 43.4997 91.2529 44.4103C91.2529 45.0108 91.3008 45.3983 91.3965 45.5726C91.4922 45.747 91.6262 45.8342 91.7985 45.8342ZM96.3936 24.5333C96.0681 25.2695 95.7617 25.9863 95.4746 26.6838C95.2065 27.3812 94.948 28.0689 94.6991 28.747C95.2927 28.0689 95.8288 27.4199 96.3074 26.8C96.8052 26.1801 97.2264 25.6473 97.571 25.2017C97.9731 24.6786 98.3369 24.1846 98.6623 23.7197C100.003 21.8211 101.161 20.0775 102.137 18.4889C103.114 16.9003 103.918 15.5054 104.55 14.3043C105.182 13.0838 105.641 12.0764 105.928 11.2821C106.235 10.4684 106.388 9.88718 106.388 9.53846C106.388 9.4416 106.378 9.37379 106.359 9.33504C106.359 9.27692 106.311 9.24786 106.215 9.24786C106.043 9.24786 105.651 9.53846 105.038 10.1197C104.425 10.6815 103.669 11.5823 102.769 12.8222C101.888 14.0621 100.893 15.6507 99.7824 17.588C98.6911 19.506 97.5615 21.8211 96.3936 24.5333Z"/>
<path d="M159.747 10.9624C158.809 10.9236 157.861 10.8752 156.904 10.8171C155.947 10.759 154.922 10.7009 153.831 10.6427C152.74 10.5846 151.534 10.5362 150.213 10.4974C148.911 10.4587 147.436 10.4393 145.79 10.4393C143.684 10.4393 141.645 10.4974 139.673 10.6137C137.701 10.7105 135.748 10.9043 133.814 11.1949C131.88 11.4855 129.947 11.8923 128.013 12.4154C126.079 12.9385 124.098 13.6262 122.068 14.4786C122.891 16.8034 123.552 19.0798 124.05 21.3077C124.548 23.5356 124.93 25.657 125.199 27.6718C125.486 29.6866 125.677 31.5755 125.773 33.3385C125.869 35.1014 125.916 36.69 125.916 38.1043C125.916 39.441 125.888 40.6228 125.83 41.6496C125.773 42.657 125.706 43.4997 125.629 44.1778C125.553 44.9915 125.457 45.6889 125.342 46.2701C126.261 44.0615 127.151 41.7271 128.013 39.2667C128.894 36.7869 129.727 34.3362 130.511 31.9145C131.296 29.4735 132.024 27.1197 132.694 24.853C133.364 22.5863 133.948 20.5521 134.446 18.7504C134.963 16.9487 135.384 15.4473 135.71 14.2462C136.035 13.0256 136.246 12.2507 136.341 11.9214C136.763 12.2701 137.27 12.7157 137.864 13.2581C138.476 13.8006 139.089 14.3624 139.702 14.9436C140.314 15.5248 140.879 16.0866 141.396 16.6291C141.932 17.1521 142.344 17.588 142.631 17.9368C142.152 19.7385 141.52 21.7242 140.735 23.894C139.95 26.0638 139.079 28.3014 138.122 30.6068C137.184 32.9123 136.198 35.2273 135.164 37.5521C134.13 39.8575 133.125 42.0467 132.148 44.1197C131.172 46.1926 130.263 48.0815 129.42 49.7863C128.597 51.4912 127.917 52.8957 127.381 54C127.094 53.7094 126.74 53.3123 126.319 52.8085C125.897 52.3048 125.467 51.7915 125.026 51.2684C124.586 50.7647 124.174 50.29 123.791 49.8444C123.428 49.3989 123.159 49.0792 122.987 48.8855C123.025 48.653 123.092 48.2558 123.188 47.694C123.303 47.1128 123.408 46.396 123.504 45.5436C123.619 44.6718 123.715 43.6644 123.791 42.5214C123.868 41.3783 123.906 40.1094 123.906 38.7145C123.906 37.1259 123.839 35.4211 123.705 33.6C123.571 31.7595 123.303 29.8513 122.901 27.8752C122.518 25.8991 121.963 23.865 121.235 21.7726C120.508 19.6803 119.56 17.5687 118.392 15.4376C118.373 15.4376 118.363 15.4279 118.363 15.4085C118.344 15.3892 118.335 15.3407 118.335 15.2632C118.335 15.0695 118.402 14.808 118.536 14.4786C118.67 14.1299 118.842 13.7618 119.053 13.3744C119.282 12.9675 119.522 12.5704 119.771 12.1829C120.039 11.7761 120.288 11.4274 120.517 11.1368C120.613 11.0205 121.073 10.7493 121.896 10.3231C122.719 9.87749 123.849 9.35442 125.285 8.75385C126.74 8.15328 128.463 7.51396 130.454 6.8359C132.464 6.15783 134.685 5.53789 137.117 4.97607C139.548 4.39487 142.162 3.92023 144.957 3.55214C147.772 3.18405 150.701 3 153.745 3C153.879 3.15499 154.09 3.41652 154.377 3.78462C154.683 4.13333 155.028 4.54986 155.411 5.03419C155.794 5.49915 156.196 6.01254 156.617 6.57436C157.057 7.11681 157.478 7.65926 157.881 8.20171C158.283 8.72479 158.646 9.22849 158.972 9.71282C159.297 10.1972 159.556 10.6137 159.747 10.9624Z"/>
<path d="M145.273 49.4667C144.986 49.4667 144.622 49.3601 144.182 49.147C143.741 48.9533 143.32 48.7014 142.918 48.3915C142.516 48.1009 142.171 47.7715 141.884 47.4034C141.597 47.0353 141.453 46.6769 141.453 46.3282C141.645 45.4758 141.903 44.4974 142.229 43.3932C142.554 42.2889 142.908 41.1652 143.291 40.0222C143.655 38.8792 144.048 37.7652 144.469 36.6803C144.871 35.5761 145.235 34.5977 145.56 33.7453C145.905 32.8929 146.202 32.2051 146.45 31.6821C146.699 31.159 146.862 30.8974 146.939 30.8974C147.054 30.8974 147.341 31.0234 147.8 31.2752C148.26 31.5271 148.738 31.837 149.236 32.2051C149.753 32.5538 150.213 32.9316 150.615 33.3385C151.017 33.7259 151.218 34.065 151.218 34.3556C151.218 34.4137 151.208 34.4912 151.189 34.588C151.17 34.6655 151.141 34.7721 151.103 34.9077C150.95 35.392 150.749 35.9635 150.5 36.6222C150.27 37.2809 150.021 37.9687 149.753 38.6855C149.485 39.3829 149.217 40.09 148.949 40.8068C148.681 41.5043 148.442 42.163 148.231 42.7829C148.02 43.4028 147.848 43.9453 147.714 44.4103C147.58 44.8752 147.513 45.2142 147.513 45.4273C147.513 45.5436 147.57 45.6017 147.685 45.6017C147.896 45.6017 148.212 45.4758 148.633 45.2239C149.054 44.9721 149.533 44.6427 150.069 44.2359C150.624 43.8291 151.199 43.3835 151.792 42.8991C152.386 42.4148 152.95 41.9402 153.487 41.4752C154.042 40.9909 154.54 40.555 154.98 40.1675C155.42 39.7801 155.755 39.4895 155.985 39.2957C156.157 39.4701 156.358 39.6929 156.588 39.9641C156.837 40.2353 157.067 40.4872 157.277 40.7197C156.856 41.1459 156.33 41.6689 155.698 42.2889C155.066 42.8895 154.377 43.5094 153.63 44.1487C152.903 44.788 152.137 45.4273 151.333 46.0667C150.548 46.706 149.782 47.2775 149.035 47.7812C148.288 48.2849 147.59 48.6917 146.939 49.0017C146.288 49.3117 145.732 49.4667 145.273 49.4667ZM156.646 22.0342C156.626 22.1117 156.55 22.3054 156.416 22.6154C156.301 22.906 156.157 23.2547 155.985 23.6615C155.813 24.049 155.612 24.4655 155.382 24.9111C155.171 25.3373 154.961 25.7345 154.75 26.1026C154.54 26.4707 154.339 26.7806 154.147 27.0325C153.956 27.265 153.802 27.3812 153.688 27.3812C153.343 27.3618 152.922 27.2553 152.424 27.0615C151.945 26.8678 151.476 26.6547 151.017 26.4222C150.576 26.1704 150.193 25.9282 149.868 25.6957C149.562 25.4632 149.408 25.2986 149.408 25.2017C149.408 24.7949 149.523 24.2718 149.753 23.6325C149.983 22.9738 150.251 22.3442 150.557 21.7436C150.864 21.1236 151.17 20.5909 151.476 20.1453C151.802 19.6997 152.051 19.4769 152.223 19.4769C152.568 19.4769 152.989 19.5932 153.487 19.8256C153.984 20.0387 154.463 20.2906 154.922 20.5812C155.401 20.8718 155.803 21.1624 156.129 21.453C156.473 21.7242 156.646 21.9179 156.646 22.0342Z"/>
<path d="M163.452 33.8325C163.222 34.433 162.992 35.053 162.763 35.6923C162.533 36.3316 162.313 36.9806 162.102 37.6393C163.308 36.1863 164.304 35.0239 165.089 34.1521C165.893 33.2803 166.554 32.6023 167.071 32.1179C167.607 31.6336 168.047 31.2946 168.392 31.1009C168.736 30.9071 169.052 30.7618 169.339 30.665C169.512 30.665 169.799 30.7618 170.201 30.9556C170.622 31.1493 171.062 31.3915 171.522 31.6821C172.001 31.9533 172.451 32.2439 172.872 32.5538C173.293 32.8444 173.59 33.0866 173.762 33.2803C173.915 33.4353 173.934 33.6581 173.819 33.9487C173.59 34.5687 173.36 35.1983 173.13 35.8376C172.92 36.4575 172.709 37.0969 172.498 37.7556C173.781 36.2638 174.853 35.0724 175.715 34.1812C176.576 33.2707 177.275 32.5732 177.811 32.0889C178.367 31.6046 178.797 31.2849 179.104 31.1299C179.41 30.9749 179.649 30.8974 179.822 30.8974C180.071 30.8974 180.444 31.0234 180.942 31.2752C181.44 31.5271 181.937 31.837 182.435 32.2051C182.952 32.5732 183.392 32.951 183.756 33.3385C184.139 33.7259 184.331 34.065 184.331 34.3556C184.331 34.4137 184.321 34.4912 184.302 34.588C184.283 34.6655 184.254 34.7721 184.216 34.9077C184.063 35.392 183.861 35.9635 183.613 36.6222C183.383 37.2809 183.134 37.9687 182.866 38.6855C182.598 39.3829 182.33 40.09 182.062 40.8068C181.794 41.5043 181.554 42.163 181.344 42.7829C181.133 43.4028 180.961 43.9453 180.827 44.4103C180.693 44.8752 180.626 45.2142 180.626 45.4273C180.626 45.5436 180.683 45.6017 180.798 45.6017C181.009 45.6017 181.325 45.4758 181.746 45.2239C182.167 44.9721 182.646 44.6427 183.182 44.2359C183.737 43.8291 184.311 43.3835 184.905 42.8991C185.498 42.4148 186.063 41.9402 186.599 41.4752C187.155 40.9909 187.652 40.555 188.093 40.1675C188.533 39.7801 188.868 39.4895 189.098 39.2957C189.27 39.4701 189.471 39.6929 189.701 39.9641C189.95 40.2353 190.18 40.4872 190.39 40.7197C189.969 41.1459 189.442 41.6689 188.811 42.2889C188.179 42.8895 187.49 43.5094 186.743 44.1487C186.015 44.788 185.25 45.4273 184.445 46.0667C183.66 46.706 182.895 47.2775 182.148 47.7812C181.401 48.2849 180.702 48.6917 180.051 49.0017C179.4 49.3117 178.845 49.4667 178.386 49.4667C178.099 49.4667 177.735 49.3601 177.294 49.147C176.854 48.9533 176.433 48.7014 176.031 48.3915C175.629 48.1009 175.284 47.7715 174.997 47.4034C174.71 47.0353 174.566 46.6769 174.566 46.3282C174.738 45.5339 174.968 44.633 175.255 43.6256C175.543 42.6182 175.858 41.5915 176.203 40.5453C176.548 39.4798 176.902 38.4336 177.266 37.4068C177.649 36.3801 178.012 35.4308 178.357 34.559C177.974 35.0239 177.467 35.5858 176.835 36.2444C176.203 36.9031 175.485 37.7749 174.681 38.8598C173.877 39.9254 173.015 41.2524 172.096 42.841C171.177 44.4296 170.258 46.367 169.339 48.653C169.224 49.0405 168.947 49.2342 168.506 49.2342C168.277 49.2342 167.99 49.1858 167.645 49.0889C167.319 49.0114 166.965 48.8758 166.582 48.6821C166.219 48.5077 165.836 48.2849 165.434 48.0137C165.051 47.7424 164.687 47.4131 164.342 47.0256C164.342 46.89 164.409 46.4832 164.543 45.8051C164.696 45.1077 164.907 44.2262 165.175 43.1607C165.462 42.0952 165.797 40.9037 166.18 39.5863C166.563 38.2689 166.994 36.9128 167.473 35.5179C167.013 36.0217 166.439 36.6707 165.749 37.465C165.06 38.2399 164.323 39.1892 163.538 40.3128C162.753 41.4171 161.949 42.7054 161.126 44.1778C160.302 45.6501 159.527 47.3162 158.8 49.1761C158.685 49.5829 158.417 49.7863 157.995 49.7863C157.67 49.7863 157.306 49.6895 156.904 49.4957C156.483 49.3214 156.062 49.0792 155.64 48.7692C155.2 48.4786 154.769 48.1493 154.348 47.7812C153.908 47.4131 153.515 47.045 153.171 46.6769C153.171 46.5607 153.228 46.2313 153.343 45.6889C153.439 45.1464 153.582 44.4684 153.774 43.6547C153.965 42.8217 154.205 41.8821 154.492 40.8359C154.76 39.7704 155.076 38.6564 155.439 37.494C155.803 36.3316 156.205 35.1499 156.646 33.9487C157.086 32.7282 157.555 31.5561 158.053 30.4325C158.857 30.8199 159.747 31.2946 160.724 31.8564C161.719 32.4182 162.629 33.0769 163.452 33.8325Z"/>
<path d="M209 40.7197C207.239 42.4632 205.573 43.9259 204.003 45.1077C202.452 46.2895 200.968 47.2387 199.552 47.9556C198.135 48.6724 196.775 49.1858 195.473 49.4957C194.191 49.8057 192.937 49.9607 191.711 49.9607C191.194 49.9607 190.62 49.767 189.988 49.3795C189.356 48.992 188.772 48.5174 188.236 47.9556C187.681 47.4131 187.222 46.8416 186.858 46.241C186.494 45.6405 186.312 45.1271 186.312 44.7009C186.312 43.1122 186.532 41.6593 186.973 40.3419C187.394 39.0051 187.959 37.804 188.667 36.7385C189.375 35.6729 190.18 34.7333 191.079 33.9197C191.998 33.106 192.946 32.4279 193.923 31.8855C194.918 31.343 195.904 30.9362 196.881 30.665C197.857 30.3937 198.757 30.2581 199.58 30.2581C200.174 30.2581 200.758 30.4325 201.332 30.7812C201.926 31.1299 202.462 31.5561 202.94 32.0598C203.419 32.5635 203.802 33.0963 204.089 33.6581C204.395 34.2006 204.549 34.6752 204.549 35.082C204.549 35.7407 204.271 36.4188 203.716 37.1162C203.18 37.7943 202.414 38.4917 201.418 39.2085C200.423 39.9254 199.226 40.6615 197.828 41.4171C196.431 42.1533 194.889 42.8991 193.205 43.6547C193.147 44.1197 193.118 44.5749 193.118 45.0205C193.118 45.6211 193.243 46.0279 193.492 46.241C193.76 46.4541 194.248 46.5607 194.957 46.5607C196.22 46.5607 197.407 46.3476 198.518 45.9214C199.647 45.4952 200.729 44.943 201.763 44.265C202.797 43.5869 203.792 42.812 204.75 41.9402C205.707 41.0684 206.655 40.1869 207.593 39.2957L209 40.7197ZM198.891 33.4547C198.508 33.4547 198.087 33.6678 197.627 34.094C197.168 34.5009 196.708 35.0433 196.249 35.7214C195.789 36.3994 195.349 37.184 194.928 38.0752C194.507 38.947 194.143 39.8575 193.836 40.8068C194.545 40.3419 195.234 39.8479 195.904 39.3248C196.593 38.8017 197.206 38.2593 197.742 37.6974C198.278 37.1162 198.709 36.5254 199.035 35.9248C199.36 35.3242 199.523 34.7236 199.523 34.1231C199.523 33.9487 199.465 33.7937 199.35 33.6581C199.255 33.5225 199.102 33.4547 198.891 33.4547Z"/>
</mask>
<path d="M44.4125 10.9624C43.4744 10.9236 42.5267 10.8752 41.5694 10.8171C40.6121 10.759 39.5878 10.7009 38.4964 10.6427C37.4051 10.5846 36.1989 10.5362 34.8779 10.4974C33.576 10.4587 32.1017 10.4393 30.4552 10.4393C28.3491 10.4393 26.3101 10.4974 24.3381 10.6137C22.366 10.7105 20.4132 10.9043 18.4794 11.1949C16.5457 11.4855 14.612 11.8923 12.6782 12.4154C10.7445 12.9385 8.76291 13.6262 6.73344 14.4786C7.55672 16.8034 8.21725 19.0798 8.71504 21.3077C9.21284 23.5356 9.59575 25.657 9.86379 27.6718C10.151 29.6866 10.3424 31.5755 10.4382 33.3385C10.5339 35.1014 10.5818 36.69 10.5818 38.1043C10.5818 39.441 10.553 40.6228 10.4956 41.6496C10.4382 42.657 10.3712 43.4997 10.2946 44.1778C10.218 44.9915 10.1223 45.6889 10.0074 46.2701C10.9264 44.0615 11.8167 41.7271 12.6782 39.2667C13.5589 36.7869 14.3918 34.3362 15.1768 31.9145C15.9618 29.4735 16.6893 27.1197 17.3594 24.853C18.0295 22.5863 18.6135 20.5521 19.1112 18.7504C19.6282 16.9487 20.0494 15.4473 20.3749 14.2462C20.7004 13.0256 20.911 12.2507 21.0067 11.9214C21.4279 12.2701 21.9353 12.7157 22.5288 13.2581C23.1415 13.8006 23.7541 14.3624 24.3668 14.9436C24.9795 15.5248 25.5443 16.0866 26.0612 16.6291C26.5973 17.1521 27.0089 17.588 27.2961 17.9368C26.8175 19.7385 26.1856 21.7242 25.4007 23.894C24.6157 26.0638 23.7446 28.3014 22.7873 30.6068C21.8491 32.9123 20.8631 35.2273 19.8292 37.5521C18.7953 39.8575 17.7902 42.0467 16.8137 44.1197C15.8373 46.1926 14.9279 48.0815 14.0855 49.7863C13.2622 51.4912 12.5825 52.8957 12.0464 54C11.7592 53.7094 11.405 53.3123 10.9838 52.8085C10.5626 52.3048 10.1318 51.7915 9.69148 51.2684C9.25113 50.7647 8.83949 50.29 8.45657 49.8444C8.0928 49.3989 7.82476 49.0792 7.65245 48.8855C7.69074 48.653 7.75775 48.2558 7.85348 47.694C7.96835 47.1128 8.07366 46.396 8.16939 45.5436C8.28426 44.6718 8.37999 43.6644 8.45657 42.5214C8.53316 41.3783 8.57145 40.1094 8.57145 38.7145C8.57145 37.1259 8.50444 35.4211 8.37042 33.6C8.2364 31.7595 7.96835 29.8513 7.56629 27.8752C7.18337 25.8991 6.62814 23.865 5.9006 21.7726C5.17306 19.6803 4.22534 17.5687 3.05744 15.4376C3.03829 15.4376 3.02872 15.4279 3.02872 15.4085C3.00957 15.3892 3 15.3407 3 15.2632C3 15.0695 3.06701 14.808 3.20103 14.4786C3.33505 14.1299 3.50737 13.7618 3.71797 13.3744C3.94772 12.9675 4.18704 12.5704 4.43594 12.1829C4.70398 11.7761 4.95288 11.4274 5.18263 11.1368C5.27836 11.0205 5.73786 10.7493 6.56113 10.3231C7.3844 9.87749 8.51401 9.35442 9.94995 8.75385C11.405 8.15328 13.1282 7.51396 15.1193 6.8359C17.1297 6.15783 19.3506 5.53789 21.7821 4.97607C24.2136 4.39487 26.827 3.92023 29.6223 3.55214C32.4368 3.18405 35.3661 3 38.4103 3C38.5443 3.15499 38.7549 3.41652 39.0421 3.78462C39.3484 4.13333 39.6931 4.54986 40.076 5.03419C40.4589 5.49915 40.861 6.01254 41.2822 6.57436C41.7225 7.11681 42.1437 7.65926 42.5458 8.20171C42.9479 8.72479 43.3116 9.22849 43.6371 9.71282C43.9626 10.1972 44.2211 10.6137 44.4125 10.9624Z" fill="#F9F2E6"/>
<path d="M32.1209 44.9043C32.1209 45.4855 32.3315 45.7761 32.7527 45.7761C33.193 45.7761 33.777 45.4273 34.5045 44.7299C35.2321 44.0131 35.9883 43.1122 36.7733 42.0273C36.735 41.8142 36.7063 41.6302 36.6872 41.4752C36.6872 41.3009 36.6872 41.1459 36.6872 41.0103C36.6872 40.6228 36.7255 40.1675 36.802 39.6444C36.8978 39.102 37.1179 38.4917 37.4626 37.8137C37.6923 37.2906 37.9699 36.7772 38.2954 36.2735C38.5635 35.8279 38.8889 35.3533 39.2719 34.8496C39.6548 34.3265 40.076 33.8422 40.5355 33.3966L40.7078 33.2222C40.8993 33.4547 41.1481 33.7744 41.4545 34.1812C41.78 34.5687 42.0959 34.9755 42.4022 35.4017C42.7277 35.8085 43.0053 36.1863 43.235 36.535C43.4839 36.8838 43.6371 37.1259 43.6945 37.2615C43.6945 38.0946 43.5414 38.9276 43.235 39.7607C42.9479 40.5937 42.5554 41.4171 42.0576 42.2308C43.2063 42.1533 44.2689 41.8627 45.2454 41.359C46.2409 40.8359 47.2748 39.9932 48.347 38.8308C48.5193 39.0051 48.7395 39.2473 49.0075 39.5573C49.2947 39.8479 49.5245 40.0997 49.6968 40.3128C48.8927 41.1652 48.0981 41.8724 47.3131 42.4342C46.5473 42.996 45.7719 43.4416 44.9869 43.7709C44.2211 44.1003 43.4361 44.3424 42.632 44.4974C41.8278 44.633 41.0046 44.7009 40.1621 44.7009C39.5112 45.3983 38.8124 46.0376 38.0657 46.6188C37.319 47.2 36.5531 47.7037 35.7682 48.1299C35.0023 48.5561 34.2365 48.8855 33.4707 49.1179C32.7048 49.3504 31.9773 49.4667 31.288 49.4667C30.7136 49.4667 30.1201 49.2923 29.5075 48.9436C28.8948 48.5949 28.3396 48.1687 27.8418 47.665C27.344 47.1419 26.9323 46.5897 26.6069 46.0085C26.2814 45.4273 26.1186 44.914 26.1186 44.4684C26.1186 42.996 26.3197 41.5333 26.7217 40.0803C27.1047 38.6273 27.7173 37.2712 28.5597 36.012C29.383 34.7333 30.436 33.6097 31.7188 32.641C33.0207 31.6724 34.562 30.9362 36.3425 30.4325C36.4 30.3937 36.4957 30.3647 36.6297 30.3453C36.7829 30.3259 36.9073 30.3162 37.0031 30.3162C37.2711 30.3162 37.5487 30.4228 37.8359 30.6359C38.1422 30.8296 38.4199 31.0524 38.6688 31.3043C38.9368 31.5561 39.157 31.808 39.3293 32.0598C39.5016 32.2923 39.5878 32.4473 39.5878 32.5248C39.5495 32.6217 39.4059 32.7476 39.157 32.9026C38.9081 33.0382 38.573 33.2803 38.1518 33.6291C37.7306 33.9778 37.2328 34.4815 36.6584 35.1402C36.0841 35.7795 35.4523 36.6319 34.763 37.6974C33.7291 39.2667 33.0303 40.6906 32.6665 41.9692C32.3028 43.2285 32.1209 44.2068 32.1209 44.9043Z" fill="#F9F2E6"/>
<path d="M50.7594 49.4667C50.4339 49.4667 50.0031 49.3117 49.467 49.0017C48.9501 48.7111 48.4427 48.343 47.9449 47.8974C47.4471 47.4712 47.0164 47.0256 46.6526 46.5607C46.2888 46.0957 46.1069 45.6986 46.1069 45.3692C46.1069 44.788 46.2697 43.8678 46.5951 42.6085C46.9015 41.3493 47.3131 39.9157 47.8301 38.3077C48.347 36.6803 48.9309 34.9464 49.5819 33.106C50.252 31.2655 50.9221 29.4638 51.5922 27.7009H47.5141C47.495 27.7009 47.4854 27.6815 47.4854 27.6427C47.4854 27.5265 47.5333 27.3618 47.629 27.1487C47.7056 26.9162 47.8109 26.6838 47.9449 26.4513C48.0598 26.1994 48.2034 25.9766 48.3757 25.7829C48.5289 25.5698 48.682 25.4342 48.8352 25.3761L52.5687 25.2017C53.1047 23.8843 53.6121 22.6735 54.0908 21.5692C54.5885 20.4456 55.0289 19.4866 55.4118 18.6923C55.5076 18.4792 55.6033 18.2564 55.699 18.0239C55.8139 17.7721 55.9671 17.5299 56.1585 17.2974C56.3691 17.0456 56.6372 16.7937 56.9626 16.5419C57.3073 16.2707 57.7668 15.9994 58.3411 15.7282C58.7623 15.5151 59.2697 15.2826 59.8632 15.0308C60.4759 14.7789 61.0694 14.5464 61.6438 14.3333C62.2373 14.1202 62.7734 13.9459 63.2521 13.8103C63.7307 13.6553 64.0753 13.5778 64.2859 13.5778C64.4774 13.5778 64.5731 13.6165 64.5731 13.694V13.7521C64.5731 13.7715 64.554 13.8199 64.5157 13.8974C64.4008 14.0912 64.1902 14.5174 63.8839 15.1761C63.5775 15.8154 63.1946 16.6291 62.7351 17.6171C62.2948 18.5858 61.797 19.6997 61.2417 20.959C60.7057 22.1989 60.1504 23.5162 59.576 24.9111L66.4686 24.6496C66.66 24.6496 66.7175 24.7658 66.6409 24.9983C66.5643 25.2308 66.4207 25.502 66.2101 25.812C65.9995 26.1219 65.7506 26.4416 65.4634 26.7709C65.1954 27.1003 64.9656 27.3521 64.7742 27.5265C64.7359 27.5652 64.6593 27.604 64.5444 27.6427C64.4295 27.6815 64.2859 27.7009 64.1136 27.7009H58.4273C57.738 29.3863 57.0775 31.0912 56.4457 32.8154C55.8139 34.5396 55.2491 36.1766 54.7513 37.7265C54.2535 39.2764 53.8514 40.7003 53.5451 41.9983C53.2579 43.2963 53.1143 44.3618 53.1143 45.1949C53.1143 45.3111 53.1718 45.3692 53.2866 45.3692C53.4972 45.3692 53.8131 45.253 54.2344 45.0205C54.6556 44.7687 55.1246 44.449 55.6416 44.0615C56.1777 43.6741 56.7425 43.2479 57.336 42.7829C57.9295 42.3179 58.4943 41.8627 59.0304 41.4171C59.5665 40.9521 60.0451 40.5356 60.4663 40.1675C60.9067 39.7801 61.2417 39.4895 61.4715 39.2957C61.6438 39.4701 61.8448 39.6929 62.0746 39.9641C62.3235 40.2353 62.5532 40.4872 62.7638 40.7197C62.3426 41.1459 61.8161 41.6689 61.1843 42.2889C60.5525 42.8895 59.8632 43.5094 59.1165 44.1487C58.389 44.788 57.6232 45.4273 56.819 46.0667C56.0341 46.706 55.2587 47.2775 54.4928 47.7812C53.7461 48.2849 53.0473 48.6917 52.3963 49.0017C51.7454 49.3117 51.1997 49.4667 50.7594 49.4667Z" fill="#F9F2E6"/>
<path d="M77.6115 45.3111C77.6115 45.4273 77.6689 45.4855 77.7838 45.4855C77.9561 45.4855 78.2433 45.3595 78.6453 45.1077C79.0474 44.8558 79.5069 44.5362 80.0238 44.1487C80.5408 43.7613 81.0864 43.3254 81.6608 42.841C82.2543 42.3567 82.8191 41.8821 83.3552 41.4171C83.8913 40.9521 84.37 40.5259 84.7912 40.1385C85.2315 39.751 85.5666 39.4507 85.7963 39.2376C85.9686 39.412 86.1792 39.6444 86.4281 39.935C86.6962 40.2256 86.9355 40.4872 87.1461 40.7197C86.6866 41.1459 86.1314 41.6689 85.4804 42.2889C84.8486 42.8895 84.1593 43.5191 83.4127 44.1778C82.6851 44.8365 81.9289 45.4952 81.1439 46.1538C80.3589 46.7932 79.5931 47.3647 78.8464 47.8684C78.0997 48.3721 77.3913 48.7789 76.7212 49.0889C76.0511 49.4182 75.4671 49.5829 74.9693 49.5829C74.6247 49.5829 74.2418 49.5151 73.8206 49.3795C73.4185 49.2439 73.0452 49.0501 72.7005 48.7983C72.3559 48.5658 72.0687 48.2849 71.839 47.9556C71.6092 47.6262 71.4944 47.2581 71.4944 46.8513C71.4944 46.6963 71.4848 46.5123 71.4656 46.2991C71.4656 46.0667 71.4848 45.7761 71.5231 45.4273C71.5614 45.0593 71.6379 44.6234 71.7528 44.1197C71.8677 43.5966 72.04 42.9573 72.2698 42.2017C71.6379 42.8798 70.8913 43.5869 70.0297 44.3231C69.1873 45.0593 68.297 45.7567 67.3588 46.4154C66.4207 47.0741 65.473 47.665 64.5157 48.188C63.5775 48.7305 62.7064 49.1373 61.9023 49.4085C61.8065 49.4473 61.73 49.4667 61.6725 49.4667C61.6151 49.4667 61.5576 49.4667 61.5002 49.4667C61.3088 49.4667 61.0599 49.3698 60.7535 49.1761C60.428 48.9823 60.1121 48.7208 59.8058 48.3915C59.4995 48.0815 59.241 47.7231 59.0304 47.3162C58.8006 46.9094 58.6858 46.5026 58.6858 46.0957C58.6858 45.9795 58.7432 45.592 58.8581 44.9333C58.973 44.2746 59.2506 43.4416 59.6909 42.4342C60.1121 41.4074 60.7439 40.2644 61.5864 39.0051C62.4288 37.7265 63.5775 36.4188 65.0326 35.082C65.7793 34.404 66.5834 33.7647 67.445 33.1641C68.1725 32.6604 69.0054 32.147 69.9435 31.6239C70.8817 31.1009 71.8677 30.6843 72.9016 30.3744C72.9399 30.3744 72.9686 30.3647 72.9877 30.3453C73.026 30.3259 73.0739 30.3356 73.1313 30.3744C73.3611 30.4519 73.6291 30.5778 73.9355 30.7521C74.2609 30.9071 74.5768 31.0815 74.8832 31.2752C75.2087 31.4496 75.4863 31.6336 75.716 31.8274C75.9649 32.0017 76.1277 32.147 76.2042 32.2632C76.2234 32.302 76.2234 32.3311 76.2042 32.3504L76.1468 32.4085C75.2852 32.8735 74.4715 33.3966 73.7057 33.9778C72.9399 34.5396 72.2602 35.0724 71.6667 35.5761C70.9774 36.1766 70.336 36.7675 69.7425 37.3487C68.3449 38.7436 67.378 39.9544 66.8419 40.9812C66.3058 41.9886 66.0378 42.7151 66.0378 43.1607C66.0378 43.49 66.1718 43.6547 66.4398 43.6547C66.7079 43.6547 67.0429 43.5481 67.445 43.335C67.8662 43.1026 68.3353 42.8023 68.8522 42.4342C69.3692 42.0467 69.934 41.6011 70.5466 41.0974C71.1784 40.5744 71.8294 40.0319 72.4995 39.4701C73.093 38.9858 73.6674 38.4627 74.2226 37.9009C74.7013 37.4359 75.1991 36.9031 75.716 36.3026C76.233 35.702 76.6733 35.0917 77.0371 34.4718C77.0371 34.4524 77.0467 34.433 77.0658 34.4137C77.0849 34.3943 77.1137 34.3943 77.152 34.4137C77.3626 34.5687 77.6019 34.8302 77.8699 35.1983C78.138 35.547 78.3869 35.9345 78.6166 36.3607C78.8464 36.7869 79.0378 37.2034 79.191 37.6103C79.3633 37.9977 79.4495 38.298 79.4495 38.5111C79.0091 39.4217 78.6645 40.2547 78.4156 41.0103C78.1858 41.7464 78.0039 42.3954 77.8699 42.9573C77.7551 43.5191 77.6785 44.0034 77.6402 44.4103C77.621 44.7977 77.6115 45.098 77.6115 45.3111Z" fill="#F9F2E6"/>
<path d="M91.7985 45.8342C92.1049 45.8342 92.5165 45.6986 93.0335 45.4273C93.5695 45.1561 94.1535 44.8171 94.7853 44.4103C95.4171 43.984 96.0777 43.5191 96.7669 43.0154C97.4562 42.5117 98.0975 42.0177 98.6911 41.5333C99.3037 41.049 99.8494 40.6034 100.328 40.1966C100.807 39.7897 101.161 39.4895 101.391 39.2957C101.563 39.4701 101.764 39.6929 101.994 39.9641C102.243 40.2353 102.472 40.4872 102.683 40.7197C102.262 41.1459 101.735 41.6689 101.103 42.2889C100.472 42.8895 99.7824 43.5094 99.0357 44.1487C98.3081 44.788 97.5423 45.4273 96.7382 46.0667C95.9532 46.706 95.1778 47.2775 94.412 47.7812C93.6653 48.2849 92.9664 48.6917 92.3155 49.0017C91.6645 49.3117 91.1189 49.4667 90.6785 49.4667C90.085 49.4667 89.4532 49.2536 88.7831 48.8274C88.1321 48.4011 87.5194 47.9071 86.9451 47.3453C86.3707 46.7641 85.8825 46.1829 85.4804 45.6017C85.0783 45.0205 84.8486 44.5846 84.7912 44.294C84.7529 44.1778 84.7337 44.0422 84.7337 43.8872C84.7337 43.7128 84.7337 43.5288 84.7337 43.335C84.7337 42.3664 84.8582 41.1459 85.1071 39.6735C85.3368 38.1818 85.6527 36.6125 86.0548 34.9658C86.4569 33.2997 86.9164 31.653 87.4333 30.0256C87.9694 28.3789 88.5246 26.9259 89.099 25.6667C90.2669 23.09 91.4635 20.804 92.6888 18.8085C93.9333 16.8131 95.1491 15.0792 96.3361 13.6068C97.5232 12.1151 98.6623 10.8655 99.7537 9.85812C100.845 8.85071 101.821 8.03704 102.683 7.41709C103.564 6.79715 104.301 6.35157 104.894 6.08034C105.507 5.80912 105.928 5.6735 106.158 5.6735C106.522 5.80912 106.885 6.01254 107.249 6.28376C107.632 6.53561 107.986 6.80684 108.312 7.09744C108.637 7.38803 108.925 7.67863 109.173 7.96923C109.422 8.24046 109.604 8.44387 109.719 8.57949C109.872 8.73447 109.968 8.88946 110.006 9.04444C110.064 9.18006 110.092 9.3641 110.092 9.59658C110.092 10.0615 109.978 10.7009 109.748 11.5145C109.518 12.3282 109.087 13.3647 108.455 14.6239C107.824 15.8638 106.943 17.3556 105.813 19.0991C104.703 20.8427 103.248 22.8769 101.448 25.2017C100.606 26.2866 99.7154 27.3909 98.7772 28.5145C97.9731 29.4832 97.0445 30.539 95.9915 31.6821C94.9385 32.8251 93.8567 33.9197 92.7463 34.9658C92.191 37.0969 91.7985 38.9761 91.5688 40.6034C91.3582 42.2308 91.2529 43.4997 91.2529 44.4103C91.2529 45.0108 91.3008 45.3983 91.3965 45.5726C91.4922 45.747 91.6262 45.8342 91.7985 45.8342ZM96.3936 24.5333C96.0681 25.2695 95.7617 25.9863 95.4746 26.6838C95.2065 27.3812 94.948 28.0689 94.6991 28.747C95.2927 28.0689 95.8288 27.4199 96.3074 26.8C96.8052 26.1801 97.2264 25.6473 97.571 25.2017C97.9731 24.6786 98.3369 24.1846 98.6623 23.7197C100.003 21.8211 101.161 20.0775 102.137 18.4889C103.114 16.9003 103.918 15.5054 104.55 14.3043C105.182 13.0838 105.641 12.0764 105.928 11.2821C106.235 10.4684 106.388 9.88718 106.388 9.53846C106.388 9.4416 106.378 9.37379 106.359 9.33504C106.359 9.27692 106.311 9.24786 106.215 9.24786C106.043 9.24786 105.651 9.53846 105.038 10.1197C104.425 10.6815 103.669 11.5823 102.769 12.8222C101.888 14.0621 100.893 15.6507 99.7824 17.588C98.6911 19.506 97.5615 21.8211 96.3936 24.5333Z" fill="#F9F2E6"/>
<path d="M159.747 10.9624C158.809 10.9236 157.861 10.8752 156.904 10.8171C155.947 10.759 154.922 10.7009 153.831 10.6427C152.74 10.5846 151.534 10.5362 150.213 10.4974C148.911 10.4587 147.436 10.4393 145.79 10.4393C143.684 10.4393 141.645 10.4974 139.673 10.6137C137.701 10.7105 135.748 10.9043 133.814 11.1949C131.88 11.4855 129.947 11.8923 128.013 12.4154C126.079 12.9385 124.098 13.6262 122.068 14.4786C122.891 16.8034 123.552 19.0798 124.05 21.3077C124.548 23.5356 124.93 25.657 125.199 27.6718C125.486 29.6866 125.677 31.5755 125.773 33.3385C125.869 35.1014 125.916 36.69 125.916 38.1043C125.916 39.441 125.888 40.6228 125.83 41.6496C125.773 42.657 125.706 43.4997 125.629 44.1778C125.553 44.9915 125.457 45.6889 125.342 46.2701C126.261 44.0615 127.151 41.7271 128.013 39.2667C128.894 36.7869 129.727 34.3362 130.511 31.9145C131.296 29.4735 132.024 27.1197 132.694 24.853C133.364 22.5863 133.948 20.5521 134.446 18.7504C134.963 16.9487 135.384 15.4473 135.71 14.2462C136.035 13.0256 136.246 12.2507 136.341 11.9214C136.763 12.2701 137.27 12.7157 137.864 13.2581C138.476 13.8006 139.089 14.3624 139.702 14.9436C140.314 15.5248 140.879 16.0866 141.396 16.6291C141.932 17.1521 142.344 17.588 142.631 17.9368C142.152 19.7385 141.52 21.7242 140.735 23.894C139.95 26.0638 139.079 28.3014 138.122 30.6068C137.184 32.9123 136.198 35.2273 135.164 37.5521C134.13 39.8575 133.125 42.0467 132.148 44.1197C131.172 46.1926 130.263 48.0815 129.42 49.7863C128.597 51.4912 127.917 52.8957 127.381 54C127.094 53.7094 126.74 53.3123 126.319 52.8085C125.897 52.3048 125.467 51.7915 125.026 51.2684C124.586 50.7647 124.174 50.29 123.791 49.8444C123.428 49.3989 123.159 49.0792 122.987 48.8855C123.025 48.653 123.092 48.2558 123.188 47.694C123.303 47.1128 123.408 46.396 123.504 45.5436C123.619 44.6718 123.715 43.6644 123.791 42.5214C123.868 41.3783 123.906 40.1094 123.906 38.7145C123.906 37.1259 123.839 35.4211 123.705 33.6C123.571 31.7595 123.303 29.8513 122.901 27.8752C122.518 25.8991 121.963 23.865 121.235 21.7726C120.508 19.6803 119.56 17.5687 118.392 15.4376C118.373 15.4376 118.363 15.4279 118.363 15.4085C118.344 15.3892 118.335 15.3407 118.335 15.2632C118.335 15.0695 118.402 14.808 118.536 14.4786C118.67 14.1299 118.842 13.7618 119.053 13.3744C119.282 12.9675 119.522 12.5704 119.771 12.1829C120.039 11.7761 120.288 11.4274 120.517 11.1368C120.613 11.0205 121.073 10.7493 121.896 10.3231C122.719 9.87749 123.849 9.35442 125.285 8.75385C126.74 8.15328 128.463 7.51396 130.454 6.8359C132.464 6.15783 134.685 5.53789 137.117 4.97607C139.548 4.39487 142.162 3.92023 144.957 3.55214C147.772 3.18405 150.701 3 153.745 3C153.879 3.15499 154.09 3.41652 154.377 3.78462C154.683 4.13333 155.028 4.54986 155.411 5.03419C155.794 5.49915 156.196 6.01254 156.617 6.57436C157.057 7.11681 157.478 7.65926 157.881 8.20171C158.283 8.72479 158.646 9.22849 158.972 9.71282C159.297 10.1972 159.556 10.6137 159.747 10.9624Z" fill="#F9F2E6"/>
<path d="M145.273 49.4667C144.986 49.4667 144.622 49.3601 144.182 49.147C143.741 48.9533 143.32 48.7014 142.918 48.3915C142.516 48.1009 142.171 47.7715 141.884 47.4034C141.597 47.0353 141.453 46.6769 141.453 46.3282C141.645 45.4758 141.903 44.4974 142.229 43.3932C142.554 42.2889 142.908 41.1652 143.291 40.0222C143.655 38.8792 144.048 37.7652 144.469 36.6803C144.871 35.5761 145.235 34.5977 145.56 33.7453C145.905 32.8929 146.202 32.2051 146.45 31.6821C146.699 31.159 146.862 30.8974 146.939 30.8974C147.054 30.8974 147.341 31.0234 147.8 31.2752C148.26 31.5271 148.738 31.837 149.236 32.2051C149.753 32.5538 150.213 32.9316 150.615 33.3385C151.017 33.7259 151.218 34.065 151.218 34.3556C151.218 34.4137 151.208 34.4912 151.189 34.588C151.17 34.6655 151.141 34.7721 151.103 34.9077C150.95 35.392 150.749 35.9635 150.5 36.6222C150.27 37.2809 150.021 37.9687 149.753 38.6855C149.485 39.3829 149.217 40.09 148.949 40.8068C148.681 41.5043 148.442 42.163 148.231 42.7829C148.02 43.4028 147.848 43.9453 147.714 44.4103C147.58 44.8752 147.513 45.2142 147.513 45.4273C147.513 45.5436 147.57 45.6017 147.685 45.6017C147.896 45.6017 148.212 45.4758 148.633 45.2239C149.054 44.9721 149.533 44.6427 150.069 44.2359C150.624 43.8291 151.199 43.3835 151.792 42.8991C152.386 42.4148 152.95 41.9402 153.487 41.4752C154.042 40.9909 154.54 40.555 154.98 40.1675C155.42 39.7801 155.755 39.4895 155.985 39.2957C156.157 39.4701 156.358 39.6929 156.588 39.9641C156.837 40.2353 157.067 40.4872 157.277 40.7197C156.856 41.1459 156.33 41.6689 155.698 42.2889C155.066 42.8895 154.377 43.5094 153.63 44.1487C152.903 44.788 152.137 45.4273 151.333 46.0667C150.548 46.706 149.782 47.2775 149.035 47.7812C148.288 48.2849 147.59 48.6917 146.939 49.0017C146.288 49.3117 145.732 49.4667 145.273 49.4667ZM156.646 22.0342C156.626 22.1117 156.55 22.3054 156.416 22.6154C156.301 22.906 156.157 23.2547 155.985 23.6615C155.813 24.049 155.612 24.4655 155.382 24.9111C155.171 25.3373 154.961 25.7345 154.75 26.1026C154.54 26.4707 154.339 26.7806 154.147 27.0325C153.956 27.265 153.802 27.3812 153.688 27.3812C153.343 27.3618 152.922 27.2553 152.424 27.0615C151.945 26.8678 151.476 26.6547 151.017 26.4222C150.576 26.1704 150.193 25.9282 149.868 25.6957C149.562 25.4632 149.408 25.2986 149.408 25.2017C149.408 24.7949 149.523 24.2718 149.753 23.6325C149.983 22.9738 150.251 22.3442 150.557 21.7436C150.864 21.1236 151.17 20.5909 151.476 20.1453C151.802 19.6997 152.051 19.4769 152.223 19.4769C152.568 19.4769 152.989 19.5932 153.487 19.8256C153.984 20.0387 154.463 20.2906 154.922 20.5812C155.401 20.8718 155.803 21.1624 156.129 21.453C156.473 21.7242 156.646 21.9179 156.646 22.0342Z" fill="#F9F2E6"/>
<path d="M163.452 33.8325C163.222 34.433 162.992 35.053 162.763 35.6923C162.533 36.3316 162.313 36.9806 162.102 37.6393C163.308 36.1863 164.304 35.0239 165.089 34.1521C165.893 33.2803 166.554 32.6023 167.071 32.1179C167.607 31.6336 168.047 31.2946 168.392 31.1009C168.736 30.9071 169.052 30.7618 169.339 30.665C169.512 30.665 169.799 30.7618 170.201 30.9556C170.622 31.1493 171.062 31.3915 171.522 31.6821C172.001 31.9533 172.451 32.2439 172.872 32.5538C173.293 32.8444 173.59 33.0866 173.762 33.2803C173.915 33.4353 173.934 33.6581 173.819 33.9487C173.59 34.5687 173.36 35.1983 173.13 35.8376C172.92 36.4575 172.709 37.0969 172.498 37.7556C173.781 36.2638 174.853 35.0724 175.715 34.1812C176.576 33.2707 177.275 32.5732 177.811 32.0889C178.367 31.6046 178.797 31.2849 179.104 31.1299C179.41 30.9749 179.649 30.8974 179.822 30.8974C180.071 30.8974 180.444 31.0234 180.942 31.2752C181.44 31.5271 181.937 31.837 182.435 32.2051C182.952 32.5732 183.392 32.951 183.756 33.3385C184.139 33.7259 184.331 34.065 184.331 34.3556C184.331 34.4137 184.321 34.4912 184.302 34.588C184.283 34.6655 184.254 34.7721 184.216 34.9077C184.063 35.392 183.861 35.9635 183.613 36.6222C183.383 37.2809 183.134 37.9687 182.866 38.6855C182.598 39.3829 182.33 40.09 182.062 40.8068C181.794 41.5043 181.554 42.163 181.344 42.7829C181.133 43.4028 180.961 43.9453 180.827 44.4103C180.693 44.8752 180.626 45.2142 180.626 45.4273C180.626 45.5436 180.683 45.6017 180.798 45.6017C181.009 45.6017 181.325 45.4758 181.746 45.2239C182.167 44.9721 182.646 44.6427 183.182 44.2359C183.737 43.8291 184.311 43.3835 184.905 42.8991C185.498 42.4148 186.063 41.9402 186.599 41.4752C187.155 40.9909 187.652 40.555 188.093 40.1675C188.533 39.7801 188.868 39.4895 189.098 39.2957C189.27 39.4701 189.471 39.6929 189.701 39.9641C189.95 40.2353 190.18 40.4872 190.39 40.7197C189.969 41.1459 189.442 41.6689 188.811 42.2889C188.179 42.8895 187.49 43.5094 186.743 44.1487C186.015 44.788 185.25 45.4273 184.445 46.0667C183.66 46.706 182.895 47.2775 182.148 47.7812C181.401 48.2849 180.702 48.6917 180.051 49.0017C179.4 49.3117 178.845 49.4667 178.386 49.4667C178.099 49.4667 177.735 49.3601 177.294 49.147C176.854 48.9533 176.433 48.7014 176.031 48.3915C175.629 48.1009 175.284 47.7715 174.997 47.4034C174.71 47.0353 174.566 46.6769 174.566 46.3282C174.738 45.5339 174.968 44.633 175.255 43.6256C175.543 42.6182 175.858 41.5915 176.203 40.5453C176.548 39.4798 176.902 38.4336 177.266 37.4068C177.649 36.3801 178.012 35.4308 178.357 34.559C177.974 35.0239 177.467 35.5858 176.835 36.2444C176.203 36.9031 175.485 37.7749 174.681 38.8598C173.877 39.9254 173.015 41.2524 172.096 42.841C171.177 44.4296 170.258 46.367 169.339 48.653C169.224 49.0405 168.947 49.2342 168.506 49.2342C168.277 49.2342 167.99 49.1858 167.645 49.0889C167.319 49.0114 166.965 48.8758 166.582 48.6821C166.219 48.5077 165.836 48.2849 165.434 48.0137C165.051 47.7424 164.687 47.4131 164.342 47.0256C164.342 46.89 164.409 46.4832 164.543 45.8051C164.696 45.1077 164.907 44.2262 165.175 43.1607C165.462 42.0952 165.797 40.9037 166.18 39.5863C166.563 38.2689 166.994 36.9128 167.473 35.5179C167.013 36.0217 166.439 36.6707 165.749 37.465C165.06 38.2399 164.323 39.1892 163.538 40.3128C162.753 41.4171 161.949 42.7054 161.126 44.1778C160.302 45.6501 159.527 47.3162 158.8 49.1761C158.685 49.5829 158.417 49.7863 157.995 49.7863C157.67 49.7863 157.306 49.6895 156.904 49.4957C156.483 49.3214 156.062 49.0792 155.64 48.7692C155.2 48.4786 154.769 48.1493 154.348 47.7812C153.908 47.4131 153.515 47.045 153.171 46.6769C153.171 46.5607 153.228 46.2313 153.343 45.6889C153.439 45.1464 153.582 44.4684 153.774 43.6547C153.965 42.8217 154.205 41.8821 154.492 40.8359C154.76 39.7704 155.076 38.6564 155.439 37.494C155.803 36.3316 156.205 35.1499 156.646 33.9487C157.086 32.7282 157.555 31.5561 158.053 30.4325C158.857 30.8199 159.747 31.2946 160.724 31.8564C161.719 32.4182 162.629 33.0769 163.452 33.8325Z" fill="#F9F2E6"/>
<path d="M209 40.7197C207.239 42.4632 205.573 43.9259 204.003 45.1077C202.452 46.2895 200.968 47.2387 199.552 47.9556C198.135 48.6724 196.775 49.1858 195.473 49.4957C194.191 49.8057 192.937 49.9607 191.711 49.9607C191.194 49.9607 190.62 49.767 189.988 49.3795C189.356 48.992 188.772 48.5174 188.236 47.9556C187.681 47.4131 187.222 46.8416 186.858 46.241C186.494 45.6405 186.312 45.1271 186.312 44.7009C186.312 43.1122 186.532 41.6593 186.973 40.3419C187.394 39.0051 187.959 37.804 188.667 36.7385C189.375 35.6729 190.18 34.7333 191.079 33.9197C191.998 33.106 192.946 32.4279 193.923 31.8855C194.918 31.343 195.904 30.9362 196.881 30.665C197.857 30.3937 198.757 30.2581 199.58 30.2581C200.174 30.2581 200.758 30.4325 201.332 30.7812C201.926 31.1299 202.462 31.5561 202.94 32.0598C203.419 32.5635 203.802 33.0963 204.089 33.6581C204.395 34.2006 204.549 34.6752 204.549 35.082C204.549 35.7407 204.271 36.4188 203.716 37.1162C203.18 37.7943 202.414 38.4917 201.418 39.2085C200.423 39.9254 199.226 40.6615 197.828 41.4171C196.431 42.1533 194.889 42.8991 193.205 43.6547C193.147 44.1197 193.118 44.5749 193.118 45.0205C193.118 45.6211 193.243 46.0279 193.492 46.241C193.76 46.4541 194.248 46.5607 194.957 46.5607C196.22 46.5607 197.407 46.3476 198.518 45.9214C199.647 45.4952 200.729 44.943 201.763 44.265C202.797 43.5869 203.792 42.812 204.75 41.9402C205.707 41.0684 206.655 40.1869 207.593 39.2957L209 40.7197ZM198.891 33.4547C198.508 33.4547 198.087 33.6678 197.627 34.094C197.168 34.5009 196.708 35.0433 196.249 35.7214C195.789 36.3994 195.349 37.184 194.928 38.0752C194.507 38.947 194.143 39.8575 193.836 40.8068C194.545 40.3419 195.234 39.8479 195.904 39.3248C196.593 38.8017 197.206 38.2593 197.742 37.6974C198.278 37.1162 198.709 36.5254 199.035 35.9248C199.36 35.3242 199.523 34.7236 199.523 34.1231C199.523 33.9487 199.465 33.7937 199.35 33.6581C199.255 33.5225 199.102 33.4547 198.891 33.4547Z" fill="#F9F2E6"/>
<path d="M44.4125 10.9624C43.4744 10.9236 42.5267 10.8752 41.5694 10.8171C40.6121 10.759 39.5878 10.7009 38.4964 10.6427C37.4051 10.5846 36.1989 10.5362 34.8779 10.4974C33.576 10.4587 32.1017 10.4393 30.4552 10.4393C28.3491 10.4393 26.3101 10.4974 24.3381 10.6137C22.366 10.7105 20.4132 10.9043 18.4794 11.1949C16.5457 11.4855 14.612 11.8923 12.6782 12.4154C10.7445 12.9385 8.76291 13.6262 6.73344 14.4786C7.55672 16.8034 8.21725 19.0798 8.71504 21.3077C9.21284 23.5356 9.59575 25.657 9.86379 27.6718C10.151 29.6866 10.3424 31.5755 10.4382 33.3385C10.5339 35.1014 10.5818 36.69 10.5818 38.1043C10.5818 39.441 10.553 40.6228 10.4956 41.6496C10.4382 42.657 10.3712 43.4997 10.2946 44.1778C10.218 44.9915 10.1223 45.6889 10.0074 46.2701C10.9264 44.0615 11.8167 41.7271 12.6782 39.2667C13.5589 36.7869 14.3918 34.3362 15.1768 31.9145C15.9618 29.4735 16.6893 27.1197 17.3594 24.853C18.0295 22.5863 18.6135 20.5521 19.1112 18.7504C19.6282 16.9487 20.0494 15.4473 20.3749 14.2462C20.7004 13.0256 20.911 12.2507 21.0067 11.9214C21.4279 12.2701 21.9353 12.7157 22.5288 13.2581C23.1415 13.8006 23.7541 14.3624 24.3668 14.9436C24.9795 15.5248 25.5443 16.0866 26.0612 16.6291C26.5973 17.1521 27.0089 17.588 27.2961 17.9368C26.8175 19.7385 26.1856 21.7242 25.4007 23.894C24.6157 26.0638 23.7446 28.3014 22.7873 30.6068C21.8491 32.9123 20.8631 35.2273 19.8292 37.5521C18.7953 39.8575 17.7902 42.0467 16.8137 44.1197C15.8373 46.1926 14.9279 48.0815 14.0855 49.7863C13.2622 51.4912 12.5825 52.8957 12.0464 54C11.7592 53.7094 11.405 53.3123 10.9838 52.8085C10.5626 52.3048 10.1318 51.7915 9.69148 51.2684C9.25113 50.7647 8.83949 50.29 8.45657 49.8444C8.0928 49.3989 7.82476 49.0792 7.65245 48.8855C7.69074 48.653 7.75775 48.2558 7.85348 47.694C7.96835 47.1128 8.07366 46.396 8.16939 45.5436C8.28426 44.6718 8.37999 43.6644 8.45657 42.5214C8.53316 41.3783 8.57145 40.1094 8.57145 38.7145C8.57145 37.1259 8.50444 35.4211 8.37042 33.6C8.2364 31.7595 7.96835 29.8513 7.56629 27.8752C7.18337 25.8991 6.62814 23.865 5.9006 21.7726C5.17306 19.6803 4.22534 17.5687 3.05744 15.4376C3.03829 15.4376 3.02872 15.4279 3.02872 15.4085C3.00957 15.3892 3 15.3407 3 15.2632C3 15.0695 3.06701 14.808 3.20103 14.4786C3.33505 14.1299 3.50737 13.7618 3.71797 13.3744C3.94772 12.9675 4.18704 12.5704 4.43594 12.1829C4.70398 11.7761 4.95288 11.4274 5.18263 11.1368C5.27836 11.0205 5.73786 10.7493 6.56113 10.3231C7.3844 9.87749 8.51401 9.35442 9.94995 8.75385C11.405 8.15328 13.1282 7.51396 15.1193 6.8359C17.1297 6.15783 19.3506 5.53789 21.7821 4.97607C24.2136 4.39487 26.827 3.92023 29.6223 3.55214C32.4368 3.18405 35.3661 3 38.4103 3C38.5443 3.15499 38.7549 3.41652 39.0421 3.78462C39.3484 4.13333 39.6931 4.54986 40.076 5.03419C40.4589 5.49915 40.861 6.01254 41.2822 6.57436C41.7225 7.11681 42.1437 7.65926 42.5458 8.20171C42.9479 8.72479 43.3116 9.22849 43.6371 9.71282C43.9626 10.1972 44.2211 10.6137 44.4125 10.9624Z" stroke="black" stroke-width="6" mask="url(#path-1-outside-1_26_17)"/>
<path d="M32.1209 44.9043C32.1209 45.4855 32.3315 45.7761 32.7527 45.7761C33.193 45.7761 33.777 45.4273 34.5045 44.7299C35.2321 44.0131 35.9883 43.1122 36.7733 42.0273C36.735 41.8142 36.7063 41.6302 36.6872 41.4752C36.6872 41.3009 36.6872 41.1459 36.6872 41.0103C36.6872 40.6228 36.7255 40.1675 36.802 39.6444C36.8978 39.102 37.1179 38.4917 37.4626 37.8137C37.6923 37.2906 37.9699 36.7772 38.2954 36.2735C38.5635 35.8279 38.8889 35.3533 39.2719 34.8496C39.6548 34.3265 40.076 33.8422 40.5355 33.3966L40.7078 33.2222C40.8993 33.4547 41.1481 33.7744 41.4545 34.1812C41.78 34.5687 42.0959 34.9755 42.4022 35.4017C42.7277 35.8085 43.0053 36.1863 43.235 36.535C43.4839 36.8838 43.6371 37.1259 43.6945 37.2615C43.6945 38.0946 43.5414 38.9276 43.235 39.7607C42.9479 40.5937 42.5554 41.4171 42.0576 42.2308C43.2063 42.1533 44.2689 41.8627 45.2454 41.359C46.2409 40.8359 47.2748 39.9932 48.347 38.8308C48.5193 39.0051 48.7395 39.2473 49.0075 39.5573C49.2947 39.8479 49.5245 40.0997 49.6968 40.3128C48.8927 41.1652 48.0981 41.8724 47.3131 42.4342C46.5473 42.996 45.7719 43.4416 44.9869 43.7709C44.2211 44.1003 43.4361 44.3424 42.632 44.4974C41.8278 44.633 41.0046 44.7009 40.1621 44.7009C39.5112 45.3983 38.8124 46.0376 38.0657 46.6188C37.319 47.2 36.5531 47.7037 35.7682 48.1299C35.0023 48.5561 34.2365 48.8855 33.4707 49.1179C32.7048 49.3504 31.9773 49.4667 31.288 49.4667C30.7136 49.4667 30.1201 49.2923 29.5075 48.9436C28.8948 48.5949 28.3396 48.1687 27.8418 47.665C27.344 47.1419 26.9323 46.5897 26.6069 46.0085C26.2814 45.4273 26.1186 44.914 26.1186 44.4684C26.1186 42.996 26.3197 41.5333 26.7217 40.0803C27.1047 38.6273 27.7173 37.2712 28.5597 36.012C29.383 34.7333 30.436 33.6097 31.7188 32.641C33.0207 31.6724 34.562 30.9362 36.3425 30.4325C36.4 30.3937 36.4957 30.3647 36.6297 30.3453C36.7829 30.3259 36.9073 30.3162 37.0031 30.3162C37.2711 30.3162 37.5487 30.4228 37.8359 30.6359C38.1422 30.8296 38.4199 31.0524 38.6688 31.3043C38.9368 31.5561 39.157 31.808 39.3293 32.0598C39.5016 32.2923 39.5878 32.4473 39.5878 32.5248C39.5495 32.6217 39.4059 32.7476 39.157 32.9026C38.9081 33.0382 38.573 33.2803 38.1518 33.6291C37.7306 33.9778 37.2328 34.4815 36.6584 35.1402C36.0841 35.7795 35.4523 36.6319 34.763 37.6974C33.7291 39.2667 33.0303 40.6906 32.6665 41.9692C32.3028 43.2285 32.1209 44.2068 32.1209 44.9043Z" stroke="black" stroke-width="6" mask="url(#path-1-outside-1_26_17)"/>
<path d="M50.7594 49.4667C50.4339 49.4667 50.0031 49.3117 49.467 49.0017C48.9501 48.7111 48.4427 48.343 47.9449 47.8974C47.4471 47.4712 47.0164 47.0256 46.6526 46.5607C46.2888 46.0957 46.1069 45.6986 46.1069 45.3692C46.1069 44.788 46.2697 43.8678 46.5951 42.6085C46.9015 41.3493 47.3131 39.9157 47.8301 38.3077C48.347 36.6803 48.9309 34.9464 49.5819 33.106C50.252 31.2655 50.9221 29.4638 51.5922 27.7009H47.5141C47.495 27.7009 47.4854 27.6815 47.4854 27.6427C47.4854 27.5265 47.5333 27.3618 47.629 27.1487C47.7056 26.9162 47.8109 26.6838 47.9449 26.4513C48.0598 26.1994 48.2034 25.9766 48.3757 25.7829C48.5289 25.5698 48.682 25.4342 48.8352 25.3761L52.5687 25.2017C53.1047 23.8843 53.6121 22.6735 54.0908 21.5692C54.5885 20.4456 55.0289 19.4866 55.4118 18.6923C55.5076 18.4792 55.6033 18.2564 55.699 18.0239C55.8139 17.7721 55.9671 17.5299 56.1585 17.2974C56.3691 17.0456 56.6372 16.7937 56.9626 16.5419C57.3073 16.2707 57.7668 15.9994 58.3411 15.7282C58.7623 15.5151 59.2697 15.2826 59.8632 15.0308C60.4759 14.7789 61.0694 14.5464 61.6438 14.3333C62.2373 14.1202 62.7734 13.9459 63.2521 13.8103C63.7307 13.6553 64.0753 13.5778 64.2859 13.5778C64.4774 13.5778 64.5731 13.6165 64.5731 13.694V13.7521C64.5731 13.7715 64.554 13.8199 64.5157 13.8974C64.4008 14.0912 64.1902 14.5174 63.8839 15.1761C63.5775 15.8154 63.1946 16.6291 62.7351 17.6171C62.2948 18.5858 61.797 19.6997 61.2417 20.959C60.7057 22.1989 60.1504 23.5162 59.576 24.9111L66.4686 24.6496C66.66 24.6496 66.7175 24.7658 66.6409 24.9983C66.5643 25.2308 66.4207 25.502 66.2101 25.812C65.9995 26.1219 65.7506 26.4416 65.4634 26.7709C65.1954 27.1003 64.9656 27.3521 64.7742 27.5265C64.7359 27.5652 64.6593 27.604 64.5444 27.6427C64.4295 27.6815 64.2859 27.7009 64.1136 27.7009H58.4273C57.738 29.3863 57.0775 31.0912 56.4457 32.8154C55.8139 34.5396 55.2491 36.1766 54.7513 37.7265C54.2535 39.2764 53.8514 40.7003 53.5451 41.9983C53.2579 43.2963 53.1143 44.3618 53.1143 45.1949C53.1143 45.3111 53.1718 45.3692 53.2866 45.3692C53.4972 45.3692 53.8131 45.253 54.2344 45.0205C54.6556 44.7687 55.1246 44.449 55.6416 44.0615C56.1777 43.6741 56.7425 43.2479 57.336 42.7829C57.9295 42.3179 58.4943 41.8627 59.0304 41.4171C59.5665 40.9521 60.0451 40.5356 60.4663 40.1675C60.9067 39.7801 61.2417 39.4895 61.4715 39.2957C61.6438 39.4701 61.8448 39.6929 62.0746 39.9641C62.3235 40.2353 62.5532 40.4872 62.7638 40.7197C62.3426 41.1459 61.8161 41.6689 61.1843 42.2889C60.5525 42.8895 59.8632 43.5094 59.1165 44.1487C58.389 44.788 57.6232 45.4273 56.819 46.0667C56.0341 46.706 55.2587 47.2775 54.4928 47.7812C53.7461 48.2849 53.0473 48.6917 52.3963 49.0017C51.7454 49.3117 51.1997 49.4667 50.7594 49.4667Z" stroke="black" stroke-width="6" mask="url(#path-1-outside-1_26_17)"/>
<path d="M77.6115 45.3111C77.6115 45.4273 77.6689 45.4855 77.7838 45.4855C77.9561 45.4855 78.2433 45.3595 78.6453 45.1077C79.0474 44.8558 79.5069 44.5362 80.0238 44.1487C80.5408 43.7613 81.0864 43.3254 81.6608 42.841C82.2543 42.3567 82.8191 41.8821 83.3552 41.4171C83.8913 40.9521 84.37 40.5259 84.7912 40.1385C85.2315 39.751 85.5666 39.4507 85.7963 39.2376C85.9686 39.412 86.1792 39.6444 86.4281 39.935C86.6962 40.2256 86.9355 40.4872 87.1461 40.7197C86.6866 41.1459 86.1314 41.6689 85.4804 42.2889C84.8486 42.8895 84.1593 43.5191 83.4127 44.1778C82.6851 44.8365 81.9289 45.4952 81.1439 46.1538C80.3589 46.7932 79.5931 47.3647 78.8464 47.8684C78.0997 48.3721 77.3913 48.7789 76.7212 49.0889C76.0511 49.4182 75.4671 49.5829 74.9693 49.5829C74.6247 49.5829 74.2418 49.5151 73.8206 49.3795C73.4185 49.2439 73.0452 49.0501 72.7005 48.7983C72.3559 48.5658 72.0687 48.2849 71.839 47.9556C71.6092 47.6262 71.4944 47.2581 71.4944 46.8513C71.4944 46.6963 71.4848 46.5123 71.4656 46.2991C71.4656 46.0667 71.4848 45.7761 71.5231 45.4273C71.5614 45.0593 71.6379 44.6234 71.7528 44.1197C71.8677 43.5966 72.04 42.9573 72.2698 42.2017C71.6379 42.8798 70.8913 43.5869 70.0297 44.3231C69.1873 45.0593 68.297 45.7567 67.3588 46.4154C66.4207 47.0741 65.473 47.665 64.5157 48.188C63.5775 48.7305 62.7064 49.1373 61.9023 49.4085C61.8065 49.4473 61.73 49.4667 61.6725 49.4667C61.6151 49.4667 61.5576 49.4667 61.5002 49.4667C61.3088 49.4667 61.0599 49.3698 60.7535 49.1761C60.428 48.9823 60.1121 48.7208 59.8058 48.3915C59.4995 48.0815 59.241 47.7231 59.0304 47.3162C58.8006 46.9094 58.6858 46.5026 58.6858 46.0957C58.6858 45.9795 58.7432 45.592 58.8581 44.9333C58.973 44.2746 59.2506 43.4416 59.6909 42.4342C60.1121 41.4074 60.7439 40.2644 61.5864 39.0051C62.4288 37.7265 63.5775 36.4188 65.0326 35.082C65.7793 34.404 66.5834 33.7647 67.445 33.1641C68.1725 32.6604 69.0054 32.147 69.9435 31.6239C70.8817 31.1009 71.8677 30.6843 72.9016 30.3744C72.9399 30.3744 72.9686 30.3647 72.9877 30.3453C73.026 30.3259 73.0739 30.3356 73.1313 30.3744C73.3611 30.4519 73.6291 30.5778 73.9355 30.7521C74.2609 30.9071 74.5768 31.0815 74.8832 31.2752C75.2087 31.4496 75.4863 31.6336 75.716 31.8274C75.9649 32.0017 76.1277 32.147 76.2042 32.2632C76.2234 32.302 76.2234 32.3311 76.2042 32.3504L76.1468 32.4085C75.2852 32.8735 74.4715 33.3966 73.7057 33.9778C72.9399 34.5396 72.2602 35.0724 71.6667 35.5761C70.9774 36.1766 70.336 36.7675 69.7425 37.3487C68.3449 38.7436 67.378 39.9544 66.8419 40.9812C66.3058 41.9886 66.0378 42.7151 66.0378 43.1607C66.0378 43.49 66.1718 43.6547 66.4398 43.6547C66.7079 43.6547 67.0429 43.5481 67.445 43.335C67.8662 43.1026 68.3353 42.8023 68.8522 42.4342C69.3692 42.0467 69.934 41.6011 70.5466 41.0974C71.1784 40.5744 71.8294 40.0319 72.4995 39.4701C73.093 38.9858 73.6674 38.4627 74.2226 37.9009C74.7013 37.4359 75.1991 36.9031 75.716 36.3026C76.233 35.702 76.6733 35.0917 77.0371 34.4718C77.0371 34.4524 77.0467 34.433 77.0658 34.4137C77.0849 34.3943 77.1137 34.3943 77.152 34.4137C77.3626 34.5687 77.6019 34.8302 77.8699 35.1983C78.138 35.547 78.3869 35.9345 78.6166 36.3607C78.8464 36.7869 79.0378 37.2034 79.191 37.6103C79.3633 37.9977 79.4495 38.298 79.4495 38.5111C79.0091 39.4217 78.6645 40.2547 78.4156 41.0103C78.1858 41.7464 78.0039 42.3954 77.8699 42.9573C77.7551 43.5191 77.6785 44.0034 77.6402 44.4103C77.621 44.7977 77.6115 45.098 77.6115 45.3111Z" stroke="black" stroke-width="6" mask="url(#path-1-outside-1_26_17)"/>
<path d="M91.7985 45.8342C92.1049 45.8342 92.5165 45.6986 93.0335 45.4273C93.5695 45.1561 94.1535 44.8171 94.7853 44.4103C95.4171 43.984 96.0777 43.5191 96.7669 43.0154C97.4562 42.5117 98.0975 42.0177 98.6911 41.5333C99.3037 41.049 99.8494 40.6034 100.328 40.1966C100.807 39.7897 101.161 39.4895 101.391 39.2957C101.563 39.4701 101.764 39.6929 101.994 39.9641C102.243 40.2353 102.472 40.4872 102.683 40.7197C102.262 41.1459 101.735 41.6689 101.103 42.2889C100.472 42.8895 99.7824 43.5094 99.0357 44.1487C98.3081 44.788 97.5423 45.4273 96.7382 46.0667C95.9532 46.706 95.1778 47.2775 94.412 47.7812C93.6653 48.2849 92.9664 48.6917 92.3155 49.0017C91.6645 49.3117 91.1189 49.4667 90.6785 49.4667C90.085 49.4667 89.4532 49.2536 88.7831 48.8274C88.1321 48.4011 87.5194 47.9071 86.9451 47.3453C86.3707 46.7641 85.8825 46.1829 85.4804 45.6017C85.0783 45.0205 84.8486 44.5846 84.7912 44.294C84.7529 44.1778 84.7337 44.0422 84.7337 43.8872C84.7337 43.7128 84.7337 43.5288 84.7337 43.335C84.7337 42.3664 84.8582 41.1459 85.1071 39.6735C85.3368 38.1818 85.6527 36.6125 86.0548 34.9658C86.4569 33.2997 86.9164 31.653 87.4333 30.0256C87.9694 28.3789 88.5246 26.9259 89.099 25.6667C90.2669 23.09 91.4635 20.804 92.6888 18.8085C93.9333 16.8131 95.1491 15.0792 96.3361 13.6068C97.5232 12.1151 98.6623 10.8655 99.7537 9.85812C100.845 8.85071 101.821 8.03704 102.683 7.41709C103.564 6.79715 104.301 6.35157 104.894 6.08034C105.507 5.80912 105.928 5.6735 106.158 5.6735C106.522 5.80912 106.885 6.01254 107.249 6.28376C107.632 6.53561 107.986 6.80684 108.312 7.09744C108.637 7.38803 108.925 7.67863 109.173 7.96923C109.422 8.24046 109.604 8.44387 109.719 8.57949C109.872 8.73447 109.968 8.88946 110.006 9.04444C110.064 9.18006 110.092 9.3641 110.092 9.59658C110.092 10.0615 109.978 10.7009 109.748 11.5145C109.518 12.3282 109.087 13.3647 108.455 14.6239C107.824 15.8638 106.943 17.3556 105.813 19.0991C104.703 20.8427 103.248 22.8769 101.448 25.2017C100.606 26.2866 99.7154 27.3909 98.7772 28.5145C97.9731 29.4832 97.0445 30.539 95.9915 31.6821C94.9385 32.8251 93.8567 33.9197 92.7463 34.9658C92.191 37.0969 91.7985 38.9761 91.5688 40.6034C91.3582 42.2308 91.2529 43.4997 91.2529 44.4103C91.2529 45.0108 91.3008 45.3983 91.3965 45.5726C91.4922 45.747 91.6262 45.8342 91.7985 45.8342ZM96.3936 24.5333C96.0681 25.2695 95.7617 25.9863 95.4746 26.6838C95.2065 27.3812 94.948 28.0689 94.6991 28.747C95.2927 28.0689 95.8288 27.4199 96.3074 26.8C96.8052 26.1801 97.2264 25.6473 97.571 25.2017C97.9731 24.6786 98.3369 24.1846 98.6623 23.7197C100.003 21.8211 101.161 20.0775 102.137 18.4889C103.114 16.9003 103.918 15.5054 104.55 14.3043C105.182 13.0838 105.641 12.0764 105.928 11.2821C106.235 10.4684 106.388 9.88718 106.388 9.53846C106.388 9.4416 106.378 9.37379 106.359 9.33504C106.359 9.27692 106.311 9.24786 106.215 9.24786C106.043 9.24786 105.651 9.53846 105.038 10.1197C104.425 10.6815 103.669 11.5823 102.769 12.8222C101.888 14.0621 100.893 15.6507 99.7824 17.588C98.6911 19.506 97.5615 21.8211 96.3936 24.5333Z" stroke="black" stroke-width="6" mask="url(#path-1-outside-1_26_17)"/>
<path d="M159.747 10.9624C158.809 10.9236 157.861 10.8752 156.904 10.8171C155.947 10.759 154.922 10.7009 153.831 10.6427C152.74 10.5846 151.534 10.5362 150.213 10.4974C148.911 10.4587 147.436 10.4393 145.79 10.4393C143.684 10.4393 141.645 10.4974 139.673 10.6137C137.701 10.7105 135.748 10.9043 133.814 11.1949C131.88 11.4855 129.947 11.8923 128.013 12.4154C126.079 12.9385 124.098 13.6262 122.068 14.4786C122.891 16.8034 123.552 19.0798 124.05 21.3077C124.548 23.5356 124.93 25.657 125.199 27.6718C125.486 29.6866 125.677 31.5755 125.773 33.3385C125.869 35.1014 125.916 36.69 125.916 38.1043C125.916 39.441 125.888 40.6228 125.83 41.6496C125.773 42.657 125.706 43.4997 125.629 44.1778C125.553 44.9915 125.457 45.6889 125.342 46.2701C126.261 44.0615 127.151 41.7271 128.013 39.2667C128.894 36.7869 129.727 34.3362 130.511 31.9145C131.296 29.4735 132.024 27.1197 132.694 24.853C133.364 22.5863 133.948 20.5521 134.446 18.7504C134.963 16.9487 135.384 15.4473 135.71 14.2462C136.035 13.0256 136.246 12.2507 136.341 11.9214C136.763 12.2701 137.27 12.7157 137.864 13.2581C138.476 13.8006 139.089 14.3624 139.702 14.9436C140.314 15.5248 140.879 16.0866 141.396 16.6291C141.932 17.1521 142.344 17.588 142.631 17.9368C142.152 19.7385 141.52 21.7242 140.735 23.894C139.95 26.0638 139.079 28.3014 138.122 30.6068C137.184 32.9123 136.198 35.2273 135.164 37.5521C134.13 39.8575 133.125 42.0467 132.148 44.1197C131.172 46.1926 130.263 48.0815 129.42 49.7863C128.597 51.4912 127.917 52.8957 127.381 54C127.094 53.7094 126.74 53.3123 126.319 52.8085C125.897 52.3048 125.467 51.7915 125.026 51.2684C124.586 50.7647 124.174 50.29 123.791 49.8444C123.428 49.3989 123.159 49.0792 122.987 48.8855C123.025 48.653 123.092 48.2558 123.188 47.694C123.303 47.1128 123.408 46.396 123.504 45.5436C123.619 44.6718 123.715 43.6644 123.791 42.5214C123.868 41.3783 123.906 40.1094 123.906 38.7145C123.906 37.1259 123.839 35.4211 123.705 33.6C123.571 31.7595 123.303 29.8513 122.901 27.8752C122.518 25.8991 121.963 23.865 121.235 21.7726C120.508 19.6803 119.56 17.5687 118.392 15.4376C118.373 15.4376 118.363 15.4279 118.363 15.4085C118.344 15.3892 118.335 15.3407 118.335 15.2632C118.335 15.0695 118.402 14.808 118.536 14.4786C118.67 14.1299 118.842 13.7618 119.053 13.3744C119.282 12.9675 119.522 12.5704 119.771 12.1829C120.039 11.7761 120.288 11.4274 120.517 11.1368C120.613 11.0205 121.073 10.7493 121.896 10.3231C122.719 9.87749 123.849 9.35442 125.285 8.75385C126.74 8.15328 128.463 7.51396 130.454 6.8359C132.464 6.15783 134.685 5.53789 137.117 4.97607C139.548 4.39487 142.162 3.92023 144.957 3.55214C147.772 3.18405 150.701 3 153.745 3C153.879 3.15499 154.09 3.41652 154.377 3.78462C154.683 4.13333 155.028 4.54986 155.411 5.03419C155.794 5.49915 156.196 6.01254 156.617 6.57436C157.057 7.11681 157.478 7.65926 157.881 8.20171C158.283 8.72479 158.646 9.22849 158.972 9.71282C159.297 10.1972 159.556 10.6137 159.747 10.9624Z" stroke="black" stroke-width="6" mask="url(#path-1-outside-1_26_17)"/>
<path d="M145.273 49.4667C144.986 49.4667 144.622 49.3601 144.182 49.147C143.741 48.9533 143.32 48.7014 142.918 48.3915C142.516 48.1009 142.171 47.7715 141.884 47.4034C141.597 47.0353 141.453 46.6769 141.453 46.3282C141.645 45.4758 141.903 44.4974 142.229 43.3932C142.554 42.2889 142.908 41.1652 143.291 40.0222C143.655 38.8792 144.048 37.7652 144.469 36.6803C144.871 35.5761 145.235 34.5977 145.56 33.7453C145.905 32.8929 146.202 32.2051 146.45 31.6821C146.699 31.159 146.862 30.8974 146.939 30.8974C147.054 30.8974 147.341 31.0234 147.8 31.2752C148.26 31.5271 148.738 31.837 149.236 32.2051C149.753 32.5538 150.213 32.9316 150.615 33.3385C151.017 33.7259 151.218 34.065 151.218 34.3556C151.218 34.4137 151.208 34.4912 151.189 34.588C151.17 34.6655 151.141 34.7721 151.103 34.9077C150.95 35.392 150.749 35.9635 150.5 36.6222C150.27 37.2809 150.021 37.9687 149.753 38.6855C149.485 39.3829 149.217 40.09 148.949 40.8068C148.681 41.5043 148.442 42.163 148.231 42.7829C148.02 43.4028 147.848 43.9453 147.714 44.4103C147.58 44.8752 147.513 45.2142 147.513 45.4273C147.513 45.5436 147.57 45.6017 147.685 45.6017C147.896 45.6017 148.212 45.4758 148.633 45.2239C149.054 44.9721 149.533 44.6427 150.069 44.2359C150.624 43.8291 151.199 43.3835 151.792 42.8991C152.386 42.4148 152.95 41.9402 153.487 41.4752C154.042 40.9909 154.54 40.555 154.98 40.1675C155.42 39.7801 155.755 39.4895 155.985 39.2957C156.157 39.4701 156.358 39.6929 156.588 39.9641C156.837 40.2353 157.067 40.4872 157.277 40.7197C156.856 41.1459 156.33 41.6689 155.698 42.2889C155.066 42.8895 154.377 43.5094 153.63 44.1487C152.903 44.788 152.137 45.4273 151.333 46.0667C150.548 46.706 149.782 47.2775 149.035 47.7812C148.288 48.2849 147.59 48.6917 146.939 49.0017C146.288 49.3117 145.732 49.4667 145.273 49.4667ZM156.646 22.0342C156.626 22.1117 156.55 22.3054 156.416 22.6154C156.301 22.906 156.157 23.2547 155.985 23.6615C155.813 24.049 155.612 24.4655 155.382 24.9111C155.171 25.3373 154.961 25.7345 154.75 26.1026C154.54 26.4707 154.339 26.7806 154.147 27.0325C153.956 27.265 153.802 27.3812 153.688 27.3812C153.343 27.3618 152.922 27.2553 152.424 27.0615C151.945 26.8678 151.476 26.6547 151.017 26.4222C150.576 26.1704 150.193 25.9282 149.868 25.6957C149.562 25.4632 149.408 25.2986 149.408 25.2017C149.408 24.7949 149.523 24.2718 149.753 23.6325C149.983 22.9738 150.251 22.3442 150.557 21.7436C150.864 21.1236 151.17 20.5909 151.476 20.1453C151.802 19.6997 152.051 19.4769 152.223 19.4769C152.568 19.4769 152.989 19.5932 153.487 19.8256C153.984 20.0387 154.463 20.2906 154.922 20.5812C155.401 20.8718 155.803 21.1624 156.129 21.453C156.473 21.7242 156.646 21.9179 156.646 22.0342Z" stroke="black" stroke-width="6" mask="url(#path-1-outside-1_26_17)"/>
<path d="M163.452 33.8325C163.222 34.433 162.992 35.053 162.763 35.6923C162.533 36.3316 162.313 36.9806 162.102 37.6393C163.308 36.1863 164.304 35.0239 165.089 34.1521C165.893 33.2803 166.554 32.6023 167.071 32.1179C167.607 31.6336 168.047 31.2946 168.392 31.1009C168.736 30.9071 169.052 30.7618 169.339 30.665C169.512 30.665 169.799 30.7618 170.201 30.9556C170.622 31.1493 171.062 31.3915 171.522 31.6821C172.001 31.9533 172.451 32.2439 172.872 32.5538C173.293 32.8444 173.59 33.0866 173.762 33.2803C173.915 33.4353 173.934 33.6581 173.819 33.9487C173.59 34.5687 173.36 35.1983 173.13 35.8376C172.92 36.4575 172.709 37.0969 172.498 37.7556C173.781 36.2638 174.853 35.0724 175.715 34.1812C176.576 33.2707 177.275 32.5732 177.811 32.0889C178.367 31.6046 178.797 31.2849 179.104 31.1299C179.41 30.9749 179.649 30.8974 179.822 30.8974C180.071 30.8974 180.444 31.0234 180.942 31.2752C181.44 31.5271 181.937 31.837 182.435 32.2051C182.952 32.5732 183.392 32.951 183.756 33.3385C184.139 33.7259 184.331 34.065 184.331 34.3556C184.331 34.4137 184.321 34.4912 184.302 34.588C184.283 34.6655 184.254 34.7721 184.216 34.9077C184.063 35.392 183.861 35.9635 183.613 36.6222C183.383 37.2809 183.134 37.9687 182.866 38.6855C182.598 39.3829 182.33 40.09 182.062 40.8068C181.794 41.5043 181.554 42.163 181.344 42.7829C181.133 43.4028 180.961 43.9453 180.827 44.4103C180.693 44.8752 180.626 45.2142 180.626 45.4273C180.626 45.5436 180.683 45.6017 180.798 45.6017C181.009 45.6017 181.325 45.4758 181.746 45.2239C182.167 44.9721 182.646 44.6427 183.182 44.2359C183.737 43.8291 184.311 43.3835 184.905 42.8991C185.498 42.4148 186.063 41.9402 186.599 41.4752C187.155 40.9909 187.652 40.555 188.093 40.1675C188.533 39.7801 188.868 39.4895 189.098 39.2957C189.27 39.4701 189.471 39.6929 189.701 39.9641C189.95 40.2353 190.18 40.4872 190.39 40.7197C189.969 41.1459 189.442 41.6689 188.811 42.2889C188.179 42.8895 187.49 43.5094 186.743 44.1487C186.015 44.788 185.25 45.4273 184.445 46.0667C183.66 46.706 182.895 47.2775 182.148 47.7812C181.401 48.2849 180.702 48.6917 180.051 49.0017C179.4 49.3117 178.845 49.4667 178.386 49.4667C178.099 49.4667 177.735 49.3601 177.294 49.147C176.854 48.9533 176.433 48.7014 176.031 48.3915C175.629 48.1009 175.284 47.7715 174.997 47.4034C174.71 47.0353 174.566 46.6769 174.566 46.3282C174.738 45.5339 174.968 44.633 175.255 43.6256C175.543 42.6182 175.858 41.5915 176.203 40.5453C176.548 39.4798 176.902 38.4336 177.266 37.4068C177.649 36.3801 178.012 35.4308 178.357 34.559C177.974 35.0239 177.467 35.5858 176.835 36.2444C176.203 36.9031 175.485 37.7749 174.681 38.8598C173.877 39.9254 173.015 41.2524 172.096 42.841C171.177 44.4296 170.258 46.367 169.339 48.653C169.224 49.0405 168.947 49.2342 168.506 49.2342C168.277 49.2342 167.99 49.1858 167.645 49.0889C167.319 49.0114 166.965 48.8758 166.582 48.6821C166.219 48.5077 165.836 48.2849 165.434 48.0137C165.051 47.7424 164.687 47.4131 164.342 47.0256C164.342 46.89 164.409 46.4832 164.543 45.8051C164.696 45.1077 164.907 44.2262 165.175 43.1607C165.462 42.0952 165.797 40.9037 166.18 39.5863C166.563 38.2689 166.994 36.9128 167.473 35.5179C167.013 36.0217 166.439 36.6707 165.749 37.465C165.06 38.2399 164.323 39.1892 163.538 40.3128C162.753 41.4171 161.949 42.7054 161.126 44.1778C160.302 45.6501 159.527 47.3162 158.8 49.1761C158.685 49.5829 158.417 49.7863 157.995 49.7863C157.67 49.7863 157.306 49.6895 156.904 49.4957C156.483 49.3214 156.062 49.0792 155.64 48.7692C155.2 48.4786 154.769 48.1493 154.348 47.7812C153.908 47.4131 153.515 47.045 153.171 46.6769C153.171 46.5607 153.228 46.2313 153.343 45.6889C153.439 45.1464 153.582 44.4684 153.774 43.6547C153.965 42.8217 154.205 41.8821 154.492 40.8359C154.76 39.7704 155.076 38.6564 155.439 37.494C155.803 36.3316 156.205 35.1499 156.646 33.9487C157.086 32.7282 157.555 31.5561 158.053 30.4325C158.857 30.8199 159.747 31.2946 160.724 31.8564C161.719 32.4182 162.629 33.0769 163.452 33.8325Z" stroke="black" stroke-width="6" mask="url(#path-1-outside-1_26_17)"/>
<path d="M209 40.7197C207.239 42.4632 205.573 43.9259 204.003 45.1077C202.452 46.2895 200.968 47.2387 199.552 47.9556C198.135 48.6724 196.775 49.1858 195.473 49.4957C194.191 49.8057 192.937 49.9607 191.711 49.9607C191.194 49.9607 190.62 49.767 189.988 49.3795C189.356 48.992 188.772 48.5174 188.236 47.9556C187.681 47.4131 187.222 46.8416 186.858 46.241C186.494 45.6405 186.312 45.1271 186.312 44.7009C186.312 43.1122 186.532 41.6593 186.973 40.3419C187.394 39.0051 187.959 37.804 188.667 36.7385C189.375 35.6729 190.18 34.7333 191.079 33.9197C191.998 33.106 192.946 32.4279 193.923 31.8855C194.918 31.343 195.904 30.9362 196.881 30.665C197.857 30.3937 198.757 30.2581 199.58 30.2581C200.174 30.2581 200.758 30.4325 201.332 30.7812C201.926 31.1299 202.462 31.5561 202.94 32.0598C203.419 32.5635 203.802 33.0963 204.089 33.6581C204.395 34.2006 204.549 34.6752 204.549 35.082C204.549 35.7407 204.271 36.4188 203.716 37.1162C203.18 37.7943 202.414 38.4917 201.418 39.2085C200.423 39.9254 199.226 40.6615 197.828 41.4171C196.431 42.1533 194.889 42.8991 193.205 43.6547C193.147 44.1197 193.118 44.5749 193.118 45.0205C193.118 45.6211 193.243 46.0279 193.492 46.241C193.76 46.4541 194.248 46.5607 194.957 46.5607C196.22 46.5607 197.407 46.3476 198.518 45.9214C199.647 45.4952 200.729 44.943 201.763 44.265C202.797 43.5869 203.792 42.812 204.75 41.9402C205.707 41.0684 206.655 40.1869 207.593 39.2957L209 40.7197ZM198.891 33.4547C198.508 33.4547 198.087 33.6678 197.627 34.094C197.168 34.5009 196.708 35.0433 196.249 35.7214C195.789 36.3994 195.349 37.184 194.928 38.0752C194.507 38.947 194.143 39.8575 193.836 40.8068C194.545 40.3419 195.234 39.8479 195.904 39.3248C196.593 38.8017 197.206 38.2593 197.742 37.6974C198.278 37.1162 198.709 36.5254 199.035 35.9248C199.36 35.3242 199.523 34.7236 199.523 34.1231C199.523 33.9487 199.465 33.7937 199.35 33.6581C199.255 33.5225 199.102 33.4547 198.891 33.4547Z" stroke="black" stroke-width="6" mask="url(#path-1-outside-1_26_17)"/>
</svg>
