<svg width="230" height="60" viewBox="0 0 230 60" fill="none" xmlns="http://www.w3.org/2000/svg">
<mask id="path-1-outside-1_26_18" maskUnits="userSpaceOnUse" x="0" y="0" width="230" height="61" fill="black">
<rect fill="white" width="230" height="61"/>
<path d="M49.5554 15.2968C49.5554 16.666 49.3055 18.0636 48.8056 19.4897C48.3249 20.8969 47.6615 22.2945 46.8155 23.6826C45.9695 25.0517 44.9792 26.3733 43.8448 27.6473C42.7103 28.9214 41.5086 30.1003 40.2395 31.1842C38.9705 32.2681 37.6534 33.2379 36.2882 34.0936C34.923 34.9302 33.5963 35.5958 32.3081 36.0902C32.0966 35.7859 31.8274 35.4246 31.5005 35.0063C31.1928 34.569 30.8564 34.1221 30.491 33.6657C30.1257 33.1903 29.7508 32.7245 29.3662 32.2681C29.0009 31.7927 28.6452 31.3554 28.2991 30.956C31.0486 29.8912 33.5098 28.6266 35.6825 27.1625C37.8745 25.6983 39.73 24.1675 41.249 22.5702C42.7872 20.9539 43.9601 19.3281 44.7677 17.6928C45.5945 16.0384 46.0079 14.4982 46.0079 13.072C46.0079 12.8819 45.9791 12.6822 45.9214 12.4731C45.8637 12.2639 45.7676 12.0832 45.633 11.9311C45.4984 11.779 45.3157 11.6744 45.085 11.6174C44.8735 11.5413 44.6139 11.5413 44.3062 11.6174C43.4025 11.8075 42.4027 12.1593 41.3067 12.6727C40.2299 13.1861 39.0859 13.8327 37.8745 14.6123C36.6824 15.3729 35.4326 16.2571 34.1251 17.2649C32.8368 18.2728 31.5293 19.3566 30.2026 20.5166C29.4912 22.7224 28.674 25.0613 27.7511 27.5333C26.8281 29.9862 25.8283 32.4392 24.7515 34.8922C23.6748 37.3262 22.5403 39.6936 21.3482 41.9945C20.1753 44.2953 18.9735 46.406 17.743 48.3266C16.5316 50.2281 15.3106 51.873 14.0801 53.2611C12.8687 54.6682 11.6958 55.6761 10.5614 56.2845C10.2729 56.4367 9.91722 56.5793 9.49421 56.7124C9.09042 56.8455 8.58088 56.9406 7.96559 56.9976C7.73486 57.0166 7.46567 56.9216 7.15802 56.7124C6.83115 56.5032 6.50428 56.237 6.1774 55.9137C5.85053 55.5905 5.52366 55.2292 5.19678 54.8299C4.86991 54.4305 4.57188 54.0502 4.30269 53.6889C4.01427 53.3276 3.78354 53.0044 3.61048 52.7192C3.41821 52.4339 3.29322 52.2438 3.23554 52.1487C3.08172 51.8635 3.00481 51.5212 3.00481 51.1219C2.98558 50.7416 3.02403 50.3612 3.12017 49.9809C3.50473 48.7069 4.04311 47.3093 4.73531 45.788C5.42752 44.2668 6.2447 42.679 7.18687 41.0247C8.1098 39.3513 9.13849 37.6399 10.2729 35.8905C11.4266 34.1221 12.6572 32.3727 13.9647 30.6423C15.2914 28.8929 16.6758 27.172 18.1179 25.4796C19.5792 23.7872 21.079 22.1709 22.6172 20.6307C23.5978 17.6072 24.4054 14.7454 25.0399 12.0452C25.6744 9.34502 26.0494 6.99662 26.1648 5C26.9339 5.30425 27.6645 5.69406 28.3567 6.16945C29.0489 6.64483 29.6738 7.13923 30.2315 7.65265C30.7891 8.16606 31.2794 8.67948 31.7024 9.1929C32.1254 9.70631 32.4619 10.1627 32.7118 10.562C32.6734 10.8853 32.6253 11.218 32.5676 11.5603C32.51 11.8836 32.433 12.2354 32.3369 12.6157C34.2789 11.3797 36.1825 10.4194 38.0476 9.73484C39.9319 9.03127 41.7586 8.67948 43.5275 8.67948C43.8928 8.67948 44.287 8.79357 44.71 9.02176C45.1523 9.24994 45.5945 9.55419 46.0367 9.9345C46.479 10.2958 46.902 10.7046 47.3058 11.161C47.7288 11.6174 48.1037 12.0832 48.4306 12.5586C48.7575 13.015 49.0171 13.4523 49.2093 13.8707C49.4209 14.27 49.5362 14.6028 49.5554 14.869V15.2968ZM7.79254 51.1504C8.23478 51.1504 8.83085 50.6655 9.58073 49.6957C10.3306 48.7259 11.167 47.4044 12.09 45.731C13.0321 44.0576 14.0224 42.1086 15.0607 39.8838C16.099 37.659 17.1277 35.301 18.1467 32.81C16.6277 34.5975 15.2145 36.3659 13.907 38.1153C12.6187 39.8647 11.4939 41.5286 10.5325 43.1069C9.59035 44.6661 8.85007 46.1113 8.31169 47.4424C7.77332 48.7544 7.50413 49.8764 7.50413 50.8081C7.50413 51.0363 7.60026 51.1504 7.79254 51.1504Z"/>
<path d="M60.5442 43.9055C58.7752 45.6169 57.1024 47.0526 55.5257 48.2125C53.9682 49.3724 52.4781 50.3042 51.0552 51.0078C49.6324 51.7113 48.2672 52.2152 46.9597 52.5195C45.6714 52.8237 44.412 52.9759 43.1814 52.9759C42.6623 52.9759 42.0854 52.7857 41.4509 52.4054C40.8164 52.0251 40.2299 51.5592 39.6916 51.0078C39.1339 50.4753 38.6725 49.9144 38.3071 49.3249C37.9418 48.7354 37.7592 48.2315 37.7592 47.8132C37.7592 46.2539 37.9803 44.8278 38.4225 43.5347C38.8455 42.2227 39.4128 41.0437 40.1242 39.9979C40.8356 38.952 41.6432 38.0298 42.5469 37.2311C43.4698 36.4325 44.4216 35.7669 45.4022 35.2345C46.4021 34.7021 47.3923 34.3027 48.3729 34.0365C49.3536 33.7703 50.2573 33.6372 51.0841 33.6372C51.6801 33.6372 52.2666 33.8083 52.8434 34.1506C53.4395 34.4929 53.9778 34.9112 54.4585 35.4056C54.9392 35.9 55.3238 36.423 55.6122 36.9744C55.9199 37.5068 56.0737 37.9727 56.0737 38.372C56.0737 39.0186 55.7949 39.6841 55.2373 40.3687C54.6989 41.0342 53.9298 41.7187 52.9299 42.4223C51.9301 43.1259 50.7283 43.8485 49.3247 44.5901C47.9211 45.3127 46.3732 46.0447 44.6812 46.7863C44.6235 47.2427 44.5947 47.6896 44.5947 48.1269C44.5947 48.7164 44.7196 49.1157 44.9696 49.3249C45.2388 49.5341 45.7291 49.6387 46.4405 49.6387C47.7096 49.6387 48.9017 49.4295 50.0169 49.0112C51.1514 48.5928 52.2377 48.0509 53.276 47.3853C54.3143 46.7198 55.3142 45.9592 56.2756 45.1035C57.237 44.2478 58.1887 43.3826 59.1309 42.5079L60.5442 43.9055ZM50.3919 36.7747C50.0073 36.7747 49.5843 36.9839 49.1228 37.4022C48.6614 37.8016 48.1999 38.334 47.7384 38.9995C47.2769 39.6651 46.8347 40.4352 46.4117 41.3099C45.9887 42.1656 45.6233 43.0593 45.3157 43.9911C46.0271 43.5347 46.7193 43.0498 47.3923 42.5364C48.0845 42.023 48.6998 41.4906 49.2382 40.9391C49.7766 40.3687 50.2092 39.7887 50.5361 39.1992C50.8629 38.6097 51.0264 38.0202 51.0264 37.4308C51.0264 37.2596 50.9687 37.1075 50.8533 36.9744C50.7572 36.8413 50.6034 36.7747 50.3919 36.7747Z"/>
<path d="M72.2251 39.1136C71.9751 39.8552 71.6579 40.7014 71.2733 41.6522C70.908 42.603 70.5523 43.5347 70.2062 44.4475C69.8601 45.3602 69.562 46.1874 69.3121 46.929C69.0813 47.6706 68.966 48.203 68.966 48.5263C68.966 48.6404 69.0236 48.6974 69.139 48.6974C69.3505 48.6974 69.6678 48.5738 70.0908 48.3266C70.5138 48.0794 70.9945 47.7561 71.5329 47.3568C72.0905 46.9575 72.6673 46.5201 73.2634 46.0447C73.8595 45.5694 74.4267 45.1035 74.9651 44.6471C75.5227 44.1717 76.0226 43.7439 76.4648 43.3636C76.9071 42.9833 77.2436 42.698 77.4743 42.5079C77.6473 42.679 77.8492 42.8977 78.08 43.1639C78.3299 43.4301 78.5607 43.6773 78.7722 43.9055C78.3492 44.3239 77.8204 44.8373 77.1859 45.4458C76.5514 46.0352 75.8591 46.6437 75.1093 47.2712C74.3786 47.8988 73.6095 48.5263 72.8019 49.1538C72.0136 49.7813 71.2348 50.3422 70.4657 50.8366C69.7158 51.331 69.014 51.7304 68.3603 52.0346C67.7065 52.3388 67.1585 52.491 66.7163 52.491C66.4279 52.491 66.0626 52.3864 65.6203 52.1772C65.1781 51.9871 64.7551 51.7399 64.3513 51.4356C63.9475 51.1504 63.6014 50.8271 63.313 50.4658C63.0246 50.1045 62.8803 49.7528 62.8803 49.4105C63.1688 48.1364 63.4572 47.024 63.7456 46.0733C64.034 45.1225 64.3032 44.3143 64.5532 43.6488C64.8031 42.9643 65.0243 42.4128 65.2165 41.9945C65.4088 41.5761 65.553 41.2624 65.6492 41.0532C65.4184 40.9581 65.1973 40.8535 64.9858 40.7395C64.7743 40.6254 64.5628 40.5113 64.3513 40.3972C64.0436 40.7204 63.6975 41.0627 63.313 41.424C62.9476 41.7853 62.5727 42.1466 62.1881 42.5079C61.8036 42.8692 61.419 43.221 61.0345 43.5632C60.6499 43.9055 60.3038 44.2193 59.9962 44.5045L58.6118 43.1069C59.1117 42.6315 59.7174 42.061 60.4288 41.3955C61.121 40.7109 61.8036 40.0264 62.4766 39.3418C61.9959 39.0566 61.5632 38.7904 61.1787 38.5432C60.7941 38.277 60.4673 38.0393 60.1981 37.8301C59.8712 37.6019 59.5828 37.3927 59.3328 37.2026C59.2174 37.1455 59.1598 37.0219 59.1598 36.8318C59.1598 36.6226 59.2463 36.3279 59.4193 35.9476C59.5732 35.5482 59.775 35.1299 60.025 34.6926C60.275 34.2362 60.5442 33.7798 60.8326 33.3234C61.121 32.8481 61.3998 32.4202 61.669 32.0399C61.9382 31.6596 62.1689 31.3554 62.3612 31.1272C62.5727 30.88 62.7073 30.7564 62.765 30.7564C62.8034 30.7564 62.9284 30.8039 63.1399 30.899C63.3707 30.9941 63.611 31.1081 63.861 31.2413C64.1109 31.3554 64.3417 31.4885 64.5532 31.6406C64.7647 31.7927 64.8993 31.9258 64.957 32.0399C64.9762 32.135 64.9954 32.3346 65.0146 32.6389C65.0339 32.9431 65.0531 33.3139 65.0723 33.7513C65.8222 34.1316 66.5913 34.569 67.3797 35.0634C68.168 35.5387 68.8891 35.9951 69.5428 36.4325C70.3119 36.9269 71.0426 37.4308 71.7348 37.9442C71.9847 38.0963 72.1386 38.2865 72.1962 38.5146C72.2732 38.7428 72.2828 38.9425 72.2251 39.1136Z"/>
<path d="M134.004 15.2968C134.004 16.666 133.754 18.0636 133.254 19.4897C132.774 20.8969 132.11 22.2945 131.264 23.6826C130.418 25.0517 129.428 26.3733 128.294 27.6473C127.159 28.9214 125.957 30.1003 124.688 31.1842C123.419 32.2681 122.102 33.2379 120.737 34.0936C119.372 34.9302 118.045 35.5958 116.757 36.0902C116.545 35.7859 116.276 35.4246 115.949 35.0063C115.642 34.569 115.305 34.1221 114.94 33.6657C114.574 33.1903 114.199 32.7245 113.815 32.2681C113.45 31.7927 113.094 31.3554 112.748 30.956C115.497 29.8912 117.959 28.6266 120.131 27.1625C122.323 25.6983 124.179 24.1675 125.698 22.5702C127.236 20.9539 128.409 19.3281 129.216 17.6928C130.043 16.0384 130.457 14.4982 130.457 13.072C130.457 12.8819 130.428 12.6822 130.37 12.4731C130.312 12.2639 130.216 12.0832 130.082 11.9311C129.947 11.779 129.764 11.6744 129.534 11.6174C129.322 11.5413 129.063 11.5413 128.755 11.6174C127.851 11.8075 126.851 12.1593 125.755 12.6727C124.679 13.1861 123.535 13.8327 122.323 14.6123C121.131 15.3729 119.881 16.2571 118.574 17.2649C117.286 18.2728 115.978 19.3566 114.651 20.5166C113.94 22.7224 113.123 25.0613 112.2 27.5333C111.277 29.9862 110.277 32.4392 109.2 34.8922C108.123 37.3262 106.989 39.6936 105.797 41.9945C104.624 44.2953 103.422 46.406 102.192 48.3266C100.98 50.2281 99.7594 51.873 98.5288 53.2611C97.3174 54.6682 96.1445 55.6761 95.0101 56.2845C94.7217 56.4367 94.366 56.5793 93.9429 56.7124C93.5392 56.8455 93.0296 56.9406 92.4143 56.9976C92.1836 57.0166 91.9144 56.9216 91.6068 56.7124C91.2799 56.5032 90.953 56.237 90.6261 55.9137C90.2993 55.5905 89.9724 55.2292 89.6455 54.8299C89.3186 54.4305 89.0206 54.0502 88.7514 53.6889C88.463 53.3276 88.2323 53.0044 88.0592 52.7192C87.8669 52.4339 87.742 52.2438 87.6843 52.1487C87.5305 51.8635 87.4535 51.5212 87.4535 51.1219C87.4343 50.7416 87.4728 50.3612 87.5689 49.9809C87.9535 48.7069 88.4919 47.3093 89.1841 45.788C89.8763 44.2668 90.6934 42.679 91.6356 41.0247C92.5585 39.3513 93.5872 37.6399 94.7217 35.8905C95.8753 34.1221 97.1059 32.3727 98.4134 30.6423C99.7401 28.8929 101.125 27.172 102.567 25.4796C104.028 23.7872 105.528 22.1709 107.066 20.6307C108.047 17.6072 108.854 14.7454 109.489 12.0452C110.123 9.34502 110.498 6.99662 110.613 5C111.383 5.30425 112.113 5.69406 112.805 6.16945C113.498 6.64483 114.123 7.13923 114.68 7.65265C115.238 8.16606 115.728 8.67948 116.151 9.1929C116.574 9.70631 116.911 10.1627 117.161 10.562C117.122 10.8853 117.074 11.218 117.016 11.5603C116.959 11.8836 116.882 12.2354 116.786 12.6157C118.728 11.3797 120.631 10.4194 122.496 9.73484C124.381 9.03127 126.207 8.67948 127.976 8.67948C128.342 8.67948 128.736 8.79357 129.159 9.02176C129.601 9.24994 130.043 9.55419 130.485 9.9345C130.928 10.2958 131.351 10.7046 131.755 11.161C132.178 11.6174 132.552 12.0832 132.879 12.5586C133.206 13.015 133.466 13.4523 133.658 13.8707C133.87 14.27 133.985 14.6028 134.004 14.869V15.2968ZM92.2413 51.1504C92.6835 51.1504 93.2796 50.6655 94.0295 49.6957C94.7794 48.7259 95.6158 47.4044 96.5387 45.731C97.4809 44.0576 98.4711 42.1086 99.5094 39.8838C100.548 37.659 101.576 35.301 102.595 32.81C101.076 34.5975 99.6632 36.3659 98.3557 38.1153C97.0675 39.8647 95.9426 41.5286 94.9813 43.1069C94.0391 44.6661 93.2988 46.1113 92.7604 47.4424C92.2221 48.7544 91.9529 49.8764 91.9529 50.8081C91.9529 51.0363 92.049 51.1504 92.2413 51.1504Z"/>
<path d="M144.993 43.9055C143.224 45.6169 141.551 47.0526 139.974 48.2125C138.417 49.3724 136.927 50.3042 135.504 51.0078C134.081 51.7113 132.716 52.2152 131.408 52.5195C130.12 52.8237 128.861 52.9759 127.63 52.9759C127.111 52.9759 126.534 52.7857 125.9 52.4054C125.265 52.0251 124.679 51.5592 124.14 51.0078C123.583 50.4753 123.121 49.9144 122.756 49.3249C122.391 48.7354 122.208 48.2315 122.208 47.8132C122.208 46.2539 122.429 44.8278 122.871 43.5347C123.294 42.2227 123.861 41.0437 124.573 39.9979C125.284 38.952 126.092 38.0298 126.996 37.2311C127.919 36.4325 128.87 35.7669 129.851 35.2345C130.851 34.7021 131.841 34.3027 132.822 34.0365C133.802 33.7703 134.706 33.6372 135.533 33.6372C136.129 33.6372 136.715 33.8083 137.292 34.1506C137.888 34.4929 138.427 34.9112 138.907 35.4056C139.388 35.9 139.773 36.423 140.061 36.9744C140.369 37.5068 140.522 37.9727 140.522 38.372C140.522 39.0186 140.244 39.6841 139.686 40.3687C139.148 41.0342 138.379 41.7187 137.379 42.4223C136.379 43.1259 135.177 43.8485 133.773 44.5901C132.37 45.3127 130.822 46.0447 129.13 46.7863C129.072 47.2427 129.043 47.6896 129.043 48.1269C129.043 48.7164 129.168 49.1157 129.418 49.3249C129.688 49.5341 130.178 49.6387 130.889 49.6387C132.158 49.6387 133.35 49.4295 134.466 49.0112C135.6 48.5928 136.686 48.0509 137.725 47.3853C138.763 46.7198 139.763 45.9592 140.724 45.1035C141.686 44.2478 142.637 43.3826 143.58 42.5079L144.993 43.9055ZM134.841 36.7747C134.456 36.7747 134.033 36.9839 133.572 37.4022C133.11 37.8016 132.649 38.334 132.187 38.9995C131.726 39.6651 131.283 40.4352 130.86 41.3099C130.437 42.1656 130.072 43.0593 129.764 43.9911C130.476 43.5347 131.168 43.0498 131.841 42.5364C132.533 42.023 133.149 41.4906 133.687 40.9391C134.225 40.3687 134.658 39.7887 134.985 39.1992C135.312 38.6097 135.475 38.0202 135.475 37.4308C135.475 37.2596 135.417 37.1075 135.302 36.9744C135.206 36.8413 135.052 36.7747 134.841 36.7747Z"/>
<path d="M156.674 39.1136C156.424 39.8552 156.107 40.7014 155.722 41.6522C155.357 42.603 155.001 43.5347 154.655 44.4475C154.309 45.3602 154.011 46.1874 153.761 46.929C153.53 47.6706 153.415 48.203 153.415 48.5263C153.415 48.6404 153.472 48.6974 153.588 48.6974C153.799 48.6974 154.117 48.5738 154.54 48.3266C154.963 48.0794 155.443 47.7561 155.982 47.3568C156.539 46.9575 157.116 46.5201 157.712 46.0447C158.308 45.5694 158.875 45.1035 159.414 44.6471C159.971 44.1717 160.471 43.7439 160.914 43.3636C161.356 42.9833 161.692 42.698 161.923 42.5079C162.096 42.679 162.298 42.8977 162.529 43.1639C162.779 43.4301 163.009 43.6773 163.221 43.9055C162.798 44.3239 162.269 44.8373 161.635 45.4458C161 46.0352 160.308 46.6437 159.558 47.2712C158.827 47.8988 158.058 48.5263 157.251 49.1538C156.462 49.7813 155.684 50.3422 154.914 50.8366C154.165 51.331 153.463 51.7304 152.809 52.0346C152.155 52.3388 151.607 52.491 151.165 52.491C150.877 52.491 150.511 52.3864 150.069 52.1772C149.627 51.9871 149.204 51.7399 148.8 51.4356C148.396 51.1504 148.05 50.8271 147.762 50.4658C147.473 50.1045 147.329 49.7528 147.329 49.4105C147.618 48.1364 147.906 47.024 148.194 46.0733C148.483 45.1225 148.752 44.3143 149.002 43.6488C149.252 42.9643 149.473 42.4128 149.665 41.9945C149.858 41.5761 150.002 41.2624 150.098 41.0532C149.867 40.9581 149.646 40.8535 149.435 40.7395C149.223 40.6254 149.012 40.5113 148.8 40.3972C148.492 40.7204 148.146 41.0627 147.762 41.424C147.396 41.7853 147.021 42.1466 146.637 42.5079C146.252 42.8692 145.868 43.221 145.483 43.5632C145.099 43.9055 144.753 44.2193 144.445 44.5045L143.061 43.1069C143.56 42.6315 144.166 42.061 144.878 41.3955C145.57 40.7109 146.252 40.0264 146.925 39.3418C146.445 39.0566 146.012 38.7904 145.627 38.5432C145.243 38.277 144.916 38.0393 144.647 37.8301C144.32 37.6019 144.032 37.3927 143.782 37.2026C143.666 37.1455 143.609 37.0219 143.609 36.8318C143.609 36.6226 143.695 36.3279 143.868 35.9476C144.022 35.5482 144.224 35.1299 144.474 34.6926C144.724 34.2362 144.993 33.7798 145.281 33.3234C145.57 32.8481 145.849 32.4202 146.118 32.0399C146.387 31.6596 146.618 31.3554 146.81 31.1272C147.021 30.88 147.156 30.7564 147.214 30.7564C147.252 30.7564 147.377 30.8039 147.589 30.899C147.819 30.9941 148.06 31.1081 148.31 31.2413C148.56 31.3554 148.79 31.4885 149.002 31.6406C149.213 31.7927 149.348 31.9258 149.406 32.0399C149.425 32.135 149.444 32.3346 149.463 32.6389C149.483 32.9431 149.502 33.3139 149.521 33.7513C150.271 34.1316 151.04 34.569 151.828 35.0634C152.617 35.5387 153.338 35.9951 153.992 36.4325C154.761 36.9269 155.491 37.4308 156.184 37.9442C156.433 38.0963 156.587 38.2865 156.645 38.5146C156.722 38.7428 156.732 38.9425 156.674 39.1136Z"/>
<path d="M161.346 43.0498C161.788 42.6315 162.298 42.1561 162.875 41.6237C163.432 41.0912 163.99 40.5113 164.548 39.8838C165.124 39.2562 165.653 38.5812 166.134 37.8586C166.634 37.136 167.028 36.3564 167.316 35.5197C167.393 35.0824 167.509 34.626 167.663 34.1506C167.836 33.6562 168.018 33.2094 168.211 32.81C168.422 32.4107 168.624 32.0779 168.816 31.8117C169.008 31.5455 169.182 31.4124 169.335 31.4124C169.566 31.5455 169.912 31.8022 170.374 32.1825C170.835 32.5438 171.297 32.9336 171.758 33.352C172.22 33.7703 172.623 34.1601 172.969 34.5214C173.335 34.8637 173.517 35.0729 173.517 35.1489C173.287 36.0236 173.171 36.8128 173.171 37.5163C173.191 38.2199 173.248 38.914 173.344 39.5985C173.46 40.2831 173.575 41.0152 173.69 41.7948C173.825 42.5554 173.892 43.4396 173.892 44.4475C173.892 45.0559 173.787 45.7595 173.575 46.5582C173.383 47.3378 173.037 48.0414 172.537 48.6689C173.517 48.0984 174.488 47.4614 175.45 46.7578C176.411 46.0352 177.267 45.3602 178.017 44.7327C178.901 43.9911 179.747 43.2495 180.555 42.5079L181.853 43.9055C181.218 44.495 180.526 45.1225 179.776 45.788C179.045 46.4536 178.276 47.1096 177.469 47.7561C176.68 48.4027 175.873 49.0207 175.046 49.6101C174.219 50.1996 173.402 50.7225 172.594 51.1789C171.787 51.6353 171.008 51.9966 170.258 52.2628C169.508 52.529 168.807 52.6621 168.153 52.6621C167.595 52.6621 166.98 52.529 166.307 52.2628C165.634 51.9966 164.999 51.6733 164.403 51.293C163.807 50.9127 163.288 50.5134 162.846 50.095C162.404 49.6767 162.144 49.3249 162.067 49.0397C162.067 49.0016 162.106 48.9256 162.183 48.8115C162.26 48.6784 162.356 48.5453 162.471 48.4122C162.567 48.2791 162.673 48.165 162.788 48.0699C162.884 47.9558 162.961 47.8988 163.019 47.8988C163.134 47.8988 163.365 47.9843 163.711 48.1555C164.057 48.3266 164.634 48.4122 165.442 48.4122C165.884 48.4122 166.259 48.2981 166.567 48.0699C166.893 47.8417 167.163 47.5375 167.374 47.1572C167.586 46.7768 167.739 46.3395 167.836 45.8451C167.932 45.3507 167.98 44.8278 167.98 44.2763C167.98 43.4777 167.941 42.7075 167.864 41.9659C167.788 41.2053 167.701 40.4732 167.605 39.7697C167.278 40.15 166.903 40.5493 166.48 40.9676C166.057 41.386 165.624 41.8043 165.182 42.2227C164.759 42.622 164.327 43.0213 163.884 43.4206C163.461 43.8009 163.077 44.1432 162.731 44.4475L161.346 43.0498Z"/>
<path d="M184.016 48.0128C184.016 48.5833 184.227 48.8685 184.65 48.8685C185.093 48.8685 185.679 48.5263 186.41 47.8417C187.14 47.1381 187.9 46.2539 188.688 45.1891C188.65 44.9799 188.621 44.7992 188.602 44.6471C188.602 44.476 188.602 44.3239 188.602 44.1907C188.602 43.8104 188.64 43.3636 188.717 42.8502C188.813 42.3177 189.034 41.7187 189.38 41.0532C189.611 40.5398 189.89 40.0359 190.217 39.5415C190.486 39.1041 190.813 38.6382 191.197 38.1438C191.582 37.6304 192.005 37.155 192.466 36.7177L192.64 36.5466C192.832 36.7747 193.082 37.0885 193.389 37.4878C193.716 37.8681 194.034 38.2674 194.341 38.6858C194.668 39.0851 194.947 39.4559 195.178 39.7982C195.428 40.1405 195.581 40.3782 195.639 40.5113C195.639 41.3289 195.485 42.1466 195.178 42.9643C194.889 43.7819 194.495 44.5901 193.995 45.3887C195.149 45.3127 196.216 45.0274 197.197 44.533C198.196 44.0196 199.235 43.1924 200.311 42.0515C200.484 42.2227 200.706 42.4603 200.975 42.7646C201.263 43.0498 201.494 43.297 201.667 43.5062C200.859 44.3429 200.061 45.0369 199.273 45.5884C198.504 46.1398 197.725 46.5772 196.937 46.9004C196.168 47.2237 195.38 47.4614 194.572 47.6135C193.764 47.7466 192.938 47.8132 192.092 47.8132C191.438 48.4977 190.736 49.1252 189.986 49.6957C189.236 50.2662 188.467 50.7606 187.679 51.1789C186.91 51.5972 186.141 51.9205 185.371 52.1487C184.602 52.3769 183.872 52.491 183.179 52.491C182.603 52.491 182.007 52.3198 181.391 51.9776C180.776 51.6353 180.218 51.2169 179.718 50.7225C179.218 50.2091 178.805 49.6672 178.478 49.0967C178.151 48.5263 177.988 48.0224 177.988 47.585C177.988 46.1398 178.19 44.7042 178.594 43.278C178.978 41.8519 179.593 40.5208 180.439 39.2848C181.266 38.0298 182.324 36.9269 183.612 35.9761C184.92 35.0253 186.467 34.3027 188.256 33.8083C188.313 33.7703 188.409 33.7418 188.544 33.7228C188.698 33.7038 188.823 33.6942 188.919 33.6942C189.188 33.6942 189.467 33.7988 189.755 34.008C190.063 34.1982 190.342 34.4168 190.592 34.664C190.861 34.9112 191.082 35.1584 191.255 35.4056C191.428 35.6338 191.515 35.7859 191.515 35.862C191.476 35.9571 191.332 36.0807 191.082 36.2328C190.832 36.3659 190.496 36.6036 190.073 36.9459C189.65 37.2882 189.15 37.7826 188.573 38.4291C187.996 39.0566 187.361 39.8933 186.669 40.9391C185.631 42.4794 184.929 43.877 184.564 45.132C184.199 46.368 184.016 47.3283 184.016 48.0128Z"/>
<path d="M208.07 37.1455C207.839 37.754 207.608 38.372 207.378 38.9995C207.147 39.627 206.916 40.2736 206.685 40.9391C207.897 39.57 208.935 38.4576 209.8 37.6019C210.685 36.7272 211.425 36.0426 212.021 35.5482C212.636 35.0538 213.127 34.7211 213.492 34.5499C213.877 34.3598 214.175 34.2647 214.386 34.2647C214.636 34.2647 215.011 34.3883 215.511 34.6355C216.011 34.8827 216.511 35.187 217.011 35.5482C217.53 35.9095 217.972 36.2803 218.338 36.6606C218.722 37.041 218.914 37.3737 218.914 37.659C218.914 37.716 218.905 37.7921 218.886 37.8871C218.866 37.9632 218.837 38.0678 218.799 38.2009C218.645 38.6763 218.443 39.2372 218.193 39.8838C217.963 40.5303 217.713 41.2053 217.443 41.9089C217.174 42.5935 216.905 43.2875 216.636 43.9911C216.367 44.6756 216.126 45.3222 215.915 45.9307C215.703 46.5391 215.53 47.0716 215.396 47.528C215.261 47.9843 215.194 48.3171 215.194 48.5263C215.194 48.6404 215.251 48.6974 215.367 48.6974C215.578 48.6974 215.896 48.5738 216.319 48.3266C216.742 48.0794 217.222 47.7561 217.761 47.3568C218.318 46.9575 218.895 46.5201 219.491 46.0447C220.087 45.5694 220.655 45.1035 221.193 44.6471C221.75 44.1717 222.25 43.7439 222.693 43.3636C223.135 42.9833 223.471 42.698 223.702 42.5079C223.894 42.679 224.106 42.8977 224.337 43.1639C224.567 43.4301 224.788 43.6773 225 43.9055C224.577 44.3239 224.048 44.8373 223.414 45.4458C222.779 46.0352 222.087 46.6437 221.337 47.2712C220.606 47.8988 219.837 48.5263 219.03 49.1538C218.241 49.7813 217.472 50.3422 216.722 50.8366C215.973 51.331 215.271 51.7304 214.617 52.0346C213.963 52.3388 213.415 52.491 212.973 52.491C212.685 52.491 212.319 52.3864 211.877 52.1772C211.435 51.9871 211.002 51.7399 210.579 51.4356C210.175 51.1504 209.829 50.8271 209.541 50.4658C209.252 50.1045 209.108 49.7528 209.108 49.4105C209.281 48.6308 209.512 47.7466 209.8 46.7578C210.108 45.769 210.435 44.7612 210.781 43.7344C211.127 42.6885 211.483 41.6617 211.848 40.6539C212.233 39.627 212.598 38.6858 212.944 37.8301L212.886 37.8871C212.521 38.3245 211.992 38.9045 211.3 39.627C210.627 40.3306 209.858 41.2434 208.993 42.3653C208.128 43.4682 207.214 44.8087 206.253 46.387C205.291 47.9463 204.349 49.8003 203.426 51.949C203.311 52.2152 203.205 52.4244 203.109 52.5765C203.013 52.7287 202.83 52.8047 202.561 52.8047C202.234 52.8047 201.859 52.7096 201.436 52.5195C201.032 52.3484 200.619 52.1107 200.196 51.8064C199.754 51.5212 199.321 51.1979 198.898 50.8366C198.456 50.4753 198.062 50.114 197.716 49.7528C197.716 49.6387 197.773 49.3154 197.889 48.783C197.985 48.2505 198.129 47.585 198.321 46.7863C198.514 45.9687 198.754 45.0464 199.042 44.0196C199.331 42.9738 199.658 41.8804 200.023 40.7395C200.388 39.5985 200.792 38.4386 201.234 37.2596C201.657 36.0617 202.119 34.9112 202.619 33.8083C203.426 34.1886 204.32 34.6545 205.301 35.206C206.301 35.7574 207.224 36.4039 208.07 37.1455Z"/>
</mask>
<path d="M49.5554 15.2968C49.5554 16.666 49.3055 18.0636 48.8056 19.4897C48.3249 20.8969 47.6615 22.2945 46.8155 23.6826C45.9695 25.0517 44.9792 26.3733 43.8448 27.6473C42.7103 28.9214 41.5086 30.1003 40.2395 31.1842C38.9705 32.2681 37.6534 33.2379 36.2882 34.0936C34.923 34.9302 33.5963 35.5958 32.3081 36.0902C32.0966 35.7859 31.8274 35.4246 31.5005 35.0063C31.1928 34.569 30.8564 34.1221 30.491 33.6657C30.1257 33.1903 29.7508 32.7245 29.3662 32.2681C29.0009 31.7927 28.6452 31.3554 28.2991 30.956C31.0486 29.8912 33.5098 28.6266 35.6825 27.1625C37.8745 25.6983 39.73 24.1675 41.249 22.5702C42.7872 20.9539 43.9601 19.3281 44.7677 17.6928C45.5945 16.0384 46.0079 14.4982 46.0079 13.072C46.0079 12.8819 45.9791 12.6822 45.9214 12.4731C45.8637 12.2639 45.7676 12.0832 45.633 11.9311C45.4984 11.779 45.3157 11.6744 45.085 11.6174C44.8735 11.5413 44.6139 11.5413 44.3062 11.6174C43.4025 11.8075 42.4027 12.1593 41.3067 12.6727C40.2299 13.1861 39.0859 13.8327 37.8745 14.6123C36.6824 15.3729 35.4326 16.2571 34.1251 17.2649C32.8368 18.2728 31.5293 19.3566 30.2026 20.5166C29.4912 22.7224 28.674 25.0613 27.7511 27.5333C26.8281 29.9862 25.8283 32.4392 24.7515 34.8922C23.6748 37.3262 22.5403 39.6936 21.3482 41.9945C20.1753 44.2953 18.9735 46.406 17.743 48.3266C16.5316 50.2281 15.3106 51.873 14.0801 53.2611C12.8687 54.6682 11.6958 55.6761 10.5614 56.2845C10.2729 56.4367 9.91722 56.5793 9.49421 56.7124C9.09042 56.8455 8.58088 56.9406 7.96559 56.9976C7.73486 57.0166 7.46567 56.9216 7.15802 56.7124C6.83115 56.5032 6.50428 56.237 6.1774 55.9137C5.85053 55.5905 5.52366 55.2292 5.19678 54.8299C4.86991 54.4305 4.57188 54.0502 4.30269 53.6889C4.01427 53.3276 3.78354 53.0044 3.61048 52.7192C3.41821 52.4339 3.29322 52.2438 3.23554 52.1487C3.08172 51.8635 3.00481 51.5212 3.00481 51.1219C2.98558 50.7416 3.02403 50.3612 3.12017 49.9809C3.50473 48.7069 4.04311 47.3093 4.73531 45.788C5.42752 44.2668 6.2447 42.679 7.18687 41.0247C8.1098 39.3513 9.13849 37.6399 10.2729 35.8905C11.4266 34.1221 12.6572 32.3727 13.9647 30.6423C15.2914 28.8929 16.6758 27.172 18.1179 25.4796C19.5792 23.7872 21.079 22.1709 22.6172 20.6307C23.5978 17.6072 24.4054 14.7454 25.0399 12.0452C25.6744 9.34502 26.0494 6.99662 26.1648 5C26.9339 5.30425 27.6645 5.69406 28.3567 6.16945C29.0489 6.64483 29.6738 7.13923 30.2315 7.65265C30.7891 8.16606 31.2794 8.67948 31.7024 9.1929C32.1254 9.70631 32.4619 10.1627 32.7118 10.562C32.6734 10.8853 32.6253 11.218 32.5676 11.5603C32.51 11.8836 32.433 12.2354 32.3369 12.6157C34.2789 11.3797 36.1825 10.4194 38.0476 9.73484C39.9319 9.03127 41.7586 8.67948 43.5275 8.67948C43.8928 8.67948 44.287 8.79357 44.71 9.02176C45.1523 9.24994 45.5945 9.55419 46.0367 9.9345C46.479 10.2958 46.902 10.7046 47.3058 11.161C47.7288 11.6174 48.1037 12.0832 48.4306 12.5586C48.7575 13.015 49.0171 13.4523 49.2093 13.8707C49.4209 14.27 49.5362 14.6028 49.5554 14.869V15.2968ZM7.79254 51.1504C8.23478 51.1504 8.83085 50.6655 9.58073 49.6957C10.3306 48.7259 11.167 47.4044 12.09 45.731C13.0321 44.0576 14.0224 42.1086 15.0607 39.8838C16.099 37.659 17.1277 35.301 18.1467 32.81C16.6277 34.5975 15.2145 36.3659 13.907 38.1153C12.6187 39.8647 11.4939 41.5286 10.5325 43.1069C9.59035 44.6661 8.85007 46.1113 8.31169 47.4424C7.77332 48.7544 7.50413 49.8764 7.50413 50.8081C7.50413 51.0363 7.60026 51.1504 7.79254 51.1504Z" fill="#F9F2E6"/>
<path d="M60.5442 43.9055C58.7752 45.6169 57.1024 47.0526 55.5257 48.2125C53.9682 49.3724 52.4781 50.3042 51.0552 51.0078C49.6324 51.7113 48.2672 52.2152 46.9597 52.5195C45.6714 52.8237 44.412 52.9759 43.1814 52.9759C42.6623 52.9759 42.0854 52.7857 41.4509 52.4054C40.8164 52.0251 40.2299 51.5592 39.6916 51.0078C39.1339 50.4753 38.6725 49.9144 38.3071 49.3249C37.9418 48.7354 37.7592 48.2315 37.7592 47.8132C37.7592 46.2539 37.9803 44.8278 38.4225 43.5347C38.8455 42.2227 39.4128 41.0437 40.1242 39.9979C40.8356 38.952 41.6432 38.0298 42.5469 37.2311C43.4698 36.4325 44.4216 35.7669 45.4022 35.2345C46.4021 34.7021 47.3923 34.3027 48.3729 34.0365C49.3536 33.7703 50.2573 33.6372 51.0841 33.6372C51.6801 33.6372 52.2666 33.8083 52.8434 34.1506C53.4395 34.4929 53.9778 34.9112 54.4585 35.4056C54.9392 35.9 55.3238 36.423 55.6122 36.9744C55.9199 37.5068 56.0737 37.9727 56.0737 38.372C56.0737 39.0186 55.7949 39.6841 55.2373 40.3687C54.6989 41.0342 53.9298 41.7187 52.9299 42.4223C51.9301 43.1259 50.7283 43.8485 49.3247 44.5901C47.9211 45.3127 46.3732 46.0447 44.6812 46.7863C44.6235 47.2427 44.5947 47.6896 44.5947 48.1269C44.5947 48.7164 44.7196 49.1157 44.9696 49.3249C45.2388 49.5341 45.7291 49.6387 46.4405 49.6387C47.7096 49.6387 48.9017 49.4295 50.0169 49.0112C51.1514 48.5928 52.2377 48.0509 53.276 47.3853C54.3143 46.7198 55.3142 45.9592 56.2756 45.1035C57.237 44.2478 58.1887 43.3826 59.1309 42.5079L60.5442 43.9055ZM50.3919 36.7747C50.0073 36.7747 49.5843 36.9839 49.1228 37.4022C48.6614 37.8016 48.1999 38.334 47.7384 38.9995C47.2769 39.6651 46.8347 40.4352 46.4117 41.3099C45.9887 42.1656 45.6233 43.0593 45.3157 43.9911C46.0271 43.5347 46.7193 43.0498 47.3923 42.5364C48.0845 42.023 48.6998 41.4906 49.2382 40.9391C49.7766 40.3687 50.2092 39.7887 50.5361 39.1992C50.8629 38.6097 51.0264 38.0202 51.0264 37.4308C51.0264 37.2596 50.9687 37.1075 50.8533 36.9744C50.7572 36.8413 50.6034 36.7747 50.3919 36.7747Z" fill="#F9F2E6"/>
<path d="M72.2251 39.1136C71.9751 39.8552 71.6579 40.7014 71.2733 41.6522C70.908 42.603 70.5523 43.5347 70.2062 44.4475C69.8601 45.3602 69.562 46.1874 69.3121 46.929C69.0813 47.6706 68.966 48.203 68.966 48.5263C68.966 48.6404 69.0236 48.6974 69.139 48.6974C69.3505 48.6974 69.6678 48.5738 70.0908 48.3266C70.5138 48.0794 70.9945 47.7561 71.5329 47.3568C72.0905 46.9575 72.6673 46.5201 73.2634 46.0447C73.8595 45.5694 74.4267 45.1035 74.9651 44.6471C75.5227 44.1717 76.0226 43.7439 76.4648 43.3636C76.9071 42.9833 77.2436 42.698 77.4743 42.5079C77.6473 42.679 77.8492 42.8977 78.08 43.1639C78.3299 43.4301 78.5607 43.6773 78.7722 43.9055C78.3492 44.3239 77.8204 44.8373 77.1859 45.4458C76.5514 46.0352 75.8591 46.6437 75.1093 47.2712C74.3786 47.8988 73.6095 48.5263 72.8019 49.1538C72.0136 49.7813 71.2348 50.3422 70.4657 50.8366C69.7158 51.331 69.014 51.7304 68.3603 52.0346C67.7065 52.3388 67.1585 52.491 66.7163 52.491C66.4279 52.491 66.0626 52.3864 65.6203 52.1772C65.1781 51.9871 64.7551 51.7399 64.3513 51.4356C63.9475 51.1504 63.6014 50.8271 63.313 50.4658C63.0246 50.1045 62.8803 49.7528 62.8803 49.4105C63.1688 48.1364 63.4572 47.024 63.7456 46.0733C64.034 45.1225 64.3032 44.3143 64.5532 43.6488C64.8031 42.9643 65.0243 42.4128 65.2165 41.9945C65.4088 41.5761 65.553 41.2624 65.6492 41.0532C65.4184 40.9581 65.1973 40.8535 64.9858 40.7395C64.7743 40.6254 64.5628 40.5113 64.3513 40.3972C64.0436 40.7204 63.6975 41.0627 63.313 41.424C62.9476 41.7853 62.5727 42.1466 62.1881 42.5079C61.8036 42.8692 61.419 43.221 61.0345 43.5632C60.6499 43.9055 60.3038 44.2193 59.9962 44.5045L58.6118 43.1069C59.1117 42.6315 59.7174 42.061 60.4288 41.3955C61.121 40.7109 61.8036 40.0264 62.4766 39.3418C61.9959 39.0566 61.5632 38.7904 61.1787 38.5432C60.7941 38.277 60.4673 38.0393 60.1981 37.8301C59.8712 37.6019 59.5828 37.3927 59.3328 37.2026C59.2174 37.1455 59.1598 37.0219 59.1598 36.8318C59.1598 36.6226 59.2463 36.3279 59.4193 35.9476C59.5732 35.5482 59.775 35.1299 60.025 34.6926C60.275 34.2362 60.5442 33.7798 60.8326 33.3234C61.121 32.8481 61.3998 32.4202 61.669 32.0399C61.9382 31.6596 62.1689 31.3554 62.3612 31.1272C62.5727 30.88 62.7073 30.7564 62.765 30.7564C62.8034 30.7564 62.9284 30.8039 63.1399 30.899C63.3707 30.9941 63.611 31.1081 63.861 31.2413C64.1109 31.3554 64.3417 31.4885 64.5532 31.6406C64.7647 31.7927 64.8993 31.9258 64.957 32.0399C64.9762 32.135 64.9954 32.3346 65.0146 32.6389C65.0339 32.9431 65.0531 33.3139 65.0723 33.7513C65.8222 34.1316 66.5913 34.569 67.3797 35.0634C68.168 35.5387 68.8891 35.9951 69.5428 36.4325C70.3119 36.9269 71.0426 37.4308 71.7348 37.9442C71.9847 38.0963 72.1386 38.2865 72.1962 38.5146C72.2732 38.7428 72.2828 38.9425 72.2251 39.1136Z" fill="#F9F2E6"/>
<path d="M134.004 15.2968C134.004 16.666 133.754 18.0636 133.254 19.4897C132.774 20.8969 132.11 22.2945 131.264 23.6826C130.418 25.0517 129.428 26.3733 128.294 27.6473C127.159 28.9214 125.957 30.1003 124.688 31.1842C123.419 32.2681 122.102 33.2379 120.737 34.0936C119.372 34.9302 118.045 35.5958 116.757 36.0902C116.545 35.7859 116.276 35.4246 115.949 35.0063C115.642 34.569 115.305 34.1221 114.94 33.6657C114.574 33.1903 114.199 32.7245 113.815 32.2681C113.45 31.7927 113.094 31.3554 112.748 30.956C115.497 29.8912 117.959 28.6266 120.131 27.1625C122.323 25.6983 124.179 24.1675 125.698 22.5702C127.236 20.9539 128.409 19.3281 129.216 17.6928C130.043 16.0384 130.457 14.4982 130.457 13.072C130.457 12.8819 130.428 12.6822 130.37 12.4731C130.312 12.2639 130.216 12.0832 130.082 11.9311C129.947 11.779 129.764 11.6744 129.534 11.6174C129.322 11.5413 129.063 11.5413 128.755 11.6174C127.851 11.8075 126.851 12.1593 125.755 12.6727C124.679 13.1861 123.535 13.8327 122.323 14.6123C121.131 15.3729 119.881 16.2571 118.574 17.2649C117.286 18.2728 115.978 19.3566 114.651 20.5166C113.94 22.7224 113.123 25.0613 112.2 27.5333C111.277 29.9862 110.277 32.4392 109.2 34.8922C108.123 37.3262 106.989 39.6936 105.797 41.9945C104.624 44.2953 103.422 46.406 102.192 48.3266C100.98 50.2281 99.7594 51.873 98.5288 53.2611C97.3174 54.6682 96.1445 55.6761 95.0101 56.2845C94.7217 56.4367 94.366 56.5793 93.9429 56.7124C93.5392 56.8455 93.0296 56.9406 92.4143 56.9976C92.1836 57.0166 91.9144 56.9216 91.6068 56.7124C91.2799 56.5032 90.953 56.237 90.6261 55.9137C90.2993 55.5905 89.9724 55.2292 89.6455 54.8299C89.3186 54.4305 89.0206 54.0502 88.7514 53.6889C88.463 53.3276 88.2323 53.0044 88.0592 52.7192C87.8669 52.4339 87.742 52.2438 87.6843 52.1487C87.5305 51.8635 87.4535 51.5212 87.4535 51.1219C87.4343 50.7416 87.4728 50.3612 87.5689 49.9809C87.9535 48.7069 88.4919 47.3093 89.1841 45.788C89.8763 44.2668 90.6934 42.679 91.6356 41.0247C92.5585 39.3513 93.5872 37.6399 94.7217 35.8905C95.8753 34.1221 97.1059 32.3727 98.4134 30.6423C99.7401 28.8929 101.125 27.172 102.567 25.4796C104.028 23.7872 105.528 22.1709 107.066 20.6307C108.047 17.6072 108.854 14.7454 109.489 12.0452C110.123 9.34502 110.498 6.99662 110.613 5C111.383 5.30425 112.113 5.69406 112.805 6.16945C113.498 6.64483 114.123 7.13923 114.68 7.65265C115.238 8.16606 115.728 8.67948 116.151 9.1929C116.574 9.70631 116.911 10.1627 117.161 10.562C117.122 10.8853 117.074 11.218 117.016 11.5603C116.959 11.8836 116.882 12.2354 116.786 12.6157C118.728 11.3797 120.631 10.4194 122.496 9.73484C124.381 9.03127 126.207 8.67948 127.976 8.67948C128.342 8.67948 128.736 8.79357 129.159 9.02176C129.601 9.24994 130.043 9.55419 130.485 9.9345C130.928 10.2958 131.351 10.7046 131.755 11.161C132.178 11.6174 132.552 12.0832 132.879 12.5586C133.206 13.015 133.466 13.4523 133.658 13.8707C133.87 14.27 133.985 14.6028 134.004 14.869V15.2968ZM92.2413 51.1504C92.6835 51.1504 93.2796 50.6655 94.0295 49.6957C94.7794 48.7259 95.6158 47.4044 96.5387 45.731C97.4809 44.0576 98.4711 42.1086 99.5094 39.8838C100.548 37.659 101.576 35.301 102.595 32.81C101.076 34.5975 99.6632 36.3659 98.3557 38.1153C97.0675 39.8647 95.9426 41.5286 94.9813 43.1069C94.0391 44.6661 93.2988 46.1113 92.7604 47.4424C92.2221 48.7544 91.9529 49.8764 91.9529 50.8081C91.9529 51.0363 92.049 51.1504 92.2413 51.1504Z" fill="#F9F2E6"/>
<path d="M144.993 43.9055C143.224 45.6169 141.551 47.0526 139.974 48.2125C138.417 49.3724 136.927 50.3042 135.504 51.0078C134.081 51.7113 132.716 52.2152 131.408 52.5195C130.12 52.8237 128.861 52.9759 127.63 52.9759C127.111 52.9759 126.534 52.7857 125.9 52.4054C125.265 52.0251 124.679 51.5592 124.14 51.0078C123.583 50.4753 123.121 49.9144 122.756 49.3249C122.391 48.7354 122.208 48.2315 122.208 47.8132C122.208 46.2539 122.429 44.8278 122.871 43.5347C123.294 42.2227 123.861 41.0437 124.573 39.9979C125.284 38.952 126.092 38.0298 126.996 37.2311C127.919 36.4325 128.87 35.7669 129.851 35.2345C130.851 34.7021 131.841 34.3027 132.822 34.0365C133.802 33.7703 134.706 33.6372 135.533 33.6372C136.129 33.6372 136.715 33.8083 137.292 34.1506C137.888 34.4929 138.427 34.9112 138.907 35.4056C139.388 35.9 139.773 36.423 140.061 36.9744C140.369 37.5068 140.522 37.9727 140.522 38.372C140.522 39.0186 140.244 39.6841 139.686 40.3687C139.148 41.0342 138.379 41.7187 137.379 42.4223C136.379 43.1259 135.177 43.8485 133.773 44.5901C132.37 45.3127 130.822 46.0447 129.13 46.7863C129.072 47.2427 129.043 47.6896 129.043 48.1269C129.043 48.7164 129.168 49.1157 129.418 49.3249C129.688 49.5341 130.178 49.6387 130.889 49.6387C132.158 49.6387 133.35 49.4295 134.466 49.0112C135.6 48.5928 136.686 48.0509 137.725 47.3853C138.763 46.7198 139.763 45.9592 140.724 45.1035C141.686 44.2478 142.637 43.3826 143.58 42.5079L144.993 43.9055ZM134.841 36.7747C134.456 36.7747 134.033 36.9839 133.572 37.4022C133.11 37.8016 132.649 38.334 132.187 38.9995C131.726 39.6651 131.283 40.4352 130.86 41.3099C130.437 42.1656 130.072 43.0593 129.764 43.9911C130.476 43.5347 131.168 43.0498 131.841 42.5364C132.533 42.023 133.149 41.4906 133.687 40.9391C134.225 40.3687 134.658 39.7887 134.985 39.1992C135.312 38.6097 135.475 38.0202 135.475 37.4308C135.475 37.2596 135.417 37.1075 135.302 36.9744C135.206 36.8413 135.052 36.7747 134.841 36.7747Z" fill="#F9F2E6"/>
<path d="M156.674 39.1136C156.424 39.8552 156.107 40.7014 155.722 41.6522C155.357 42.603 155.001 43.5347 154.655 44.4475C154.309 45.3602 154.011 46.1874 153.761 46.929C153.53 47.6706 153.415 48.203 153.415 48.5263C153.415 48.6404 153.472 48.6974 153.588 48.6974C153.799 48.6974 154.117 48.5738 154.54 48.3266C154.963 48.0794 155.443 47.7561 155.982 47.3568C156.539 46.9575 157.116 46.5201 157.712 46.0447C158.308 45.5694 158.875 45.1035 159.414 44.6471C159.971 44.1717 160.471 43.7439 160.914 43.3636C161.356 42.9833 161.692 42.698 161.923 42.5079C162.096 42.679 162.298 42.8977 162.529 43.1639C162.779 43.4301 163.009 43.6773 163.221 43.9055C162.798 44.3239 162.269 44.8373 161.635 45.4458C161 46.0352 160.308 46.6437 159.558 47.2712C158.827 47.8988 158.058 48.5263 157.251 49.1538C156.462 49.7813 155.684 50.3422 154.914 50.8366C154.165 51.331 153.463 51.7304 152.809 52.0346C152.155 52.3388 151.607 52.491 151.165 52.491C150.877 52.491 150.511 52.3864 150.069 52.1772C149.627 51.9871 149.204 51.7399 148.8 51.4356C148.396 51.1504 148.05 50.8271 147.762 50.4658C147.473 50.1045 147.329 49.7528 147.329 49.4105C147.618 48.1364 147.906 47.024 148.194 46.0733C148.483 45.1225 148.752 44.3143 149.002 43.6488C149.252 42.9643 149.473 42.4128 149.665 41.9945C149.858 41.5761 150.002 41.2624 150.098 41.0532C149.867 40.9581 149.646 40.8535 149.435 40.7395C149.223 40.6254 149.012 40.5113 148.8 40.3972C148.492 40.7204 148.146 41.0627 147.762 41.424C147.396 41.7853 147.021 42.1466 146.637 42.5079C146.252 42.8692 145.868 43.221 145.483 43.5632C145.099 43.9055 144.753 44.2193 144.445 44.5045L143.061 43.1069C143.56 42.6315 144.166 42.061 144.878 41.3955C145.57 40.7109 146.252 40.0264 146.925 39.3418C146.445 39.0566 146.012 38.7904 145.627 38.5432C145.243 38.277 144.916 38.0393 144.647 37.8301C144.32 37.6019 144.032 37.3927 143.782 37.2026C143.666 37.1455 143.609 37.0219 143.609 36.8318C143.609 36.6226 143.695 36.3279 143.868 35.9476C144.022 35.5482 144.224 35.1299 144.474 34.6926C144.724 34.2362 144.993 33.7798 145.281 33.3234C145.57 32.8481 145.849 32.4202 146.118 32.0399C146.387 31.6596 146.618 31.3554 146.81 31.1272C147.021 30.88 147.156 30.7564 147.214 30.7564C147.252 30.7564 147.377 30.8039 147.589 30.899C147.819 30.9941 148.06 31.1081 148.31 31.2413C148.56 31.3554 148.79 31.4885 149.002 31.6406C149.213 31.7927 149.348 31.9258 149.406 32.0399C149.425 32.135 149.444 32.3346 149.463 32.6389C149.483 32.9431 149.502 33.3139 149.521 33.7513C150.271 34.1316 151.04 34.569 151.828 35.0634C152.617 35.5387 153.338 35.9951 153.992 36.4325C154.761 36.9269 155.491 37.4308 156.184 37.9442C156.433 38.0963 156.587 38.2865 156.645 38.5146C156.722 38.7428 156.732 38.9425 156.674 39.1136Z" fill="#F9F2E6"/>
<path d="M161.346 43.0498C161.788 42.6315 162.298 42.1561 162.875 41.6237C163.432 41.0912 163.99 40.5113 164.548 39.8838C165.124 39.2562 165.653 38.5812 166.134 37.8586C166.634 37.136 167.028 36.3564 167.316 35.5197C167.393 35.0824 167.509 34.626 167.663 34.1506C167.836 33.6562 168.018 33.2094 168.211 32.81C168.422 32.4107 168.624 32.0779 168.816 31.8117C169.008 31.5455 169.182 31.4124 169.335 31.4124C169.566 31.5455 169.912 31.8022 170.374 32.1825C170.835 32.5438 171.297 32.9336 171.758 33.352C172.22 33.7703 172.623 34.1601 172.969 34.5214C173.335 34.8637 173.517 35.0729 173.517 35.1489C173.287 36.0236 173.171 36.8128 173.171 37.5163C173.191 38.2199 173.248 38.914 173.344 39.5985C173.46 40.2831 173.575 41.0152 173.69 41.7948C173.825 42.5554 173.892 43.4396 173.892 44.4475C173.892 45.0559 173.787 45.7595 173.575 46.5582C173.383 47.3378 173.037 48.0414 172.537 48.6689C173.517 48.0984 174.488 47.4614 175.45 46.7578C176.411 46.0352 177.267 45.3602 178.017 44.7327C178.901 43.9911 179.747 43.2495 180.555 42.5079L181.853 43.9055C181.218 44.495 180.526 45.1225 179.776 45.788C179.045 46.4536 178.276 47.1096 177.469 47.7561C176.68 48.4027 175.873 49.0207 175.046 49.6101C174.219 50.1996 173.402 50.7225 172.594 51.1789C171.787 51.6353 171.008 51.9966 170.258 52.2628C169.508 52.529 168.807 52.6621 168.153 52.6621C167.595 52.6621 166.98 52.529 166.307 52.2628C165.634 51.9966 164.999 51.6733 164.403 51.293C163.807 50.9127 163.288 50.5134 162.846 50.095C162.404 49.6767 162.144 49.3249 162.067 49.0397C162.067 49.0016 162.106 48.9256 162.183 48.8115C162.26 48.6784 162.356 48.5453 162.471 48.4122C162.567 48.2791 162.673 48.165 162.788 48.0699C162.884 47.9558 162.961 47.8988 163.019 47.8988C163.134 47.8988 163.365 47.9843 163.711 48.1555C164.057 48.3266 164.634 48.4122 165.442 48.4122C165.884 48.4122 166.259 48.2981 166.567 48.0699C166.893 47.8417 167.163 47.5375 167.374 47.1572C167.586 46.7768 167.739 46.3395 167.836 45.8451C167.932 45.3507 167.98 44.8278 167.98 44.2763C167.98 43.4777 167.941 42.7075 167.864 41.9659C167.788 41.2053 167.701 40.4732 167.605 39.7697C167.278 40.15 166.903 40.5493 166.48 40.9676C166.057 41.386 165.624 41.8043 165.182 42.2227C164.759 42.622 164.327 43.0213 163.884 43.4206C163.461 43.8009 163.077 44.1432 162.731 44.4475L161.346 43.0498Z" fill="#F9F2E6"/>
<path d="M184.016 48.0128C184.016 48.5833 184.227 48.8685 184.65 48.8685C185.093 48.8685 185.679 48.5263 186.41 47.8417C187.14 47.1381 187.9 46.2539 188.688 45.1891C188.65 44.9799 188.621 44.7992 188.602 44.6471C188.602 44.476 188.602 44.3239 188.602 44.1907C188.602 43.8104 188.64 43.3636 188.717 42.8502C188.813 42.3177 189.034 41.7187 189.38 41.0532C189.611 40.5398 189.89 40.0359 190.217 39.5415C190.486 39.1041 190.813 38.6382 191.197 38.1438C191.582 37.6304 192.005 37.155 192.466 36.7177L192.64 36.5466C192.832 36.7747 193.082 37.0885 193.389 37.4878C193.716 37.8681 194.034 38.2674 194.341 38.6858C194.668 39.0851 194.947 39.4559 195.178 39.7982C195.428 40.1405 195.581 40.3782 195.639 40.5113C195.639 41.3289 195.485 42.1466 195.178 42.9643C194.889 43.7819 194.495 44.5901 193.995 45.3887C195.149 45.3127 196.216 45.0274 197.197 44.533C198.196 44.0196 199.235 43.1924 200.311 42.0515C200.484 42.2227 200.706 42.4603 200.975 42.7646C201.263 43.0498 201.494 43.297 201.667 43.5062C200.859 44.3429 200.061 45.0369 199.273 45.5884C198.504 46.1398 197.725 46.5772 196.937 46.9004C196.168 47.2237 195.38 47.4614 194.572 47.6135C193.764 47.7466 192.938 47.8132 192.092 47.8132C191.438 48.4977 190.736 49.1252 189.986 49.6957C189.236 50.2662 188.467 50.7606 187.679 51.1789C186.91 51.5972 186.141 51.9205 185.371 52.1487C184.602 52.3769 183.872 52.491 183.179 52.491C182.603 52.491 182.007 52.3198 181.391 51.9776C180.776 51.6353 180.218 51.2169 179.718 50.7225C179.218 50.2091 178.805 49.6672 178.478 49.0967C178.151 48.5263 177.988 48.0224 177.988 47.585C177.988 46.1398 178.19 44.7042 178.594 43.278C178.978 41.8519 179.593 40.5208 180.439 39.2848C181.266 38.0298 182.324 36.9269 183.612 35.9761C184.92 35.0253 186.467 34.3027 188.256 33.8083C188.313 33.7703 188.409 33.7418 188.544 33.7228C188.698 33.7038 188.823 33.6942 188.919 33.6942C189.188 33.6942 189.467 33.7988 189.755 34.008C190.063 34.1982 190.342 34.4168 190.592 34.664C190.861 34.9112 191.082 35.1584 191.255 35.4056C191.428 35.6338 191.515 35.7859 191.515 35.862C191.476 35.9571 191.332 36.0807 191.082 36.2328C190.832 36.3659 190.496 36.6036 190.073 36.9459C189.65 37.2882 189.15 37.7826 188.573 38.4291C187.996 39.0566 187.361 39.8933 186.669 40.9391C185.631 42.4794 184.929 43.877 184.564 45.132C184.199 46.368 184.016 47.3283 184.016 48.0128Z" fill="#F9F2E6"/>
<path d="M208.07 37.1455C207.839 37.754 207.608 38.372 207.378 38.9995C207.147 39.627 206.916 40.2736 206.685 40.9391C207.897 39.57 208.935 38.4576 209.8 37.6019C210.685 36.7272 211.425 36.0426 212.021 35.5482C212.636 35.0538 213.127 34.7211 213.492 34.5499C213.877 34.3598 214.175 34.2647 214.386 34.2647C214.636 34.2647 215.011 34.3883 215.511 34.6355C216.011 34.8827 216.511 35.187 217.011 35.5482C217.53 35.9095 217.972 36.2803 218.338 36.6606C218.722 37.041 218.914 37.3737 218.914 37.659C218.914 37.716 218.905 37.7921 218.886 37.8871C218.866 37.9632 218.837 38.0678 218.799 38.2009C218.645 38.6763 218.443 39.2372 218.193 39.8838C217.963 40.5303 217.713 41.2053 217.443 41.9089C217.174 42.5935 216.905 43.2875 216.636 43.9911C216.367 44.6756 216.126 45.3222 215.915 45.9307C215.703 46.5391 215.53 47.0716 215.396 47.528C215.261 47.9843 215.194 48.3171 215.194 48.5263C215.194 48.6404 215.251 48.6974 215.367 48.6974C215.578 48.6974 215.896 48.5738 216.319 48.3266C216.742 48.0794 217.222 47.7561 217.761 47.3568C218.318 46.9575 218.895 46.5201 219.491 46.0447C220.087 45.5694 220.655 45.1035 221.193 44.6471C221.75 44.1717 222.25 43.7439 222.693 43.3636C223.135 42.9833 223.471 42.698 223.702 42.5079C223.894 42.679 224.106 42.8977 224.337 43.1639C224.567 43.4301 224.788 43.6773 225 43.9055C224.577 44.3239 224.048 44.8373 223.414 45.4458C222.779 46.0352 222.087 46.6437 221.337 47.2712C220.606 47.8988 219.837 48.5263 219.03 49.1538C218.241 49.7813 217.472 50.3422 216.722 50.8366C215.973 51.331 215.271 51.7304 214.617 52.0346C213.963 52.3388 213.415 52.491 212.973 52.491C212.685 52.491 212.319 52.3864 211.877 52.1772C211.435 51.9871 211.002 51.7399 210.579 51.4356C210.175 51.1504 209.829 50.8271 209.541 50.4658C209.252 50.1045 209.108 49.7528 209.108 49.4105C209.281 48.6308 209.512 47.7466 209.8 46.7578C210.108 45.769 210.435 44.7612 210.781 43.7344C211.127 42.6885 211.483 41.6617 211.848 40.6539C212.233 39.627 212.598 38.6858 212.944 37.8301L212.886 37.8871C212.521 38.3245 211.992 38.9045 211.3 39.627C210.627 40.3306 209.858 41.2434 208.993 42.3653C208.128 43.4682 207.214 44.8087 206.253 46.387C205.291 47.9463 204.349 49.8003 203.426 51.949C203.311 52.2152 203.205 52.4244 203.109 52.5765C203.013 52.7287 202.83 52.8047 202.561 52.8047C202.234 52.8047 201.859 52.7096 201.436 52.5195C201.032 52.3484 200.619 52.1107 200.196 51.8064C199.754 51.5212 199.321 51.1979 198.898 50.8366C198.456 50.4753 198.062 50.114 197.716 49.7528C197.716 49.6387 197.773 49.3154 197.889 48.783C197.985 48.2505 198.129 47.585 198.321 46.7863C198.514 45.9687 198.754 45.0464 199.042 44.0196C199.331 42.9738 199.658 41.8804 200.023 40.7395C200.388 39.5985 200.792 38.4386 201.234 37.2596C201.657 36.0617 202.119 34.9112 202.619 33.8083C203.426 34.1886 204.32 34.6545 205.301 35.206C206.301 35.7574 207.224 36.4039 208.07 37.1455Z" fill="#F9F2E6"/>
<path d="M49.5554 15.2968C49.5554 16.666 49.3055 18.0636 48.8056 19.4897C48.3249 20.8969 47.6615 22.2945 46.8155 23.6826C45.9695 25.0517 44.9792 26.3733 43.8448 27.6473C42.7103 28.9214 41.5086 30.1003 40.2395 31.1842C38.9705 32.2681 37.6534 33.2379 36.2882 34.0936C34.923 34.9302 33.5963 35.5958 32.3081 36.0902C32.0966 35.7859 31.8274 35.4246 31.5005 35.0063C31.1928 34.569 30.8564 34.1221 30.491 33.6657C30.1257 33.1903 29.7508 32.7245 29.3662 32.2681C29.0009 31.7927 28.6452 31.3554 28.2991 30.956C31.0486 29.8912 33.5098 28.6266 35.6825 27.1625C37.8745 25.6983 39.73 24.1675 41.249 22.5702C42.7872 20.9539 43.9601 19.3281 44.7677 17.6928C45.5945 16.0384 46.0079 14.4982 46.0079 13.072C46.0079 12.8819 45.9791 12.6822 45.9214 12.4731C45.8637 12.2639 45.7676 12.0832 45.633 11.9311C45.4984 11.779 45.3157 11.6744 45.085 11.6174C44.8735 11.5413 44.6139 11.5413 44.3062 11.6174C43.4025 11.8075 42.4027 12.1593 41.3067 12.6727C40.2299 13.1861 39.0859 13.8327 37.8745 14.6123C36.6824 15.3729 35.4326 16.2571 34.1251 17.2649C32.8368 18.2728 31.5293 19.3566 30.2026 20.5166C29.4912 22.7224 28.674 25.0613 27.7511 27.5333C26.8281 29.9862 25.8283 32.4392 24.7515 34.8922C23.6748 37.3262 22.5403 39.6936 21.3482 41.9945C20.1753 44.2953 18.9735 46.406 17.743 48.3266C16.5316 50.2281 15.3106 51.873 14.0801 53.2611C12.8687 54.6682 11.6958 55.6761 10.5614 56.2845C10.2729 56.4367 9.91722 56.5793 9.49421 56.7124C9.09042 56.8455 8.58088 56.9406 7.96559 56.9976C7.73486 57.0166 7.46567 56.9216 7.15802 56.7124C6.83115 56.5032 6.50428 56.237 6.1774 55.9137C5.85053 55.5905 5.52366 55.2292 5.19678 54.8299C4.86991 54.4305 4.57188 54.0502 4.30269 53.6889C4.01427 53.3276 3.78354 53.0044 3.61048 52.7192C3.41821 52.4339 3.29322 52.2438 3.23554 52.1487C3.08172 51.8635 3.00481 51.5212 3.00481 51.1219C2.98558 50.7416 3.02403 50.3612 3.12017 49.9809C3.50473 48.7069 4.04311 47.3093 4.73531 45.788C5.42752 44.2668 6.2447 42.679 7.18687 41.0247C8.1098 39.3513 9.13849 37.6399 10.2729 35.8905C11.4266 34.1221 12.6572 32.3727 13.9647 30.6423C15.2914 28.8929 16.6758 27.172 18.1179 25.4796C19.5792 23.7872 21.079 22.1709 22.6172 20.6307C23.5978 17.6072 24.4054 14.7454 25.0399 12.0452C25.6744 9.34502 26.0494 6.99662 26.1648 5C26.9339 5.30425 27.6645 5.69406 28.3567 6.16945C29.0489 6.64483 29.6738 7.13923 30.2315 7.65265C30.7891 8.16606 31.2794 8.67948 31.7024 9.1929C32.1254 9.70631 32.4619 10.1627 32.7118 10.562C32.6734 10.8853 32.6253 11.218 32.5676 11.5603C32.51 11.8836 32.433 12.2354 32.3369 12.6157C34.2789 11.3797 36.1825 10.4194 38.0476 9.73484C39.9319 9.03127 41.7586 8.67948 43.5275 8.67948C43.8928 8.67948 44.287 8.79357 44.71 9.02176C45.1523 9.24994 45.5945 9.55419 46.0367 9.9345C46.479 10.2958 46.902 10.7046 47.3058 11.161C47.7288 11.6174 48.1037 12.0832 48.4306 12.5586C48.7575 13.015 49.0171 13.4523 49.2093 13.8707C49.4209 14.27 49.5362 14.6028 49.5554 14.869V15.2968ZM7.79254 51.1504C8.23478 51.1504 8.83085 50.6655 9.58073 49.6957C10.3306 48.7259 11.167 47.4044 12.09 45.731C13.0321 44.0576 14.0224 42.1086 15.0607 39.8838C16.099 37.659 17.1277 35.301 18.1467 32.81C16.6277 34.5975 15.2145 36.3659 13.907 38.1153C12.6187 39.8647 11.4939 41.5286 10.5325 43.1069C9.59035 44.6661 8.85007 46.1113 8.31169 47.4424C7.77332 48.7544 7.50413 49.8764 7.50413 50.8081C7.50413 51.0363 7.60026 51.1504 7.79254 51.1504Z" stroke="black" stroke-width="6" mask="url(#path-1-outside-1_26_18)"/>
<path d="M60.5442 43.9055C58.7752 45.6169 57.1024 47.0526 55.5257 48.2125C53.9682 49.3724 52.4781 50.3042 51.0552 51.0078C49.6324 51.7113 48.2672 52.2152 46.9597 52.5195C45.6714 52.8237 44.412 52.9759 43.1814 52.9759C42.6623 52.9759 42.0854 52.7857 41.4509 52.4054C40.8164 52.0251 40.2299 51.5592 39.6916 51.0078C39.1339 50.4753 38.6725 49.9144 38.3071 49.3249C37.9418 48.7354 37.7592 48.2315 37.7592 47.8132C37.7592 46.2539 37.9803 44.8278 38.4225 43.5347C38.8455 42.2227 39.4128 41.0437 40.1242 39.9979C40.8356 38.952 41.6432 38.0298 42.5469 37.2311C43.4698 36.4325 44.4216 35.7669 45.4022 35.2345C46.4021 34.7021 47.3923 34.3027 48.3729 34.0365C49.3536 33.7703 50.2573 33.6372 51.0841 33.6372C51.6801 33.6372 52.2666 33.8083 52.8434 34.1506C53.4395 34.4929 53.9778 34.9112 54.4585 35.4056C54.9392 35.9 55.3238 36.423 55.6122 36.9744C55.9199 37.5068 56.0737 37.9727 56.0737 38.372C56.0737 39.0186 55.7949 39.6841 55.2373 40.3687C54.6989 41.0342 53.9298 41.7187 52.9299 42.4223C51.9301 43.1259 50.7283 43.8485 49.3247 44.5901C47.9211 45.3127 46.3732 46.0447 44.6812 46.7863C44.6235 47.2427 44.5947 47.6896 44.5947 48.1269C44.5947 48.7164 44.7196 49.1157 44.9696 49.3249C45.2388 49.5341 45.7291 49.6387 46.4405 49.6387C47.7096 49.6387 48.9017 49.4295 50.0169 49.0112C51.1514 48.5928 52.2377 48.0509 53.276 47.3853C54.3143 46.7198 55.3142 45.9592 56.2756 45.1035C57.237 44.2478 58.1887 43.3826 59.1309 42.5079L60.5442 43.9055ZM50.3919 36.7747C50.0073 36.7747 49.5843 36.9839 49.1228 37.4022C48.6614 37.8016 48.1999 38.334 47.7384 38.9995C47.2769 39.6651 46.8347 40.4352 46.4117 41.3099C45.9887 42.1656 45.6233 43.0593 45.3157 43.9911C46.0271 43.5347 46.7193 43.0498 47.3923 42.5364C48.0845 42.023 48.6998 41.4906 49.2382 40.9391C49.7766 40.3687 50.2092 39.7887 50.5361 39.1992C50.8629 38.6097 51.0264 38.0202 51.0264 37.4308C51.0264 37.2596 50.9687 37.1075 50.8533 36.9744C50.7572 36.8413 50.6034 36.7747 50.3919 36.7747Z" stroke="black" stroke-width="6" mask="url(#path-1-outside-1_26_18)"/>
<path d="M72.2251 39.1136C71.9751 39.8552 71.6579 40.7014 71.2733 41.6522C70.908 42.603 70.5523 43.5347 70.2062 44.4475C69.8601 45.3602 69.562 46.1874 69.3121 46.929C69.0813 47.6706 68.966 48.203 68.966 48.5263C68.966 48.6404 69.0236 48.6974 69.139 48.6974C69.3505 48.6974 69.6678 48.5738 70.0908 48.3266C70.5138 48.0794 70.9945 47.7561 71.5329 47.3568C72.0905 46.9575 72.6673 46.5201 73.2634 46.0447C73.8595 45.5694 74.4267 45.1035 74.9651 44.6471C75.5227 44.1717 76.0226 43.7439 76.4648 43.3636C76.9071 42.9833 77.2436 42.698 77.4743 42.5079C77.6473 42.679 77.8492 42.8977 78.08 43.1639C78.3299 43.4301 78.5607 43.6773 78.7722 43.9055C78.3492 44.3239 77.8204 44.8373 77.1859 45.4458C76.5514 46.0352 75.8591 46.6437 75.1093 47.2712C74.3786 47.8988 73.6095 48.5263 72.8019 49.1538C72.0136 49.7813 71.2348 50.3422 70.4657 50.8366C69.7158 51.331 69.014 51.7304 68.3603 52.0346C67.7065 52.3388 67.1585 52.491 66.7163 52.491C66.4279 52.491 66.0626 52.3864 65.6203 52.1772C65.1781 51.9871 64.7551 51.7399 64.3513 51.4356C63.9475 51.1504 63.6014 50.8271 63.313 50.4658C63.0246 50.1045 62.8803 49.7528 62.8803 49.4105C63.1688 48.1364 63.4572 47.024 63.7456 46.0733C64.034 45.1225 64.3032 44.3143 64.5532 43.6488C64.8031 42.9643 65.0243 42.4128 65.2165 41.9945C65.4088 41.5761 65.553 41.2624 65.6492 41.0532C65.4184 40.9581 65.1973 40.8535 64.9858 40.7395C64.7743 40.6254 64.5628 40.5113 64.3513 40.3972C64.0436 40.7204 63.6975 41.0627 63.313 41.424C62.9476 41.7853 62.5727 42.1466 62.1881 42.5079C61.8036 42.8692 61.419 43.221 61.0345 43.5632C60.6499 43.9055 60.3038 44.2193 59.9962 44.5045L58.6118 43.1069C59.1117 42.6315 59.7174 42.061 60.4288 41.3955C61.121 40.7109 61.8036 40.0264 62.4766 39.3418C61.9959 39.0566 61.5632 38.7904 61.1787 38.5432C60.7941 38.277 60.4673 38.0393 60.1981 37.8301C59.8712 37.6019 59.5828 37.3927 59.3328 37.2026C59.2174 37.1455 59.1598 37.0219 59.1598 36.8318C59.1598 36.6226 59.2463 36.3279 59.4193 35.9476C59.5732 35.5482 59.775 35.1299 60.025 34.6926C60.275 34.2362 60.5442 33.7798 60.8326 33.3234C61.121 32.8481 61.3998 32.4202 61.669 32.0399C61.9382 31.6596 62.1689 31.3554 62.3612 31.1272C62.5727 30.88 62.7073 30.7564 62.765 30.7564C62.8034 30.7564 62.9284 30.8039 63.1399 30.899C63.3707 30.9941 63.611 31.1081 63.861 31.2413C64.1109 31.3554 64.3417 31.4885 64.5532 31.6406C64.7647 31.7927 64.8993 31.9258 64.957 32.0399C64.9762 32.135 64.9954 32.3346 65.0146 32.6389C65.0339 32.9431 65.0531 33.3139 65.0723 33.7513C65.8222 34.1316 66.5913 34.569 67.3797 35.0634C68.168 35.5387 68.8891 35.9951 69.5428 36.4325C70.3119 36.9269 71.0426 37.4308 71.7348 37.9442C71.9847 38.0963 72.1386 38.2865 72.1962 38.5146C72.2732 38.7428 72.2828 38.9425 72.2251 39.1136Z" stroke="black" stroke-width="6" mask="url(#path-1-outside-1_26_18)"/>
<path d="M134.004 15.2968C134.004 16.666 133.754 18.0636 133.254 19.4897C132.774 20.8969 132.11 22.2945 131.264 23.6826C130.418 25.0517 129.428 26.3733 128.294 27.6473C127.159 28.9214 125.957 30.1003 124.688 31.1842C123.419 32.2681 122.102 33.2379 120.737 34.0936C119.372 34.9302 118.045 35.5958 116.757 36.0902C116.545 35.7859 116.276 35.4246 115.949 35.0063C115.642 34.569 115.305 34.1221 114.94 33.6657C114.574 33.1903 114.199 32.7245 113.815 32.2681C113.45 31.7927 113.094 31.3554 112.748 30.956C115.497 29.8912 117.959 28.6266 120.131 27.1625C122.323 25.6983 124.179 24.1675 125.698 22.5702C127.236 20.9539 128.409 19.3281 129.216 17.6928C130.043 16.0384 130.457 14.4982 130.457 13.072C130.457 12.8819 130.428 12.6822 130.37 12.4731C130.312 12.2639 130.216 12.0832 130.082 11.9311C129.947 11.779 129.764 11.6744 129.534 11.6174C129.322 11.5413 129.063 11.5413 128.755 11.6174C127.851 11.8075 126.851 12.1593 125.755 12.6727C124.679 13.1861 123.535 13.8327 122.323 14.6123C121.131 15.3729 119.881 16.2571 118.574 17.2649C117.286 18.2728 115.978 19.3566 114.651 20.5166C113.94 22.7224 113.123 25.0613 112.2 27.5333C111.277 29.9862 110.277 32.4392 109.2 34.8922C108.123 37.3262 106.989 39.6936 105.797 41.9945C104.624 44.2953 103.422 46.406 102.192 48.3266C100.98 50.2281 99.7594 51.873 98.5288 53.2611C97.3174 54.6682 96.1445 55.6761 95.0101 56.2845C94.7217 56.4367 94.366 56.5793 93.9429 56.7124C93.5392 56.8455 93.0296 56.9406 92.4143 56.9976C92.1836 57.0166 91.9144 56.9216 91.6068 56.7124C91.2799 56.5032 90.953 56.237 90.6261 55.9137C90.2993 55.5905 89.9724 55.2292 89.6455 54.8299C89.3186 54.4305 89.0206 54.0502 88.7514 53.6889C88.463 53.3276 88.2323 53.0044 88.0592 52.7192C87.8669 52.4339 87.742 52.2438 87.6843 52.1487C87.5305 51.8635 87.4535 51.5212 87.4535 51.1219C87.4343 50.7416 87.4728 50.3612 87.5689 49.9809C87.9535 48.7069 88.4919 47.3093 89.1841 45.788C89.8763 44.2668 90.6934 42.679 91.6356 41.0247C92.5585 39.3513 93.5872 37.6399 94.7217 35.8905C95.8753 34.1221 97.1059 32.3727 98.4134 30.6423C99.7401 28.8929 101.125 27.172 102.567 25.4796C104.028 23.7872 105.528 22.1709 107.066 20.6307C108.047 17.6072 108.854 14.7454 109.489 12.0452C110.123 9.34502 110.498 6.99662 110.613 5C111.383 5.30425 112.113 5.69406 112.805 6.16945C113.498 6.64483 114.123 7.13923 114.68 7.65265C115.238 8.16606 115.728 8.67948 116.151 9.1929C116.574 9.70631 116.911 10.1627 117.161 10.562C117.122 10.8853 117.074 11.218 117.016 11.5603C116.959 11.8836 116.882 12.2354 116.786 12.6157C118.728 11.3797 120.631 10.4194 122.496 9.73484C124.381 9.03127 126.207 8.67948 127.976 8.67948C128.342 8.67948 128.736 8.79357 129.159 9.02176C129.601 9.24994 130.043 9.55419 130.485 9.9345C130.928 10.2958 131.351 10.7046 131.755 11.161C132.178 11.6174 132.552 12.0832 132.879 12.5586C133.206 13.015 133.466 13.4523 133.658 13.8707C133.87 14.27 133.985 14.6028 134.004 14.869V15.2968ZM92.2413 51.1504C92.6835 51.1504 93.2796 50.6655 94.0295 49.6957C94.7794 48.7259 95.6158 47.4044 96.5387 45.731C97.4809 44.0576 98.4711 42.1086 99.5094 39.8838C100.548 37.659 101.576 35.301 102.595 32.81C101.076 34.5975 99.6632 36.3659 98.3557 38.1153C97.0675 39.8647 95.9426 41.5286 94.9813 43.1069C94.0391 44.6661 93.2988 46.1113 92.7604 47.4424C92.2221 48.7544 91.9529 49.8764 91.9529 50.8081C91.9529 51.0363 92.049 51.1504 92.2413 51.1504Z" stroke="black" stroke-width="6" mask="url(#path-1-outside-1_26_18)"/>
<path d="M144.993 43.9055C143.224 45.6169 141.551 47.0526 139.974 48.2125C138.417 49.3724 136.927 50.3042 135.504 51.0078C134.081 51.7113 132.716 52.2152 131.408 52.5195C130.12 52.8237 128.861 52.9759 127.63 52.9759C127.111 52.9759 126.534 52.7857 125.9 52.4054C125.265 52.0251 124.679 51.5592 124.14 51.0078C123.583 50.4753 123.121 49.9144 122.756 49.3249C122.391 48.7354 122.208 48.2315 122.208 47.8132C122.208 46.2539 122.429 44.8278 122.871 43.5347C123.294 42.2227 123.861 41.0437 124.573 39.9979C125.284 38.952 126.092 38.0298 126.996 37.2311C127.919 36.4325 128.87 35.7669 129.851 35.2345C130.851 34.7021 131.841 34.3027 132.822 34.0365C133.802 33.7703 134.706 33.6372 135.533 33.6372C136.129 33.6372 136.715 33.8083 137.292 34.1506C137.888 34.4929 138.427 34.9112 138.907 35.4056C139.388 35.9 139.773 36.423 140.061 36.9744C140.369 37.5068 140.522 37.9727 140.522 38.372C140.522 39.0186 140.244 39.6841 139.686 40.3687C139.148 41.0342 138.379 41.7187 137.379 42.4223C136.379 43.1259 135.177 43.8485 133.773 44.5901C132.37 45.3127 130.822 46.0447 129.13 46.7863C129.072 47.2427 129.043 47.6896 129.043 48.1269C129.043 48.7164 129.168 49.1157 129.418 49.3249C129.688 49.5341 130.178 49.6387 130.889 49.6387C132.158 49.6387 133.35 49.4295 134.466 49.0112C135.6 48.5928 136.686 48.0509 137.725 47.3853C138.763 46.7198 139.763 45.9592 140.724 45.1035C141.686 44.2478 142.637 43.3826 143.58 42.5079L144.993 43.9055ZM134.841 36.7747C134.456 36.7747 134.033 36.9839 133.572 37.4022C133.11 37.8016 132.649 38.334 132.187 38.9995C131.726 39.6651 131.283 40.4352 130.86 41.3099C130.437 42.1656 130.072 43.0593 129.764 43.9911C130.476 43.5347 131.168 43.0498 131.841 42.5364C132.533 42.023 133.149 41.4906 133.687 40.9391C134.225 40.3687 134.658 39.7887 134.985 39.1992C135.312 38.6097 135.475 38.0202 135.475 37.4308C135.475 37.2596 135.417 37.1075 135.302 36.9744C135.206 36.8413 135.052 36.7747 134.841 36.7747Z" stroke="black" stroke-width="6" mask="url(#path-1-outside-1_26_18)"/>
<path d="M156.674 39.1136C156.424 39.8552 156.107 40.7014 155.722 41.6522C155.357 42.603 155.001 43.5347 154.655 44.4475C154.309 45.3602 154.011 46.1874 153.761 46.929C153.53 47.6706 153.415 48.203 153.415 48.5263C153.415 48.6404 153.472 48.6974 153.588 48.6974C153.799 48.6974 154.117 48.5738 154.54 48.3266C154.963 48.0794 155.443 47.7561 155.982 47.3568C156.539 46.9575 157.116 46.5201 157.712 46.0447C158.308 45.5694 158.875 45.1035 159.414 44.6471C159.971 44.1717 160.471 43.7439 160.914 43.3636C161.356 42.9833 161.692 42.698 161.923 42.5079C162.096 42.679 162.298 42.8977 162.529 43.1639C162.779 43.4301 163.009 43.6773 163.221 43.9055C162.798 44.3239 162.269 44.8373 161.635 45.4458C161 46.0352 160.308 46.6437 159.558 47.2712C158.827 47.8988 158.058 48.5263 157.251 49.1538C156.462 49.7813 155.684 50.3422 154.914 50.8366C154.165 51.331 153.463 51.7304 152.809 52.0346C152.155 52.3388 151.607 52.491 151.165 52.491C150.877 52.491 150.511 52.3864 150.069 52.1772C149.627 51.9871 149.204 51.7399 148.8 51.4356C148.396 51.1504 148.05 50.8271 147.762 50.4658C147.473 50.1045 147.329 49.7528 147.329 49.4105C147.618 48.1364 147.906 47.024 148.194 46.0733C148.483 45.1225 148.752 44.3143 149.002 43.6488C149.252 42.9643 149.473 42.4128 149.665 41.9945C149.858 41.5761 150.002 41.2624 150.098 41.0532C149.867 40.9581 149.646 40.8535 149.435 40.7395C149.223 40.6254 149.012 40.5113 148.8 40.3972C148.492 40.7204 148.146 41.0627 147.762 41.424C147.396 41.7853 147.021 42.1466 146.637 42.5079C146.252 42.8692 145.868 43.221 145.483 43.5632C145.099 43.9055 144.753 44.2193 144.445 44.5045L143.061 43.1069C143.56 42.6315 144.166 42.061 144.878 41.3955C145.57 40.7109 146.252 40.0264 146.925 39.3418C146.445 39.0566 146.012 38.7904 145.627 38.5432C145.243 38.277 144.916 38.0393 144.647 37.8301C144.32 37.6019 144.032 37.3927 143.782 37.2026C143.666 37.1455 143.609 37.0219 143.609 36.8318C143.609 36.6226 143.695 36.3279 143.868 35.9476C144.022 35.5482 144.224 35.1299 144.474 34.6926C144.724 34.2362 144.993 33.7798 145.281 33.3234C145.57 32.8481 145.849 32.4202 146.118 32.0399C146.387 31.6596 146.618 31.3554 146.81 31.1272C147.021 30.88 147.156 30.7564 147.214 30.7564C147.252 30.7564 147.377 30.8039 147.589 30.899C147.819 30.9941 148.06 31.1081 148.31 31.2413C148.56 31.3554 148.79 31.4885 149.002 31.6406C149.213 31.7927 149.348 31.9258 149.406 32.0399C149.425 32.135 149.444 32.3346 149.463 32.6389C149.483 32.9431 149.502 33.3139 149.521 33.7513C150.271 34.1316 151.04 34.569 151.828 35.0634C152.617 35.5387 153.338 35.9951 153.992 36.4325C154.761 36.9269 155.491 37.4308 156.184 37.9442C156.433 38.0963 156.587 38.2865 156.645 38.5146C156.722 38.7428 156.732 38.9425 156.674 39.1136Z" stroke="black" stroke-width="6" mask="url(#path-1-outside-1_26_18)"/>
<path d="M161.346 43.0498C161.788 42.6315 162.298 42.1561 162.875 41.6237C163.432 41.0912 163.99 40.5113 164.548 39.8838C165.124 39.2562 165.653 38.5812 166.134 37.8586C166.634 37.136 167.028 36.3564 167.316 35.5197C167.393 35.0824 167.509 34.626 167.663 34.1506C167.836 33.6562 168.018 33.2094 168.211 32.81C168.422 32.4107 168.624 32.0779 168.816 31.8117C169.008 31.5455 169.182 31.4124 169.335 31.4124C169.566 31.5455 169.912 31.8022 170.374 32.1825C170.835 32.5438 171.297 32.9336 171.758 33.352C172.22 33.7703 172.623 34.1601 172.969 34.5214C173.335 34.8637 173.517 35.0729 173.517 35.1489C173.287 36.0236 173.171 36.8128 173.171 37.5163C173.191 38.2199 173.248 38.914 173.344 39.5985C173.46 40.2831 173.575 41.0152 173.69 41.7948C173.825 42.5554 173.892 43.4396 173.892 44.4475C173.892 45.0559 173.787 45.7595 173.575 46.5582C173.383 47.3378 173.037 48.0414 172.537 48.6689C173.517 48.0984 174.488 47.4614 175.45 46.7578C176.411 46.0352 177.267 45.3602 178.017 44.7327C178.901 43.9911 179.747 43.2495 180.555 42.5079L181.853 43.9055C181.218 44.495 180.526 45.1225 179.776 45.788C179.045 46.4536 178.276 47.1096 177.469 47.7561C176.68 48.4027 175.873 49.0207 175.046 49.6101C174.219 50.1996 173.402 50.7225 172.594 51.1789C171.787 51.6353 171.008 51.9966 170.258 52.2628C169.508 52.529 168.807 52.6621 168.153 52.6621C167.595 52.6621 166.98 52.529 166.307 52.2628C165.634 51.9966 164.999 51.6733 164.403 51.293C163.807 50.9127 163.288 50.5134 162.846 50.095C162.404 49.6767 162.144 49.3249 162.067 49.0397C162.067 49.0016 162.106 48.9256 162.183 48.8115C162.26 48.6784 162.356 48.5453 162.471 48.4122C162.567 48.2791 162.673 48.165 162.788 48.0699C162.884 47.9558 162.961 47.8988 163.019 47.8988C163.134 47.8988 163.365 47.9843 163.711 48.1555C164.057 48.3266 164.634 48.4122 165.442 48.4122C165.884 48.4122 166.259 48.2981 166.567 48.0699C166.893 47.8417 167.163 47.5375 167.374 47.1572C167.586 46.7768 167.739 46.3395 167.836 45.8451C167.932 45.3507 167.98 44.8278 167.98 44.2763C167.98 43.4777 167.941 42.7075 167.864 41.9659C167.788 41.2053 167.701 40.4732 167.605 39.7697C167.278 40.15 166.903 40.5493 166.48 40.9676C166.057 41.386 165.624 41.8043 165.182 42.2227C164.759 42.622 164.327 43.0213 163.884 43.4206C163.461 43.8009 163.077 44.1432 162.731 44.4475L161.346 43.0498Z" stroke="black" stroke-width="6" mask="url(#path-1-outside-1_26_18)"/>
<path d="M184.016 48.0128C184.016 48.5833 184.227 48.8685 184.65 48.8685C185.093 48.8685 185.679 48.5263 186.41 47.8417C187.14 47.1381 187.9 46.2539 188.688 45.1891C188.65 44.9799 188.621 44.7992 188.602 44.6471C188.602 44.476 188.602 44.3239 188.602 44.1907C188.602 43.8104 188.64 43.3636 188.717 42.8502C188.813 42.3177 189.034 41.7187 189.38 41.0532C189.611 40.5398 189.89 40.0359 190.217 39.5415C190.486 39.1041 190.813 38.6382 191.197 38.1438C191.582 37.6304 192.005 37.155 192.466 36.7177L192.64 36.5466C192.832 36.7747 193.082 37.0885 193.389 37.4878C193.716 37.8681 194.034 38.2674 194.341 38.6858C194.668 39.0851 194.947 39.4559 195.178 39.7982C195.428 40.1405 195.581 40.3782 195.639 40.5113C195.639 41.3289 195.485 42.1466 195.178 42.9643C194.889 43.7819 194.495 44.5901 193.995 45.3887C195.149 45.3127 196.216 45.0274 197.197 44.533C198.196 44.0196 199.235 43.1924 200.311 42.0515C200.484 42.2227 200.706 42.4603 200.975 42.7646C201.263 43.0498 201.494 43.297 201.667 43.5062C200.859 44.3429 200.061 45.0369 199.273 45.5884C198.504 46.1398 197.725 46.5772 196.937 46.9004C196.168 47.2237 195.38 47.4614 194.572 47.6135C193.764 47.7466 192.938 47.8132 192.092 47.8132C191.438 48.4977 190.736 49.1252 189.986 49.6957C189.236 50.2662 188.467 50.7606 187.679 51.1789C186.91 51.5972 186.141 51.9205 185.371 52.1487C184.602 52.3769 183.872 52.491 183.179 52.491C182.603 52.491 182.007 52.3198 181.391 51.9776C180.776 51.6353 180.218 51.2169 179.718 50.7225C179.218 50.2091 178.805 49.6672 178.478 49.0967C178.151 48.5263 177.988 48.0224 177.988 47.585C177.988 46.1398 178.19 44.7042 178.594 43.278C178.978 41.8519 179.593 40.5208 180.439 39.2848C181.266 38.0298 182.324 36.9269 183.612 35.9761C184.92 35.0253 186.467 34.3027 188.256 33.8083C188.313 33.7703 188.409 33.7418 188.544 33.7228C188.698 33.7038 188.823 33.6942 188.919 33.6942C189.188 33.6942 189.467 33.7988 189.755 34.008C190.063 34.1982 190.342 34.4168 190.592 34.664C190.861 34.9112 191.082 35.1584 191.255 35.4056C191.428 35.6338 191.515 35.7859 191.515 35.862C191.476 35.9571 191.332 36.0807 191.082 36.2328C190.832 36.3659 190.496 36.6036 190.073 36.9459C189.65 37.2882 189.15 37.7826 188.573 38.4291C187.996 39.0566 187.361 39.8933 186.669 40.9391C185.631 42.4794 184.929 43.877 184.564 45.132C184.199 46.368 184.016 47.3283 184.016 48.0128Z" stroke="black" stroke-width="6" mask="url(#path-1-outside-1_26_18)"/>
<path d="M208.07 37.1455C207.839 37.754 207.608 38.372 207.378 38.9995C207.147 39.627 206.916 40.2736 206.685 40.9391C207.897 39.57 208.935 38.4576 209.8 37.6019C210.685 36.7272 211.425 36.0426 212.021 35.5482C212.636 35.0538 213.127 34.7211 213.492 34.5499C213.877 34.3598 214.175 34.2647 214.386 34.2647C214.636 34.2647 215.011 34.3883 215.511 34.6355C216.011 34.8827 216.511 35.187 217.011 35.5482C217.53 35.9095 217.972 36.2803 218.338 36.6606C218.722 37.041 218.914 37.3737 218.914 37.659C218.914 37.716 218.905 37.7921 218.886 37.8871C218.866 37.9632 218.837 38.0678 218.799 38.2009C218.645 38.6763 218.443 39.2372 218.193 39.8838C217.963 40.5303 217.713 41.2053 217.443 41.9089C217.174 42.5935 216.905 43.2875 216.636 43.9911C216.367 44.6756 216.126 45.3222 215.915 45.9307C215.703 46.5391 215.53 47.0716 215.396 47.528C215.261 47.9843 215.194 48.3171 215.194 48.5263C215.194 48.6404 215.251 48.6974 215.367 48.6974C215.578 48.6974 215.896 48.5738 216.319 48.3266C216.742 48.0794 217.222 47.7561 217.761 47.3568C218.318 46.9575 218.895 46.5201 219.491 46.0447C220.087 45.5694 220.655 45.1035 221.193 44.6471C221.75 44.1717 222.25 43.7439 222.693 43.3636C223.135 42.9833 223.471 42.698 223.702 42.5079C223.894 42.679 224.106 42.8977 224.337 43.1639C224.567 43.4301 224.788 43.6773 225 43.9055C224.577 44.3239 224.048 44.8373 223.414 45.4458C222.779 46.0352 222.087 46.6437 221.337 47.2712C220.606 47.8988 219.837 48.5263 219.03 49.1538C218.241 49.7813 217.472 50.3422 216.722 50.8366C215.973 51.331 215.271 51.7304 214.617 52.0346C213.963 52.3388 213.415 52.491 212.973 52.491C212.685 52.491 212.319 52.3864 211.877 52.1772C211.435 51.9871 211.002 51.7399 210.579 51.4356C210.175 51.1504 209.829 50.8271 209.541 50.4658C209.252 50.1045 209.108 49.7528 209.108 49.4105C209.281 48.6308 209.512 47.7466 209.8 46.7578C210.108 45.769 210.435 44.7612 210.781 43.7344C211.127 42.6885 211.483 41.6617 211.848 40.6539C212.233 39.627 212.598 38.6858 212.944 37.8301L212.886 37.8871C212.521 38.3245 211.992 38.9045 211.3 39.627C210.627 40.3306 209.858 41.2434 208.993 42.3653C208.128 43.4682 207.214 44.8087 206.253 46.387C205.291 47.9463 204.349 49.8003 203.426 51.949C203.311 52.2152 203.205 52.4244 203.109 52.5765C203.013 52.7287 202.83 52.8047 202.561 52.8047C202.234 52.8047 201.859 52.7096 201.436 52.5195C201.032 52.3484 200.619 52.1107 200.196 51.8064C199.754 51.5212 199.321 51.1979 198.898 50.8366C198.456 50.4753 198.062 50.114 197.716 49.7528C197.716 49.6387 197.773 49.3154 197.889 48.783C197.985 48.2505 198.129 47.585 198.321 46.7863C198.514 45.9687 198.754 45.0464 199.042 44.0196C199.331 42.9738 199.658 41.8804 200.023 40.7395C200.388 39.5985 200.792 38.4386 201.234 37.2596C201.657 36.0617 202.119 34.9112 202.619 33.8083C203.426 34.1886 204.32 34.6545 205.301 35.206C206.301 35.7574 207.224 36.4039 208.07 37.1455Z" stroke="black" stroke-width="6" mask="url(#path-1-outside-1_26_18)"/>
</svg>
